<?xml version="1.0" encoding="UTF-8"?>
<svg id="Layer_1" data-name="Layer 1" xmlns="http://www.w3.org/2000/svg" viewBox="0 0 396.85 396.85">
  <defs>
    <style>
      .cls-1 {
        fill: #bb181b;
      }

      .cls-2, .cls-3 {
        fill: #1c7bae;
      }

      .cls-3 {
        opacity: .5;
      }
    </style>
  </defs>
  <path class="cls-1" d="M171.38,304.29c.62.28,1.23.54,1.85.77l-4.39,10.52-1.85-.75,4.39-10.54ZM167.25,81.9l4.37,10.54c.62-.24,1.21-.5,1.83-.73l-4.37-10.56-1.83.75ZM182.64,320.31l1.91.52,2.98-11.02c-.64-.18-1.27-.34-1.91-.54l-2.98,11.04ZM215.52,83.39c.34-.02.66-.02.99-.02s.66,0,.99.02v-25.3h-1.99v25.3ZM157.94,297.48s0,0,0,0h0s0,0,0,0l-5.74,9.89h0l1.73.99,5.72-9.87s0,0,0,0c-.57-.34-1.13-.67-1.7-1.01ZM199.12,73.12l1.49,11.36c.66-.12,1.31-.2,1.97-.26l-1.49-11.36-1.97.26ZM198.86,323.69l1.97.26,1.51-11.34c-.66-.08-1.31-.16-1.97-.26l-1.51,11.34ZM182.9,76.48l2.96,11.04c.64-.2,1.27-.36,1.91-.52l-2.96-11.04-1.91.52ZM215.52,313.46v25.3h1.99v-25.3c-.34.02-.66.02-.99.02s-.66,0-.99-.02ZM298.56,117.78l8.1-8.1-1.41-1.41-8.1,8.1c.48.46.95.93,1.41,1.41ZM315.7,140.06s0,0,0,0h-.02c.34.59.68,1.15.99,1.72h.01s0,0,0,0l9.89-5.72h0s0,0,0,0l-.74-1.28-.25-.43-9.89,5.7ZM134.46,117.77h.01c.44-.47.91-.94,1.39-1.4h0s0,0,0,0l-8.1-8.1-1.41,1.41,8.1,8.1s0,0,0-.01ZM140.31,97.45l-1.57,1.21h0s3.3,4.3,3.3,4.3l3.67,4.78h0s0,0,0,0c.52-.42,1.03-.81,1.57-1.21h0s0,0,0,0l-6.97-9.07ZM124.61,267.67s0-.01-.01-.02h0s0,0,0,0l-9.07,6.97h0s1.21,1.59,1.21,1.59l9.09-6.97c-.1-.11-.19-.23-.28-.35-.32-.4-.63-.81-.94-1.23ZM135.86,280.46c-.24-.22-.48-.45-.71-.68-.23-.24-.46-.47-.68-.71h-.01s0,0,0,0l-8.1,8.1.71.7.7.71,8.1-8.1s0,0-.01,0h.01ZM116.89,120.44l-1.21,1.57,2.13,1.64,6.95,5.35c.38-.54.79-1.05,1.21-1.57l-3.77-2.9-5.3-4.09ZM145.82,289.21c-.1-.08-.21-.16-.31-.25h0s0,0,0,0l-6.99,9.07,1.21.94.36.28,6.99-9.07c-.22-.16-.44-.33-.66-.5-.2-.15-.4-.31-.6-.47ZM279.08,88.49h0l-5.74,9.89c.11.06.22.12.33.19.33.19.67.38,1,.57.13.08.27.15.4.23l1.29-2.22,4.45-7.66-1.73-.99h0ZM259.8,91.81c.62.24,1.23.5,1.83.75l4.39-10.54-1.83-.77-4.39,10.56ZM294.49,98.82l-.28-.22-1.28-.99-1.64,2.13-5.35,6.94c.54.4,1.05.79,1.57,1.21l.36-.46,6.63-8.61h0ZM230.43,312.63l1.49,11.36,1.97-.26-1.49-11.36c-.66.12-1.31.2-1.97.26ZM259.56,305.14l4.37,10.54,1.85-.75-4.37-10.54c-.62.26-1.23.52-1.85.75ZM230.67,84.24c.66.08,1.31.16,1.97.26l1.51-11.34-1.97-.26-1.51,11.34ZM245.48,87.06c.64.16,1.27.32,1.91.52l2.98-11.04-1.91-.52-2.98,11.04ZM245.27,309.87l2.94,11.02,1.91-.52-2.94-11.02c-.64.18-1.27.34-1.91.52ZM102.58,182.29l-11.34-1.51-.26,1.97,11.34,1.51c.08-.66.16-1.31.26-1.97ZM327.35,229.31l11.04,2.98.52-1.91-11.04-2.98c-.16.64-.32,1.27-.52,1.91ZM106.64,135.89l9.81,5.7c.32-.57.65-1.15.99-1.72,0,0,0,0,0,0h0s0,0,0,0l-9.89-5.74-.99,1.73h0,0s.07.04.07.04ZM330.43,214.56l11.34,1.51.26-1.97-11.34-1.51c-.08.66-.16,1.31-.26,1.97ZM110.64,153.3l-10.54-4.39-.75,1.85,10.52,4.39c.24-.62.5-1.23.77-1.85ZM105.66,167.54l-11.04-2.98-.52,1.91,11.02,2.98c.18-.64.34-1.27.54-1.91ZM327.93,169.68l11.04-2.96-.52-1.91-11.04,2.96c.2.64.36,1.27.52,1.91ZM330.71,184.5l11.36-1.49-.26-1.97-11.36,1.49c.12.66.2,1.31.26,1.97ZM308.39,129.18s0,.01.01.02h0s0,0,0,0l9.07-6.97h0s-1.21-1.59-1.21-1.59l-9.09,6.97c.1.11.18.23.28.35.32.4.63.81.94,1.22ZM331.54,197.44c.02.34.02.66.02.99s0,.66-.02.99h25.3v-1.99h-25.3ZM323.22,155.37l10.56-4.37-.75-1.83-10.54,4.37c.24.62.5,1.21.73,1.83ZM298.56,279.07h0c-.46.48-.93.95-1.41,1.39h.01s0,.02-.01.02l8.1,8.1,1.41-1.41-8.1-8.1h0ZM308.25,267.85h0s0,0,0,0c-.39.53-.79,1.04-1.2,1.56,0,0,0,0,0,.01l9.07,6.99h0s0,0,0,0l1.21-1.57-9.07-6.99s0,0,0,0ZM287.32,289.1h0c-.52.44-1.05.83-1.59,1.23l6.97,9.07h0s0,0,0,0l1.59-1.21-6.97-9.09s0,0,0,0ZM274.87,297.62v-.02c-.57.36-1.15.68-1.72,1.01l5.72,9.89h0s0,0,0,0l1.71-.99-5.7-9.89s0,0,0,0ZM316.55,255.26c-.32.57-.65,1.15-.99,1.72,0,0,0,0,0,0l9.89,5.74h0s0,0,0,0l.95-1.65.05-.08h0l-9.89-5.74ZM101.45,198.44c0-.34,0-.66.02-.99h-25.3v1.99h25.3c-.02-.34-.02-.66-.02-.99ZM154.15,88.36h0s-1.71.98-1.71.98h0s0,0,0,0l5.72,9.91s.02-.01.03-.02c.32-.19.63-.37.95-.56.25-.14.5-.28.75-.42l-5.72-9.91h-.01ZM105.06,227.19l-11.02,2.94.52,1.91,11.02-2.94c-.18-.64-.34-1.27-.52-1.91ZM102.3,212.35l-11.36,1.49.26,1.97,11.36-1.49c-.12-.66-.2-1.31-.26-1.97ZM109.79,241.48l-10.54,4.37.75,1.85,10.54-4.37c-.26-.62-.52-1.23-.75-1.85ZM117.33,256.77s0,0,0,0c-.36-.58-.68-1.15-.99-1.73l-9.91,5.72h0s0,.02,0,.02l.99,1.7h0s0,0,0,0h0s9.91-5.72,9.91-5.72ZM322.37,243.55l10.54,4.39.77-1.83-10.56-4.39c-.24.62-.5,1.23-.75,1.83Z"/>
  <g>
    <path class="cls-2" d="M154.07,132.38l-1.56,1.64-1.82-.85-2.9,3.05.94,1.77-1.55,1.63-5.12-9.95,1.77-1.87,10.22,4.57ZM144.71,130.39l2.14,4.02,1.99-2.1-4.13-1.92Z"/>
    <path class="cls-2" d="M153.35,119.13l1.29,1.52-3.21,2.74,1.63,1.91,3.12-2.66,1.29,1.51-3.12,2.66,2.64,3.1-1.58,1.35-6.85-8.03,4.8-4.09Z"/>
    <path class="cls-2" d="M168.59,121.22l-1.85,1.28-3.83-1.81-1.3.9,2.08,3.02-1.71,1.18-6-8.69,3.48-2.4c.8-.55,1.68-.74,2.63-.57.95.17,1.7.66,2.25,1.45.37.54.56,1.14.57,1.81.01.67-.16,1.3-.5,1.88l4.19,1.95ZM160.55,116.3l-1.76,1.22,1.78,2.57,1.76-1.22c.32-.22.51-.54.57-.95.06-.41-.04-.8-.28-1.15-.25-.36-.57-.58-.97-.67-.4-.09-.77-.02-1.09.2Z"/>
    <path class="cls-2" d="M170.35,120.27l-5.27-9.15,1.8-1.04,5.27,9.15-1.8,1.04Z"/>
    <path class="cls-2" d="M179.12,115.94c-1.43.66-2.85.73-4.24.21-1.38-.52-2.39-1.48-3.05-2.9-.66-1.42-.73-2.82-.22-4.2.51-1.4,1.48-2.43,2.91-3.09.87-.4,1.76-.57,2.69-.5.92.07,1.75.35,2.48.86l-1.19,1.7c-.44-.32-.93-.5-1.48-.54-.55-.04-1.1.07-1.65.32-.93.43-1.55,1.07-1.86,1.92-.29.85-.23,1.74.2,2.67.42.91,1.05,1.54,1.89,1.87.84.32,1.73.26,2.66-.16.55-.25.99-.6,1.32-1.05.33-.45.51-.93.55-1.46l2.07.19c-.09.88-.41,1.7-.96,2.44-.55.75-1.26,1.32-2.12,1.72Z"/>
    <path class="cls-2" d="M193.58,110.45l-2.16.69-1.18-1.62-4.01,1.28-.02,2-2.14.68.3-11.18,2.46-.79,6.75,8.93ZM186.34,104.2l-.06,4.55,2.76-.88-2.69-3.67Z"/>
    <path class="cls-2" d="M204.76,108.64c-1.56.21-2.94-.14-4.11-1.04-1.17-.9-1.85-2.12-2.06-3.66-.21-1.55.13-2.91,1.02-4.08.89-1.19,2.12-1.89,3.69-2.1.95-.13,1.85-.02,2.71.31.86.33,1.57.85,2.12,1.55l-1.64,1.27c-.32-.43-.74-.75-1.26-.95-.51-.2-1.07-.26-1.67-.18-1.02.14-1.8.57-2.34,1.29-.53.73-.73,1.6-.59,2.61.13,1,.55,1.78,1.26,2.34.71.55,1.58.76,2.6.62.6-.08,1.12-.29,1.57-.62.45-.33.77-.74.95-1.23l1.92.79c-.35.82-.89,1.5-1.63,2.06-.74.55-1.59.89-2.53,1.02Z"/>
    <path class="cls-2" d="M213.19,103.37l.06,2.37,4.45-.11.05,1.99-6.53.16-.26-10.56,6.45-.16.05,1.99-4.37.11.06,2.25,4-.1.05,1.96-4,.1Z"/>
    <path class="cls-2" d="M226.34,104.04l.52-6.42,2.07.17-.86,10.53-1.58-.13-3.98-6.8-.53,6.44-2.07-.17.86-10.53,1.58.13,3.99,6.79Z"/>
    <path class="cls-2" d="M231.95,98.21l7.63,1.47-.38,1.96-2.8-.54-1.62,8.41-2.04-.39,1.62-8.41-2.79-.54.38-1.96Z"/>
    <path class="cls-2" d="M247.1,112.85l-2.15-.65-.97-4.13-1.52-.46-1.06,3.51-1.99-.6,3.07-10.11,4.04,1.23c.93.28,1.63.85,2.08,1.7.46.85.54,1.74.26,2.67-.19.63-.54,1.15-1.06,1.58-.52.43-1.11.68-1.78.78l1.08,4.49ZM245.95,103.5l-2.05-.62-.91,2.99,2.05.62c.38.11.74.07,1.1-.15.36-.21.6-.52.73-.94.13-.41.1-.81-.08-1.18-.18-.37-.46-.61-.84-.73Z"/>
    <path class="cls-2" d="M252.51,110.36l-.92,2.18,4.1,1.73-.77,1.84-6.02-2.53,4.1-9.73,5.95,2.5-.77,1.84-4.03-1.7-.87,2.07,3.68,1.55-.76,1.81-3.68-1.55Z"/>
    <path class="cls-2" d="M271.85,113.49l-1.03,1.7-3.61-2.19-1.3,2.14,3.51,2.13-1.03,1.7-3.51-2.13-2.11,3.48-1.78-1.08,5.48-9.03,5.39,3.27Z"/>
    <path class="cls-2" d="M276.1,128.07c-1.49.18-2.84-.2-4.04-1.14-1.21-.94-1.91-2.15-2.1-3.64-.17-1.5.21-2.85,1.15-4.06.94-1.21,2.16-1.91,3.64-2.1,1.5-.19,2.85.19,4.05,1.13,1.21.94,1.9,2.16,2.09,3.65.19,1.49-.18,2.84-1.13,4.05-.94,1.21-2.17,1.92-3.66,2.1ZM271.98,123.07c.11.9.55,1.65,1.32,2.25.77.6,1.61.84,2.51.73.92-.11,1.68-.57,2.3-1.36.62-.79.87-1.65.75-2.57-.11-.92-.55-1.67-1.31-2.27-.76-.59-1.6-.83-2.52-.72-.92.11-1.68.57-2.3,1.36-.62.79-.87,1.65-.75,2.57Z"/>
    <path class="cls-2" d="M283.74,137.32l-1.59-1.59,1.09-4.1-1.12-1.12-2.59,2.59-1.47-1.47,7.46-7.47,2.99,2.98c.69.69,1.04,1.52,1.04,2.48,0,.97-.34,1.79-1.02,2.48-.46.46-1.02.76-1.68.89-.66.13-1.3.08-1.94-.15l-1.16,4.47ZM287.12,128.52l-1.52-1.51-2.21,2.21,1.52,1.51c.28.28.62.41,1.04.39.42-.02.78-.18,1.08-.49.31-.31.47-.67.48-1.08.01-.41-.12-.76-.4-1.03Z"/>
  </g>
  <g>
    <path class="cls-2" d="M133.42,250.23l2.8,4.49-.69.43c-1.28.8-2.57,1.03-3.88.71-1.3-.32-2.36-1.14-3.17-2.43-.86-1.38-1.13-2.81-.8-4.28.34-1.47,1.16-2.61,2.46-3.42,1.31-.81,2.69-1.05,4.15-.72,1.47.34,2.62,1.18,3.45,2.51.52.83.8,1.7.86,2.63.06.93-.12,1.78-.51,2.58l-1.81-.97c.23-.44.33-.95.29-1.53-.04-.58-.22-1.13-.55-1.65-.54-.86-1.26-1.39-2.16-1.59-.89-.21-1.76-.04-2.62.5-.85.53-1.37,1.24-1.58,2.14-.2.9-.01,1.81.57,2.74.42.67.92,1.14,1.5,1.41.58.27,1.19.31,1.83.14l-1.69-2.71,1.56-.97Z"/>
    <path class="cls-2" d="M143.13,255.6l-6.72,5.31,2.5,3.16-1.56,1.23-3.79-4.79,8.28-6.55,1.29,1.63Z"/>
    <path class="cls-2" d="M146.14,272.64c-1.5-.02-2.78-.58-3.85-1.68-1.07-1.09-1.6-2.39-1.59-3.89.03-1.51.59-2.8,1.69-3.86,1.1-1.08,2.4-1.61,3.89-1.59,1.51.02,2.8.57,3.86,1.67,1.07,1.09,1.59,2.39,1.58,3.9,0,1.5-.57,2.79-1.67,3.86-1.1,1.08-2.4,1.61-3.91,1.59ZM142.73,267.13c-.01.91.33,1.71,1.01,2.41.68.7,1.48,1.05,2.39,1.06.92.01,1.75-.34,2.47-1.04.72-.7,1.08-1.52,1.09-2.44.01-.92-.32-1.73-1-2.42-.67-.69-1.47-1.04-2.4-1.05-.92-.01-1.75.34-2.47,1.04-.72.7-1.08,1.52-1.09,2.44Z"/>
    <path class="cls-2" d="M157.43,276.8c.39.99.25,1.91-.42,2.75-.56.7-1.27,1.07-2.12,1.13-.85.05-1.64-.21-2.36-.79l-3.5-2.8,6.6-8.24,3.25,2.6c.7.56,1.12,1.25,1.25,2.08.13.83-.06,1.58-.6,2.25-.55.68-1.25,1.03-2.1,1.03ZM151.87,276.86l1.87,1.5c.27.22.58.31.9.27.33-.04.61-.2.83-.48.22-.27.31-.58.28-.91-.03-.33-.19-.6-.46-.82l-1.87-1.5-1.56,1.94ZM157.66,272.96l-1.63-1.3-1.45,1.81,1.63,1.3c.25.2.53.28.84.25.31-.04.56-.19.77-.44s.3-.54.27-.85c-.03-.3-.17-.56-.43-.77Z"/>
    <path class="cls-2" d="M165.52,288.73l-1.91-1.21.48-1.95-3.56-2.25-1.55,1.27-1.9-1.2,8.76-6.96,2.18,1.38-2.5,10.91ZM165.65,279.17l-3.53,2.88,2.45,1.55,1.08-4.42Z"/>
    <path class="cls-2" d="M174.74,281.56l-3.8,7.68,3.61,1.79-.88,1.78-5.47-2.71,4.69-9.46,1.87.92Z"/>
    <path class="cls-2" d="M189.05,291.72l1.26-4,1.97.62-3.18,10.07-1.97-.62,1.32-4.17-3.74-1.18-1.32,4.17-1.99-.63,3.18-10.07,1.99.63-1.26,4,3.74,1.18Z"/>
    <path class="cls-2" d="M195.85,295.49l-.47,2.32,4.36.88-.39,1.95-6.4-1.29,2.09-10.35,6.33,1.28-.39,1.95-4.29-.87-.44,2.2,3.92.79-.39,1.92-3.92-.79Z"/>
    <path class="cls-2" d="M211.96,302.02l-2.25-.21-.46-1.95-4.19-.38-.8,1.84-2.24-.2,4.64-10.18,2.57.23,2.74,10.85ZM207.73,293.44l-1.83,4.17,2.88.26-1.05-4.43Z"/>
    <path class="cls-2" d="M216.89,291.44l.14,8.57,4.03-.07.03,1.99-6.11.1-.17-10.56,2.08-.03Z"/>
    <path class="cls-2" d="M221.15,291.4l7.74-.7.18,1.98-2.84.26.77,8.53-2.07.19-.77-8.53-2.82.26-.18-1.98Z"/>
    <path class="cls-2" d="M237.61,293.35l-.82-4.11,2.03-.41,2.07,10.35-2.03.41-.86-4.29-3.85.77.86,4.29-2.04.41-2.07-10.35,2.04-.41.82,4.11,3.85-.77Z"/>
    <path class="cls-2" d="M253.2,295.53c-.97.36-1.87.46-2.7.27-.83-.18-1.53-.6-2.1-1.26l1.3-1.6c.76.86,1.71,1.08,2.84.66.53-.2.89-.44,1.08-.73.19-.29.23-.59.11-.91-.13-.35-.39-.56-.77-.63-.39-.08-1.02-.08-1.91,0-.97.06-1.76.01-2.39-.15-.79-.23-1.36-.79-1.7-1.68-.34-.9-.29-1.73.14-2.49.43-.77,1.1-1.33,2-1.67.79-.3,1.56-.37,2.32-.21.76.16,1.44.52,2.04,1.1l-1.28,1.56c-.71-.7-1.5-.89-2.37-.56-.4.15-.68.36-.84.63-.17.27-.19.55-.08.85.12.31.34.52.67.62.36.09.93.11,1.73.06l.76-.03c.14,0,.38,0,.73,0,.32,0,.57.02.73.06.57.11.99.28,1.26.53.39.3.69.72.89,1.26.34.91.28,1.76-.18,2.55-.47.79-1.23,1.38-2.28,1.78Z"/>
    <path class="cls-2" d="M259.57,287.83l1.05,2.12,3.99-1.97.88,1.79-5.86,2.89-4.68-9.47,5.79-2.86.88,1.79-3.92,1.94,1,2.02,3.58-1.77.87,1.76-3.58,1.77Z"/>
    <path class="cls-2" d="M272.83,285.61c-1.33.85-2.72,1.11-4.17.79-1.44-.32-2.57-1.14-3.42-2.45-.85-1.32-1.11-2.7-.8-4.13.31-1.45,1.13-2.61,2.46-3.46.8-.52,1.67-.8,2.59-.86.92-.06,1.78.11,2.57.51l-.95,1.84c-.48-.26-.99-.37-1.54-.33-.55.04-1.08.22-1.59.54-.86.55-1.39,1.27-1.58,2.16-.17.89.01,1.76.56,2.61.54.85,1.25,1.38,2.13,1.59.88.2,1.75.02,2.62-.53.51-.33.9-.73,1.16-1.22.27-.49.38-.99.34-1.52l2.07-.09c.03.89-.17,1.74-.61,2.55-.44.81-1.06,1.48-1.87,1.99Z"/>
    <path class="cls-2" d="M282.42,278.59c-.91.75-1.86,1.11-2.87,1.07-1-.03-1.86-.48-2.57-1.34l-4.52-5.49,1.6-1.31,4.41,5.36c.36.43.76.67,1.22.71.45.04.93-.15,1.44-.57.5-.42.78-.85.83-1.3.05-.45-.1-.9-.46-1.33l-4.41-5.36,1.61-1.32,4.52,5.49c.71.86.98,1.79.82,2.78-.16.99-.7,1.87-1.61,2.62Z"/>
    <path class="cls-2" d="M293.87,267.42l-1.57,1.61-4.11-1.03-1.1,1.14,2.63,2.55-1.45,1.49-7.58-7.36,2.94-3.03c.68-.7,1.5-1.06,2.47-1.07.97-.01,1.8.31,2.49.99.47.46.77,1.01.92,1.67s.1,1.3-.13,1.94l4.49,1.1ZM285.03,264.16l-1.49,1.54,2.24,2.18,1.49-1.54c.27-.28.4-.63.37-1.05-.02-.42-.19-.77-.5-1.08-.31-.3-.67-.46-1.08-.46-.41,0-.76.13-1.03.41Z"/>
    <path class="cls-2" d="M295.75,265.12l-8.14-6.72,1.33-1.61,8.14,6.72-1.33,1.61Z"/>
    <path class="cls-2" d="M290.28,255.21l4.48-6.35,1.63,1.15-1.65,2.33,7,4.94-1.2,1.7-7-4.94-1.64,2.32-1.63-1.15Z"/>
    <path class="cls-2" d="M298.78,241.9l1.15-2.05,3.84,6.31,3.59,2.02-1.01,1.8-3.59-2.02h-7.38s1.15-2.06,1.15-2.06l4.96.16-2.72-4.16Z"/>
  </g>
  <g>
    <path class="cls-3" d="M198.56,198.92s.01-.06.01-.08v-.07s0-.06,0-.06c.02-.35-.03-.71-.16-1.17-5-.55-9.98-1.33-14.92-2.35-.65.26-1.34.52-2.06.76,5.64,1.33,11.34,2.35,17.07,3.05.02-.03.03-.06.05-.08Z"/>
    <path class="cls-3" d="M162.41,160.96c6.5,2.42,13.22,4.4,20.07,5.94-1.62,7.46-2.93,15.5-3.9,23.97.11-.03.22-.07.33-.1,1.1-8.42,2.53-16.37,4.26-23.71,10.56,2.31,21.42,3.56,32.27,3.71l.5,27.73c-3.98,0-7.96-.14-11.94-.43.02.49,0,.99-.06,1.52,4,.35,8.02.55,12.02.6l.53,11.89.53-11.88c8.86.04,17.69-.66,26.37-2.12,3.78-.65,7.55-1.46,11.29-2.41.61,5.45,1.07,11.08,1.39,16.85,0-.02.01-.05.02-.07-.24-5.76-.63-11.39-1.16-16.85,6.98-1.8,13.86-4.13,20.57-6.96.74-.82,1.47-1.66,2.12-2.54-6.16,2.47-12.42,4.59-18.78,6.31-1.37.4-2.75.77-4.13,1.13-.98-9.31-2.37-18.11-4.11-26.24.87-.19,1.74-.39,2.6-.59l-.47-.91c-.15-.29-.3-.59-.45-.87-.7.15-1.41.3-2.11.45-1.08-4.82-2.29-9.39-3.61-13.67-.19-.52-.38-1.02-.53-1.46l-.08-.22-.05-.37s0-.03,0-.04c-.37-1.14-.75-2.27-1.13-3.37-.3-.23-.73-.32-1.41-.36,2.28,5.86,4.33,12.45,6.09,19.65-10.52,2.12-21.19,3.29-31.87,3.45l.39-21.48c6.23-.02,12.45-.59,18.53-1.73-.64-.08-1.25-.19-1.84-.34-.43-.11-1.18-.37-1.55-.51l-.08-.03-.32-.15c-.21-.09-.41-.19-.63-.29-2.98.44-5.96.77-8.96.98-1.8,1.1-4.05,2.05-7.28.96-.56-.19-1.08-.43-1.59-.68-7.89-.06-15.76-.94-23.49-2.71,1.05-2.5,2.15-4.84,3.29-7.03-.16.06-.31.12-.46.18-.45.18-.89.35-1.3.51-.11.04-.22.09-.34.13-.85,1.88-1.67,3.85-2.47,5.91-4.14-1-8.23-2.27-12.26-3.78-.11.17-.22.33-.33.51,3.96,1.66,8.05,3.07,12.23,4.23-2.46,6.58-4.63,14.04-6.44,22.2-6.77-1.35-13.47-3.14-20.07-5.39,1.8-3.85,3.74-7.5,5.82-10.93h0c-.69.02-1.41.09-2.08.23-1.78,3.26-3.46,6.67-5.01,10.26-.74-.26-1.47-.53-2.21-.8-.13.11-.26.22-.39.33.79.32,1.59.64,2.39.95-.94,2.21-1.83,4.48-2.68,6.8-.09.96-.32,1.91-.75,2.81-.16.34-.38.73-.62,1.1-.29.86-.57,1.72-.84,2.59.04.53.18,1.09.43,1.72,1.68-5.1,3.59-9.97,5.7-14.56ZM217.57,170.77c10.92.01,21.81-1.09,32.36-3.33,1.88,8.06,3.41,16.84,4.53,26.16-12.27,3.15-24.82,4.77-37.38,4.88l.5-27.71ZM190.38,143.97c8.01,2.11,16.33,3.28,24.64,3.49l.39,21.53c-10.72.03-21.43-.95-31.98-3.01,1.97-8.17,4.31-15.57,6.95-22.01Z"/>
    <path class="cls-3" d="M280,188.71c1.91,8.13,3.28,16.7,4.03,25.62-.56-9.11-1.78-17.89-3.55-26.22-.16.2-.31.41-.47.6Z"/>
    <path class="cls-3" d="M218.61,112.91h0s-4.22,0-4.22,0h0c-47.14,1.27-85.63,45.26-90.35,101.41,1.56-13.64,5.1-26.5,10.27-38.13,5.97,3.8,12.2,7.16,18.61,10.07-2,8.88-3.35,18.28-3.95,28.06.81-9.71,2.36-19.03,4.54-27.8,1.71.77,3.43,1.49,5.17,2.19-.1-.16-.2-.31-.31-.47-.15-.21-.3-.42-.45-.63-1.42-.55-2.84-1.12-4.25-1.71.23-.9.47-1.78.71-2.67-.19-.24-.38-.48-.56-.73-.26,1.04-.51,2.08-.75,3.14-6.4-2.73-12.66-5.89-18.74-9.48,3.53-7.94,7.81-15.31,12.73-21.97,1.73.89,3.5,1.73,5.27,2.55.05-.06.1-.12.15-.18-1.81-.76-3.62-1.55-5.42-2.39,5.65-7.66,12.15-14.38,19.31-19.94,1.43.82,2.9,1.59,4.38,2.34.06-.1.12-.19.17-.29-1.49-.67-2.97-1.38-4.44-2.13,5.76-4.46,11.95-8.17,18.47-11.02.74.28,1.48.55,2.22.81-1.59,1.27-3.14,2.65-4.66,4.12,1.01.17,1.93.53,2.7,1.08,1.73-1.49,3.5-2.87,5.31-4.11,2.24.68,4.5,1.28,6.77,1.79-.2.31-.39.63-.58.94,3.18-.83,6.89-1.19,10.25.49.14.07.27.15.4.22,2.43.28,4.88.48,7.33.58l.16,8.88c1.07.9,2.22,1.8,3.26,2.1l.2-10.9c5.22.01,10.44-.42,15.58-1.41,2.45,3.35,4.75,7.39,6.89,12.02.5,0,1.02,0,1.53.02-1.95-4.71-4.07-8.9-6.32-12.48,2.33-.52,4.64-1.17,6.93-1.94,4.85,3.4,9.41,7.7,13.61,12.79-2.93,1.09-5.9,2.05-8.89,2.91.58.36,1.13.81,1.63,1.39,2.77-.94,5.5-2,8.15-3.2,4.78,5.98,9.06,12.99,12.75,20.82-4.28,1.4-8.6,2.63-12.96,3.71.18.39.35.77.53,1.13.09.19.19.38.28.57,4.32-1.19,8.57-2.58,12.73-4.17,2.3,5.03,4.35,10.4,6.13,16.04.29-.02.59-.03.9-.02-1.66-5.79-3.59-11.31-5.79-16.5.63-.25,1.26-.5,1.89-.76,4.14-1.67,8.21-3.59,12.18-5.71,4.86,6.61,9.1,13.91,12.59,21.78-5.2,2.85-10.5,5.47-15.89,7.82-.09.39-.22.78-.4,1.15-.1.2-.21.4-.32.59,5.73-2.75,11.32-5.87,16.7-9.35,5.13,11.6,8.65,24.41,10.2,37.99-4.72-56.15-43.21-100.14-90.35-101.41ZM187.63,123.6c-.72-.21-1.44-.44-2.15-.67,2.16-.93,4.36-1.76,6.59-2.49-1.51.97-2.98,2.02-4.44,3.16ZM191.21,124.58c4.15-2.77,8.51-4.87,13.02-6.24-2.22,2.03-4.35,4.6-6.38,7.65-2.22-.38-4.44-.85-6.64-1.41ZM200.16,126.36c4.41-5.59,9.23-8.99,14.31-9.71l.19,10.73c-4.85,0-9.7-.32-14.5-1.02ZM218.35,127.31l.19-10.66c4.95.7,9.66,3.94,13.97,9.27-4.7.74-9.43,1.22-14.16,1.39ZM234.85,125.53c-1.94-2.85-3.97-5.26-6.07-7.19,4.32,1.31,8.49,3.29,12.49,5.89-2.13.49-4.27.92-6.41,1.3ZM240.95,120.44c2.09.69,4.15,1.46,6.18,2.32-.7.19-1.4.38-2.11.56-1.33-1.03-2.69-1.99-4.07-2.88ZM246.13,124.2c.74-.29,1.48-.6,2.21-.92,6.36,2.81,12.4,6.44,18.03,10.78-1.29.59-2.59,1.17-3.89,1.71-1.27.54-2.55,1.06-3.83,1.57-3.86-5.1-8.05-9.51-12.53-13.13ZM277.81,157.39c-2.1.79-4.21,1.54-6.33,2.25-3.46-7.94-7.52-15.11-12.08-21.31.09-.04.18-.09.27-.13,2.42-1.14,4.81-2.42,7.14-3.8,7.08,5.52,13.51,12.18,19.11,19.76-2.69,1.13-5.38,2.23-8.11,3.23Z"/>
    <path class="cls-3" d="M278.86,184.16c.09-.17.18-.33.26-.5.12-.32.17-.52.18-.67-.03-.1-.05-.21-.07-.31-.54-1.59-1.01-1.62-1.22-1.62.29,1.02.58,2.06.86,3.1Z"/>
    <path class="cls-3" d="M177.95,196.94c-.53,5.64-.91,11.44-1.13,17.39.29-5.98.76-11.8,1.37-17.44-.08.02-.16.04-.24.05Z"/>
  </g>
  <path class="cls-2" d="M269.11,197.99c-3.62,3.74-7.37,7.5-10.04,12-1.07,1.93-2.06,4.19-1.41,6.4.28.94.99,1.65,1.46,2.5,1.76,2.81,2.58,6.41,1.22,9.56-1.03,2.49-3,4.43-5.1,6.03-2.03,1.52-4.2,3.11-5.26,5.49-.65,1.42-.54,3.05.14,4.43,1.04,1.72,1.81,3.42-.55,4.71-1.43.84-3.47,1.21-4.26,2.68-.4,1.01-.84,2.19-1.34,3.19-2.31,4.65-5.69,9.93-11.22,10.88-.51.09-1.31.08-1.84.08-.77-.02-1.7.04-2.44.17-.76.13-1.5.36-2.16.76-.48.3-1,.75-1.63,1.13-.6.32-1.35.4-2.01.26-2.11-.24-3.31-2.39-4.1-3.98-.53-1.07-.99-2.15-1.43-3.23-1.73-4.32-3.24-8.66-5.06-12.84-1.15-2.64-2.45-5.05-4.12-7.36-1.75-2.51-3.78-5.99-2.17-9.08.52-1.04,1.65-1.98,2.24-2.75.09-.15.09-.16.14-.4.12-.75.11-1.55.08-2.34-.25-4.39-1.12-8.91-3.07-12.87-1.01-2.15-2.76-3.44-4.06-5.37-1.66-2.29-3.09-5.73-1.33-8.42.12-.17.21-.56.2-.83.04-.67-.08-1.28-.29-1.92-.33-.94-.9-1.84-1.74-2.4-.2-.13-.47-.25-.68-.35,0,0-.15-.05-.15-.05l-.29-.09c-1.36-.19-2.75-.55-3.81-1.47-.64-.55-1.03-1.09-1.48-1.63-.19-.21-.34-.42-.63-.39-.05-.01-.12.02-.18.02-.04,0-.04,0-.12.01l-.26.06.2-.05c-2.2.79-4.52,2.1-6.71,2.94-3.78,1.58-7.92,2.87-12.09,2.46,0,0-.33-.04-.33-.04-.04,0-.03,0-.1-.01l-.17-.03c-.11-.02-.22-.05-.33-.08l.35.08c-.71-.12-.38-.06-1.06-.21,0,0,.41.06.41.06-1.2-.07-3.22-1.05-4.8-2.07-1.59-1.01-3.36-2.01-4.51-3.56-.67-.94-1.03-1.76-1.67-2.67-2.01-2.91-4.72-5.38-6.41-8.58-1.95-3.51-2.31-6.95.06-10.39,1.92-3.19-2.13-8.35.35-10.95,1.84-1.7,4.18-3.21,4.87-5.59.14-.38.21-.8.27-1.2.59-4.36,5.33-6.19,9.18-6.36,0,0,.36-.02.36-.02h.19s-.06,0-.09,0c-.05,0-.1,0-.15.02-.09.01-.23.07-.25.07-.05.01-.09.03-.13.06l-.06.04s-.02,0-.03.01c-.02,0-.06.04-.06.05.16-.19.39-.46.6-.81,2.67-4,6.62-13.67,11.82-14.31,1.82-.24,3.95.11,5.18,1.68.51.61.82,1.3,1.17,1.66,0,0,.03,0,.16.03-.08,0,.21-.01.51-.1,1.71-.49,3.86-1.47,5.58-2.12,4.22-1.57,9.29-3.26,13.67-1.07,2.45,1.28,4.76,3.16,4.77,6.16.03.42.06.65.1.79.11.4.57.74.88,1.01,2.02,1.53,4.45,4.27,6.99,4.06.56-.07,1.09-.4,1.56-.7,4.73-3.23,8.1-3.7,13.32-.98.45.23,1.02.52,1.49.69,4.07,1.59,9.96-1.02,13.06,3.17,1.18,1.69,1.44,3.57,1.59,5.48,0,0-.06-.3-.06-.3.72,2.34,1.72,5.03,2.53,7.34,1.12,2.81,2.59,6.53,3.9,9.24,1.93,3.95,3.98,7.95,7.07,11.1,1.01,1,2.17,1.88,3.45,2.22.64.16,1.45.25,2.13.32,2.21.23,4.39.06,6.61-.26.75-.09,1.51-.2,2.33-.14.83.03,1.74.46,2.24,1.15.52.67.79,1.42,1.03,2.15.28.77.11,1.71-.24,2.43-1.35,2.75-3.57,4.91-5.62,7.12-2.09,2.16-4.23,4.26-6.34,6.38h0ZM268.83,197.72c2.08-2.16,4.2-4.29,6.24-6.47,1.96-2.17,4.15-4.37,5.37-7.03.24-.64.43-1.27.16-1.93-.43-1.28-1.1-2.65-2.61-2.65-.68-.03-1.41.09-2.14.2-2.22.38-4.56.64-6.83.49-.81-.06-1.5-.11-2.33-.27-1.61-.37-2.96-1.33-4.14-2.4-3.36-3.17-5.71-7.23-7.87-11.23-.35-.68-1.22-2.38-1.55-3.04-.33-.73-1.99-4.37-2.35-5.16-.55-1.19-1.24-2.97-1.73-4.19-.5-1.19-1.21-3.06-1.64-4.27,0,0-.03-.09-.03-.09l-.03-.21c-.15-1.36-.44-2.89-1.22-3.93-.81-1-1.97-1.09-3.28-1.13-1.5-.03-3.22.15-5.03.04-.91-.05-1.84-.17-2.78-.42-.36-.09-1.04-.33-1.39-.46-1.67-.77-3.63-1.72-5.31-1.82-4.67-.25-6.36,5.18-12.01,3.27-2.63-.91-4.68-2.82-6.76-4.5-.93-.73-1.78-1.68-2.12-2.84-.31-.95-.22-1.75-.4-2.45-.4-1-1.66-1.56-2.56-2.11-3.69-1.71-9.06.82-12.66,2.2-1.45.56-2.96,1.23-4.57,1.48-.62.12-1.31.01-1.91-.14,0,0-.28-.1-.28-.1-.96-.28-1.96-1.38-2.33-2.06-.34-.53-.4-.75-.73-1-.02,0-.03-.03-.06-.04-.19-.09-.76-.16-1.39-.09-.16.01-.27.05-.49.16-1.42.84-2.41,2.32-3.5,3.85-1.3,1.86-2.59,4.27-3.79,6.27-.81,1.31-1.49,2.7-2.71,3.82-.42.36-1.05.63-1.61.62-2.16.06-5.52.59-6.14,2.97-.38,3.25-2.41,5.8-4.78,7.65-.3.26-1.31,1.03-1.49,1.24.06-.06.1-.14.12-.18.04-.1.02-.09.02-.02,0,.44.07.88.17,1.38.53,2.38,1.34,5.78.1,8.35-.19.41-.47.87-.73,1.25-1.96,2.86-.25,6.03,1.47,8.55,1.35,2.01,3.14,3.83,4.57,5.87.25.35.5.76.73,1.12.63.93,1,1.99,1.84,2.72,1.05.9,1.91,1.42,2.98,2.1.71.42,1.59,1.01,2.34,1.31.52.23.92.31,1.37.46-.14-.07-.31-.1-.47-.1.24.03.5.06.71.14.08,0,.15,0,.23.03,0,0,.41.16.41.16l-.06-.08s-.03-.03-.05-.03c.27.04.61.07.88.09,5.15.24,10.02-2.09,14.62-4.16.85-.37,1.72-.78,2.62-1.03,1.46-.37,2.82.08,3.74,1.26.74.99,1.46,1.84,2.69,2.04.21.04.5.11.71.14,0,0,.52.1.52.1.27.09.67.2.92.33.69.3,1.35.73,1.87,1.27.84.85,1.2,1.55,1.58,2.35.59,1.44.8,2.6.59,4.17-.08.64-.42,1.24-.77,1.85-.31.69-.28,1.59.02,2.51.64,1.96,2.05,3.72,3.48,5.27.89.98,1.55,2.05,2.1,3.15,1.61,3.25,2.38,6.77,2.89,10.33.24,2.21.52,4.46.08,6.68-.2.95-1.19,1.83-1.71,2.35-1.08,1-1.48,2.31-1.07,3.7.55,2.1,1.9,3.84,3.13,5.73,1.32,2,2.33,4.14,3.26,6.28,1.83,4.26,3.27,8.67,4.91,12.97.79,1.94,1.6,4.27,3,5.74,0,0,.23.18.23.18.08.03.12.07.23.12.34.12.67.24,1,.25.09,0,.19.02.27,0,.12-.01.24-.06.36-.11,0,0,.14-.08.14-.08.83-.65,2.1-1.46,3.23-1.71,1.17-.28,2.45-.39,3.65-.33,6.22.43,10.45-6.54,12.74-11.49.25-.6.42-.99.68-1.62.64-1.21,1.88-1.78,3.03-2.27.74-.38,2.53-.82,2.82-1.85.15-.6-.25-1.38-.61-1.99-.26-.46-.44-.94-.59-1.44-.91-2.77.74-5.51,2.75-7.31,1.94-1.79,4.29-3.02,6.03-5,2.81-2.94,3.64-6.94,1.9-10.66-.39-.89-.87-1.74-1.41-2.55-.37-.54-.78-1.11-.96-1.76-1.71-5.79,7.75-14.75,11.51-18.78h0ZM277.47,225.12c-1.67.72-3.14,2.11-4.06,3.71-1.03,2.1-2.07,3.63-4.53,4.07-.53.14-1,.25-1.4.51-.05.04-.07.07-.1.11-.44.85-.26,2.01-.26,3,.14,1.99.11,4.27-.68,6.19-.36,1.26-2.8,6.91-.79,7.07.49.08,1.12.06,1.51-.28.78-.71,1.1-1.9,1.46-2.93.3-.91.63-2,1.03-2.88.44-1.03,1.14-2.15,2.04-2.91,0,0-.03.02-.04.04l.12-.12c.95-.95,1.7-2.21,2.4-3.39,1.08-1.89,6.12-11.02,3.27-12.19h0ZM277.44,224.73c3.71.06,2.33,7.23,1.72,9.46-.92,3.42-2.62,7.64-4.88,9.69-.72.73-1.1,1.72-1.53,2.69-.9,2.08-1.66,4.4-3.71,5.74-1.85,1.12-4.6.99-6.14-.69-2.26-2.79.14-7.04,1.24-9.8.84-1.7.93-3.39.97-5.3.09-1.37.02-2.91.97-4.09.96-1.06,2.61-.87,3.79-1.29,1.29-.44,1.99-1.78,2.72-2.85,1.17-1.66,2.87-3.01,4.84-3.56h0Z"/>
  <path class="cls-1" d="M53.89,198.43c0-37.09,10.61-70.47,27.54-93.78l-11.31-7.38s-67.74,92.8,0,202.31l12.69-5.52c-17.73-23.37-28.92-57.55-28.92-95.63Z"/>
</svg>