
<svg id="Layer_1" data-name="Layer 1" xmlns="http://www.w3.org/2000/svg" viewBox="0 0 396.85 116.56">
  <defs>
    <style>
      .cls-1 {
        fill: #f00;
      }

      .cls-2, .cls-3 {
        fill: #fff;
      }

      .cls-3 {
        opacity: .5;
      }
    </style>
  </defs>
  <g>
    <path class="cls-1" d="M97.06,94.7c.21.1.42.18.64.27l-1.51,3.62-.64-.26,1.51-3.63ZM95.64,18.18l1.5,3.63c.21-.08.42-.17.63-.25l-1.5-3.63-.63.26ZM100.93,100.22l.66.18,1.02-3.79c-.22-.06-.44-.12-.66-.18l-1.02,3.8ZM112.25,18.7c.12,0,.23,0,.34,0s.23,0,.34,0v-8.7h-.68v8.7ZM92.44,92.36s0,0,0,0h0s0,0,0,0l-1.97,3.4h0l.59.34,1.97-3.4s0,0,0,0c-.2-.12-.39-.23-.59-.35ZM106.6,15.16l.51,3.91c.23-.04.45-.07.68-.09l-.51-3.91-.68.09ZM106.52,101.38l.68.09.52-3.9c-.23-.03-.45-.05-.68-.09l-.52,3.9ZM101.02,16.32l1.02,3.8c.22-.07.44-.12.66-.18l-1.02-3.8-.66.18ZM112.25,97.86v8.7h.68v-8.7c-.12,0-.23,0-.34,0s-.23,0-.34,0ZM140.82,30.53l2.79-2.79-.49-.49-2.79,2.79c.16.16.33.32.49.49ZM146.72,38.19s0,0,0,0h0c.12.2.23.39.34.59h0s0,0,0,0l3.4-1.97h0s0,0,0,0l-.26-.44-.09-.15-3.4,1.96ZM84.36,30.53h0c.15-.16.31-.32.48-.48h0s0,0,0,0l-2.79-2.79-.49.49,2.79,2.79s0,0,0,0ZM86.37,23.53l-.54.42h0s1.14,1.48,1.14,1.48l1.26,1.64h0s0,0,0,0c.18-.14.36-.28.54-.42h0s0,0,0,0l-2.4-3.12ZM80.97,82.1s0,0,0,0h0s0,0,0,0l-3.12,2.4h0s.42.55.42.55l3.13-2.4s-.06-.08-.1-.12c-.11-.14-.22-.28-.32-.42ZM84.84,86.51c-.08-.07-.16-.15-.24-.23-.08-.08-.16-.16-.23-.24h0s0,0,0,0l-2.79,2.79.24.24.24.24,2.79-2.79s0,0,0,0h0ZM78.31,31.44l-.42.54.73.56,2.39,1.84c.13-.18.27-.36.42-.54l-1.3-1-1.82-1.41ZM88.26,89.51s-.07-.06-.11-.08h0s0,0,0,0l-2.4,3.12.42.32.12.09,2.4-3.12c-.08-.05-.15-.11-.23-.17-.07-.05-.14-.11-.21-.16ZM134.12,20.45h0l-1.97,3.4s.08.04.11.06c.11.06.23.13.34.2.05.03.09.05.14.08l.44-.77,1.53-2.64-.59-.34h0ZM127.48,21.59c.21.08.42.17.63.26l1.51-3.63-.63-.27-1.51,3.63ZM139.42,24l-.1-.08-.44-.34-.56.73-1.84,2.39c.18.14.36.27.54.42l.12-.16,2.28-2.96h0ZM117.38,97.57l.51,3.91.68-.09-.51-3.91c-.23.04-.45.07-.68.09ZM127.4,95l1.5,3.63.64-.26-1.5-3.63c-.21.09-.42.18-.64.26ZM117.46,18.99c.23.03.45.05.68.09l.52-3.9-.68-.09-.52,3.9ZM122.56,19.96c.22.05.44.11.66.18l1.02-3.8-.66-.18-1.02,3.8ZM122.48,96.62l1.01,3.79.66-.18-1.01-3.79c-.22.06-.44.12-.66.18ZM73.39,52.73l-3.9-.52-.09.68,3.9.52c.03-.23.05-.45.09-.68ZM150.73,68.91l3.8,1.02.18-.66-3.8-1.02c-.05.22-.11.44-.18.66ZM74.79,36.76l3.38,1.96c.11-.2.22-.4.34-.59,0,0,0,0,0,0h0s0,0,0,0l-3.4-1.97-.34.59h0,0s.03.01.03.01ZM151.79,63.83l3.9.52.09-.68-3.9-.52c-.03.23-.05.45-.09.68ZM76.16,42.75l-3.63-1.51-.26.64,3.62,1.51c.08-.21.17-.42.27-.64ZM74.45,47.65l-3.8-1.02-.18.66,3.79,1.02c.06-.22.12-.44.18-.66ZM150.93,48.39l3.8-1.02-.18-.66-3.8,1.02c.07.22.12.44.18.66ZM151.88,53.49l3.91-.51-.09-.68-3.91.51c.04.23.07.45.09.68ZM144.2,34.45s0,0,0,0h0s0,0,0,0l3.12-2.4h0s-.42-.55-.42-.55l-3.13,2.4s.06.08.1.12c.11.14.22.28.32.42ZM152.17,57.94c0,.12,0,.23,0,.34s0,.23,0,.34h8.7v-.68h-8.7ZM149.31,43.46l3.63-1.5-.26-.63-3.63,1.5c.08.21.17.42.25.63ZM140.82,86.03h0c-.16.16-.32.33-.49.48h0s0,0,0,0l2.79,2.79.49-.49-2.79-2.79h0ZM144.15,82.17h0s0,0,0,0c-.14.18-.27.36-.41.54,0,0,0,0,0,0l3.12,2.4h0s0,0,0,0l.42-.54-3.12-2.4s0,0,0,0ZM136.95,89.48h0c-.18.15-.36.29-.55.42l2.4,3.12h0s0,0,0,0l.55-.42-2.4-3.13s0,0,0,0ZM132.67,92.41h0c-.19.11-.39.22-.59.34l1.97,3.4h0s0,0,0,0l.59-.34-1.96-3.4s0,0,0,0ZM147.01,77.84c-.11.2-.22.4-.34.59,0,0,0,0,0,0l3.4,1.97h0s0,0,0,0l.33-.57.02-.03h0l-3.4-1.97ZM73,58.28c0-.12,0-.23,0-.34h-8.7v.68h8.7c0-.12,0-.23,0-.34ZM91.13,20.41h0s-.59.34-.59.34h0s0,0,0,0l1.97,3.41s0,0,0,0c.11-.06.22-.13.33-.19.09-.05.17-.1.26-.14l-1.97-3.41h0ZM74.24,68.17l-3.79,1.01.18.66,3.79-1.01c-.06-.22-.12-.44-.18-.66ZM73.29,63.07l-3.91.51.09.68,3.91-.51c-.04-.23-.07-.45-.09-.68ZM75.87,73.09l-3.63,1.5.26.64,3.63-1.5c-.09-.21-.18-.42-.26-.64ZM78.46,78.35s0,0,0,0c-.12-.2-.23-.4-.34-.59l-3.41,1.97h0s0,0,0,0l.34.59h0s0,0,0,0h0s3.41-1.97,3.41-1.97ZM149.01,73.8l3.63,1.51.27-.63-3.63-1.51c-.08.21-.17.42-.26.63Z"/>
    <g>
      <path class="cls-2" d="M91.1,35.55l-.54.57-.62-.29-1,1.05.32.61-.53.56-1.76-3.42.61-.64,3.52,1.57ZM87.88,34.87l.73,1.38.69-.72-1.42-.66Z"/>
      <path class="cls-2" d="M90.86,31l.44.52-1.11.94.56.66,1.07-.92.44.52-1.07.92.91,1.07-.54.46-2.36-2.76,1.65-1.41Z"/>
      <path class="cls-2" d="M96.1,31.71l-.64.44-1.32-.62-.45.31.72,1.04-.59.41-2.07-2.99,1.2-.83c.28-.19.58-.26.91-.2.33.06.59.23.77.5.13.19.19.39.2.62,0,.23-.05.45-.17.65l1.44.67ZM93.33,30.02l-.61.42.61.88.61-.42c.11-.08.18-.19.2-.33.02-.14-.01-.27-.1-.4-.08-.12-.2-.2-.33-.23-.14-.03-.26,0-.37.07Z"/>
      <path class="cls-2" d="M96.71,31.39l-1.81-3.15.62-.36,1.81,3.15-.62.36Z"/>
      <path class="cls-2" d="M99.72,29.9c-.49.23-.98.25-1.46.07-.47-.18-.82-.51-1.05-1-.23-.49-.25-.97-.08-1.44.17-.48.51-.83,1-1.06.3-.14.61-.19.92-.17.32.02.6.12.85.3l-.41.58c-.15-.11-.32-.17-.51-.19-.19-.01-.38.02-.57.11-.32.15-.53.37-.64.66-.1.29-.08.6.07.92.14.31.36.53.65.64.29.11.6.09.92-.06.19-.09.34-.21.45-.36.11-.15.18-.32.19-.5l.71.07c-.03.3-.14.58-.33.84-.19.26-.43.45-.73.59Z"/>
      <path class="cls-2" d="M104.7,28.01l-.74.24-.41-.56-1.38.44v.69s-.75.24-.75.24l.1-3.85.85-.27,2.32,3.07ZM102.21,25.86l-.02,1.57.95-.3-.93-1.26Z"/>
      <path class="cls-2" d="M108.54,27.39c-.54.07-1.01-.05-1.42-.36-.4-.31-.64-.73-.71-1.26-.07-.53.04-1,.35-1.4.31-.41.73-.65,1.27-.72.33-.04.64,0,.93.11.3.12.54.29.73.53l-.56.44c-.11-.15-.25-.26-.43-.33-.18-.07-.37-.09-.57-.06-.35.05-.62.2-.8.44-.18.25-.25.55-.2.9.05.34.19.61.43.81.25.19.54.26.89.21.21-.03.39-.1.54-.21.15-.11.26-.25.33-.42l.66.27c-.12.28-.31.52-.56.71-.26.19-.55.31-.87.35Z"/>
      <path class="cls-2" d="M111.45,25.57l.02.81,1.53-.04.02.68-2.25.06-.09-3.63,2.22-.05.02.68-1.5.04.02.77,1.38-.03.02.67-1.38.03Z"/>
      <path class="cls-2" d="M115.97,25.8l.18-2.21.71.06-.3,3.62-.54-.04-1.37-2.34-.18,2.21-.71-.06.3-3.62.54.04,1.37,2.34Z"/>
      <path class="cls-2" d="M117.9,23.8l2.63.51-.13.67-.96-.19-.56,2.9-.7-.14.56-2.9-.96-.18.13-.67Z"/>
      <path class="cls-2" d="M123.11,28.83l-.74-.22-.33-1.42-.52-.16-.37,1.21-.69-.21,1.06-3.48,1.39.42c.32.1.56.29.72.59.16.29.19.6.09.92-.07.22-.19.4-.37.54-.18.15-.38.24-.61.27l.37,1.54ZM122.72,25.62l-.71-.21-.31,1.03.71.21c.13.04.26.02.38-.05s.21-.18.25-.32c.04-.14.03-.28-.03-.4-.06-.13-.16-.21-.29-.25Z"/>
      <path class="cls-2" d="M124.97,27.98l-.32.75,1.41.59-.27.63-2.07-.87,1.41-3.35,2.05.86-.27.63-1.39-.58-.3.71,1.27.53-.26.62-1.27-.53Z"/>
      <path class="cls-2" d="M131.63,29.05l-.36.59-1.24-.75-.45.74,1.21.73-.36.59-1.21-.73-.73,1.2-.61-.37,1.88-3.11,1.86,1.12Z"/>
      <path class="cls-2" d="M133.09,34.07c-.51.06-.98-.07-1.39-.39-.42-.32-.66-.74-.72-1.25-.06-.52.07-.98.4-1.4.33-.42.74-.66,1.25-.72.51-.06.98.07,1.39.39.42.32.65.74.72,1.26.07.51-.06.98-.39,1.39-.33.42-.75.66-1.26.72ZM131.67,32.35c.04.31.19.57.46.78.26.21.55.29.86.25.32-.04.58-.2.79-.47.21-.27.3-.57.26-.88-.04-.32-.19-.58-.45-.78-.26-.2-.55-.29-.87-.25-.32.04-.58.2-.79.47-.21.27-.3.57-.26.88Z"/>
      <path class="cls-2" d="M135.72,37.25l-.55-.55.37-1.41-.39-.39-.89.89-.51-.51,2.57-2.57,1.03,1.03c.24.24.36.52.36.86,0,.33-.12.62-.35.85-.16.16-.35.26-.58.31-.23.05-.45.03-.67-.05l-.4,1.54ZM136.89,34.23l-.52-.52-.76.76.52.52c.1.1.21.14.36.13s.27-.06.37-.17c.11-.11.16-.23.16-.37,0-.14-.04-.26-.14-.36Z"/>
    </g>
    <g>
      <path class="cls-2" d="M84,76.1l.96,1.55-.24.15c-.44.27-.89.36-1.33.24-.45-.11-.81-.39-1.09-.84-.3-.48-.39-.97-.28-1.47.12-.51.4-.9.85-1.18.45-.28.93-.36,1.43-.25.51.12.9.41,1.19.86.18.28.28.59.29.91.02.32-.04.61-.18.89l-.62-.33c.08-.15.11-.33.1-.53-.01-.2-.08-.39-.19-.57-.18-.3-.43-.48-.74-.55-.31-.07-.61-.01-.9.17-.29.18-.47.43-.54.74-.07.31,0,.62.2.94.14.23.32.39.52.49.2.09.41.11.63.05l-.58-.93.54-.33Z"/>
      <path class="cls-2" d="M87.34,77.95l-2.31,1.83.86,1.09-.54.42-1.3-1.65,2.85-2.25.44.56Z"/>
      <path class="cls-2" d="M88.37,83.82c-.52,0-.96-.2-1.33-.58-.37-.38-.55-.82-.55-1.34.01-.52.2-.96.58-1.33.38-.37.82-.55,1.34-.55.52,0,.96.2,1.33.57.37.38.55.82.54,1.34,0,.52-.19.96-.57,1.33-.38.37-.83.55-1.35.55ZM87.2,81.92c0,.31.11.59.35.83.23.24.51.36.82.37.32,0,.6-.12.85-.36.25-.24.37-.52.38-.84,0-.32-.11-.6-.34-.83-.23-.24-.51-.36-.83-.36-.32,0-.6.12-.85.36-.25.24-.37.52-.38.84Z"/>
      <path class="cls-2" d="M92.26,85.24c.13.34.09.66-.15.95-.19.24-.44.37-.73.39-.29.02-.56-.07-.81-.27l-1.2-.96,2.27-2.84,1.12.9c.24.19.38.43.43.72.05.29-.02.54-.21.77-.19.24-.43.35-.72.35ZM90.35,85.27l.64.52c.09.08.2.11.31.09.11-.01.21-.07.29-.17.08-.09.11-.2.1-.31-.01-.11-.06-.21-.16-.28l-.64-.52-.54.67ZM92.34,83.92l-.56-.45-.5.62.56.45c.09.07.18.1.29.08.11-.01.19-.06.27-.15s.1-.19.09-.29c0-.1-.06-.19-.15-.26Z"/>
      <path class="cls-2" d="M95.04,89.35l-.66-.42.16-.67-1.22-.77-.53.44-.65-.41,3.01-2.39.75.47-.86,3.75ZM95.09,86.06l-1.21.99.84.53.37-1.52Z"/>
      <path class="cls-2" d="M98.22,86.88l-1.31,2.64,1.24.62-.3.61-1.88-.93,1.61-3.26.64.32Z"/>
      <path class="cls-2" d="M103.14,90.38l.43-1.38.68.21-1.1,3.46-.68-.21.45-1.44-1.29-.41-.45,1.44-.68-.22,1.1-3.46.68.22-.43,1.38,1.29.41Z"/>
      <path class="cls-2" d="M105.48,91.68l-.16.8,1.5.3-.14.67-2.2-.45.72-3.56,2.18.44-.14.67-1.48-.3-.15.76,1.35.27-.13.66-1.35-.27Z"/>
      <path class="cls-2" d="M111.02,93.92l-.78-.07-.16-.67-1.44-.13-.28.63-.77-.07,1.6-3.5.88.08.94,3.73ZM109.57,90.97l-.63,1.43.99.09-.36-1.52Z"/>
      <path class="cls-2" d="M112.72,90.28l.05,2.95,1.39-.02v.69s-2.09.03-2.09.03l-.06-3.63h.72Z"/>
      <path class="cls-2" d="M114.19,90.27l2.66-.24.06.68-.98.09.27,2.94-.71.06-.27-2.94-.97.09-.06-.68Z"/>
      <path class="cls-2" d="M119.85,90.94l-.28-1.42.7-.14.71,3.56-.7.14-.3-1.48-1.32.26.3,1.48-.7.14-.71-3.56.7-.14.28,1.41,1.32-.26Z"/>
      <path class="cls-2" d="M125.21,91.69c-.33.13-.64.16-.93.09-.29-.06-.53-.21-.72-.43l.45-.55c.26.3.59.37.98.23.18-.07.31-.15.37-.25.07-.1.08-.2.04-.31-.05-.12-.13-.19-.26-.22-.13-.03-.35-.03-.66,0-.33.02-.61,0-.82-.05-.27-.08-.47-.27-.58-.58-.12-.31-.1-.6.05-.86.15-.27.38-.46.69-.57.27-.1.54-.13.8-.07.26.05.49.18.7.38l-.44.54c-.25-.24-.52-.3-.82-.19-.14.05-.23.12-.29.22-.06.09-.07.19-.03.29.04.11.12.18.23.21.12.03.32.04.6.02h.26s.13-.01.25,0c.11,0,.19,0,.25.02.2.04.34.1.43.18.14.1.24.25.31.43.12.31.1.61-.06.88s-.42.47-.78.61Z"/>
      <path class="cls-2" d="M127.4,89.04l.36.73,1.37-.68.3.61-2.02,1-1.61-3.26,1.99-.98.3.61-1.35.67.34.69,1.23-.61.3.61-1.23.61Z"/>
      <path class="cls-2" d="M131.97,88.28c-.46.29-.94.38-1.43.27-.49-.11-.89-.39-1.18-.84-.29-.45-.38-.93-.27-1.42.11-.5.39-.9.85-1.19.28-.18.57-.28.89-.3.32-.02.61.04.89.18l-.33.63c-.16-.09-.34-.13-.53-.11-.19.01-.37.07-.55.19-.3.19-.48.44-.54.74-.06.31,0,.6.19.9.19.29.43.47.73.55.3.07.6,0,.9-.18.17-.11.31-.25.4-.42.09-.17.13-.34.12-.52l.71-.03c.01.31-.06.6-.21.88-.15.28-.37.51-.64.69Z"/>
      <path class="cls-2" d="M135.27,85.86c-.31.26-.64.38-.99.37s-.64-.17-.88-.46l-1.55-1.89.55-.45,1.52,1.84c.12.15.26.23.42.24.16.01.32-.05.49-.2.17-.14.27-.29.29-.45.02-.16-.04-.31-.16-.46l-1.52-1.84.55-.46,1.55,1.89c.24.3.34.62.28.96-.06.34-.24.64-.56.9Z"/>
      <path class="cls-2" d="M139.21,82.02l-.54.55-1.41-.35-.38.39.91.88-.5.51-2.61-2.53,1.01-1.04c.23-.24.52-.36.85-.37.33,0,.62.11.86.34.16.16.27.35.31.57s.03.45-.04.67l1.54.38ZM136.17,80.9l-.51.53.77.75.51-.53c.09-.1.14-.22.13-.36,0-.14-.07-.27-.17-.37-.11-.1-.23-.16-.37-.16-.14,0-.26.04-.35.14Z"/>
      <path class="cls-2" d="M139.85,81.23l-2.8-2.31.46-.55,2.8,2.31-.46.55Z"/>
      <path class="cls-2" d="M137.97,77.82l1.54-2.18.56.4-.57.8,2.41,1.7-.41.59-2.41-1.7-.56.8-.56-.4Z"/>
      <path class="cls-2" d="M140.9,73.24l.4-.71,1.32,2.17,1.24.69-.35.62-1.24-.69h-2.54s.4-.71.4-.71l1.71.05-.94-1.43Z"/>
    </g>
    <g>
      <path class="cls-3" d="M106.41,58.45s0-.02,0-.03v-.02s0-.02,0-.02c0-.12,0-.24-.06-.4-1.72-.19-3.43-.46-5.13-.81-.23.09-.46.18-.71.26,1.94.46,3.9.81,5.87,1.05,0,0,.01-.02.02-.03Z"/>
      <path class="cls-3" d="M93.97,45.39c2.24.83,4.55,1.51,6.91,2.04-.56,2.57-1.01,5.33-1.34,8.25.04-.01.08-.02.11-.03.38-2.9.87-5.63,1.47-8.16,3.63.8,7.37,1.22,11.1,1.28l.17,9.54c-1.37,0-2.74-.05-4.11-.15,0,.17,0,.34-.02.52,1.38.12,2.76.19,4.14.21l.18,4.09.18-4.09c3.05.02,6.09-.23,9.07-.73,1.3-.22,2.6-.5,3.88-.83.21,1.87.37,3.81.48,5.8,0,0,0-.02,0-.02-.08-1.98-.22-3.92-.4-5.8,2.4-.62,4.77-1.42,7.08-2.4.26-.28.51-.57.73-.87-2.12.85-4.27,1.58-6.46,2.17-.47.14-.95.27-1.42.39-.34-3.2-.82-6.23-1.42-9.03.3-.07.6-.13.89-.2l-.16-.31c-.05-.1-.1-.2-.15-.3-.24.05-.48.1-.73.15-.37-1.66-.79-3.23-1.24-4.7-.07-.18-.13-.35-.18-.5l-.03-.08-.02-.13s0-.01,0-.02c-.13-.39-.26-.78-.39-1.16-.1-.08-.25-.11-.48-.12.79,2.02,1.49,4.28,2.1,6.76-3.62.73-7.29,1.13-10.97,1.19l.13-7.39c2.15,0,4.28-.2,6.37-.6-.22-.03-.43-.07-.63-.12-.15-.04-.41-.13-.53-.18h-.03s-.11-.06-.11-.06c-.07-.03-.14-.07-.22-.1-1.02.15-2.05.27-3.08.34-.62.38-1.39.71-2.5.33-.19-.07-.37-.15-.55-.24-2.71-.02-5.42-.32-8.08-.93.36-.86.74-1.67,1.13-2.42-.05.02-.11.04-.16.06-.16.06-.3.12-.45.17-.04.01-.08.03-.12.05-.29.65-.58,1.32-.85,2.03-1.42-.34-2.83-.78-4.22-1.3-.04.06-.07.11-.11.17,1.36.57,2.77,1.06,4.21,1.45-.85,2.26-1.59,4.83-2.22,7.64-2.33-.46-4.64-1.08-6.91-1.85.62-1.33,1.29-2.58,2-3.76h0c-.24,0-.49.03-.71.08-.61,1.12-1.19,2.3-1.72,3.53-.25-.09-.51-.18-.76-.28-.04.04-.09.08-.13.11.27.11.55.22.82.33-.32.76-.63,1.54-.92,2.34-.03.33-.11.66-.26.97-.05.12-.13.25-.21.38-.1.3-.19.59-.29.89.01.18.06.38.15.59.58-1.76,1.23-3.43,1.96-5.01ZM112.95,48.76c3.76,0,7.51-.37,11.13-1.15.65,2.77,1.17,5.8,1.56,9-4.22,1.08-8.54,1.64-12.86,1.68l.17-9.54ZM103.6,39.54c2.76.73,5.62,1.13,8.48,1.2l.13,7.41c-3.69.01-7.37-.33-11-1.03.68-2.81,1.48-5.36,2.39-7.57Z"/>
      <path class="cls-3" d="M134.43,54.94c.66,2.8,1.13,5.75,1.39,8.81-.19-3.13-.61-6.15-1.22-9.02-.05.07-.11.14-.16.21Z"/>
      <path class="cls-3" d="M113.31,28.86h0s-1.45,0-1.45,0h0c-16.22.44-29.46,15.57-31.09,34.89.54-4.69,1.76-9.12,3.53-13.12,2.05,1.31,4.2,2.46,6.4,3.46-.69,3.05-1.15,6.29-1.36,9.66.28-3.34.81-6.55,1.56-9.56.59.26,1.18.51,1.78.76-.03-.05-.07-.11-.11-.16-.05-.07-.1-.14-.16-.22-.49-.19-.98-.39-1.46-.59.08-.31.16-.61.24-.92-.07-.08-.13-.17-.19-.25-.09.36-.18.72-.26,1.08-2.2-.94-4.36-2.03-6.45-3.26,1.21-2.73,2.69-5.27,4.38-7.56.6.31,1.2.6,1.81.88.02-.02.03-.04.05-.06-.62-.26-1.25-.53-1.86-.82,1.95-2.63,4.18-4.95,6.64-6.86.49.28,1,.55,1.51.8.02-.03.04-.07.06-.1-.51-.23-1.02-.48-1.53-.73,1.98-1.53,4.11-2.81,6.36-3.79.25.1.51.19.76.28-.55.44-1.08.91-1.6,1.42.35.06.66.18.93.37.59-.51,1.2-.99,1.83-1.41.77.24,1.55.44,2.33.62-.07.11-.13.22-.2.32,1.09-.28,2.37-.41,3.53.17.05.03.09.05.14.08.84.1,1.68.16,2.52.2l.05,3.06c.37.31.76.62,1.12.72l.07-3.75c1.8,0,3.59-.14,5.36-.49.84,1.15,1.64,2.54,2.37,4.14.17,0,.35,0,.53,0-.67-1.62-1.4-3.06-2.17-4.29.8-.18,1.6-.4,2.38-.67,1.67,1.17,3.24,2.65,4.68,4.4-1.01.37-2.03.71-3.06,1,.2.12.39.28.56.48.95-.32,1.89-.69,2.81-1.1,1.64,2.06,3.12,4.47,4.39,7.16-1.47.48-2.96.91-4.46,1.28.06.13.12.26.18.39.03.07.06.13.1.2,1.49-.41,2.95-.89,4.38-1.43.79,1.73,1.5,3.58,2.11,5.52.1,0,.2,0,.31,0-.57-1.99-1.24-3.89-1.99-5.68.22-.09.43-.17.65-.26,1.42-.58,2.82-1.23,4.19-1.97,1.67,2.27,3.13,4.79,4.33,7.49-1.79.98-3.61,1.88-5.47,2.69-.03.13-.07.27-.14.4-.03.07-.07.14-.11.2,1.97-.95,3.89-2.02,5.75-3.22,1.77,3.99,2.98,8.4,3.51,13.07-1.62-19.32-14.87-34.46-31.09-34.89ZM102.65,32.53c-.25-.07-.49-.15-.74-.23.74-.32,1.5-.6,2.27-.86-.52.33-1.03.7-1.53,1.09ZM103.88,32.87c1.43-.95,2.93-1.68,4.48-2.15-.76.7-1.5,1.58-2.2,2.63-.76-.13-1.53-.29-2.28-.48ZM106.96,33.48c1.52-1.92,3.18-3.09,4.92-3.34l.07,3.69c-1.67,0-3.34-.11-4.99-.35ZM113.22,33.81l.07-3.67c1.7.24,3.32,1.35,4.81,3.19-1.62.26-3.25.42-4.87.48ZM118.9,33.2c-.67-.98-1.37-1.81-2.09-2.47,1.49.45,2.92,1.13,4.3,2.03-.73.17-1.47.32-2.21.45ZM121,31.45c.72.24,1.43.5,2.13.8-.24.07-.48.13-.73.19-.46-.35-.93-.68-1.4-.99ZM122.78,32.74c.26-.1.51-.21.76-.32,2.19.97,4.27,2.21,6.2,3.71-.44.2-.89.4-1.34.59-.44.19-.88.37-1.32.54-1.33-1.75-2.77-3.27-4.31-4.52ZM133.68,44.16c-.72.27-1.45.53-2.18.77-1.19-2.73-2.59-5.2-4.16-7.33.03-.02.06-.03.09-.05.83-.39,1.65-.83,2.46-1.31,2.44,1.9,4.65,4.19,6.58,6.8-.93.39-1.85.77-2.79,1.11Z"/>
      <path class="cls-3" d="M134.04,53.37c.03-.06.06-.11.09-.17.04-.11.06-.18.06-.23,0-.04-.02-.07-.03-.11-.19-.55-.35-.56-.42-.56.1.35.2.71.29,1.07Z"/>
      <path class="cls-3" d="M99.32,57.77c-.18,1.94-.31,3.94-.39,5.98.1-2.06.26-4.06.47-6-.03,0-.05.01-.08.02Z"/>
    </g>
    <path class="cls-2" d="M130.69,58.13c-1.25,1.29-2.54,2.58-3.45,4.13-.37.66-.71,1.44-.48,2.2.1.32.34.57.5.86.6.97.89,2.21.42,3.29-.36.86-1.03,1.52-1.76,2.08-.7.52-1.45,1.07-1.81,1.89-.22.49-.19,1.05.05,1.52.36.59.62,1.18-.19,1.62-.49.29-1.19.42-1.47.92-.14.35-.29.76-.46,1.1-.79,1.6-1.96,3.42-3.86,3.74-.17.03-.45.03-.63.03-.26,0-.58.01-.84.06-.26.04-.52.12-.74.26-.16.1-.34.26-.56.39-.21.11-.47.14-.69.09-.72-.08-1.14-.82-1.41-1.37-.18-.37-.34-.74-.49-1.11-.59-1.49-1.11-2.98-1.74-4.42-.4-.91-.84-1.74-1.42-2.53-.6-.86-1.3-2.06-.75-3.12.18-.36.57-.68.77-.95.03-.05.03-.05.05-.14.04-.26.04-.53.03-.81-.09-1.51-.38-3.07-1.06-4.43-.35-.74-.95-1.18-1.4-1.85-.57-.79-1.06-1.97-.46-2.9.04-.06.07-.19.07-.29.02-.23-.03-.44-.1-.66-.11-.32-.31-.63-.6-.83-.07-.04-.16-.09-.24-.12,0,0-.05-.02-.05-.02l-.1-.03c-.47-.06-.94-.19-1.31-.51-.22-.19-.36-.37-.51-.56-.07-.07-.12-.14-.22-.14-.02,0-.04,0-.06,0-.01,0-.01,0-.04,0l-.09.02.07-.02c-.76.27-1.55.72-2.31,1.01-1.3.54-2.73.99-4.16.85,0,0-.11-.01-.11-.01-.01,0-.01,0-.03,0h-.06s-.08-.03-.11-.04l.12.03c-.25-.04-.13-.02-.36-.07,0,0,.14.02.14.02-.41-.02-1.11-.36-1.65-.71-.55-.35-1.16-.69-1.55-1.22-.23-.32-.35-.61-.57-.92-.69-1-1.62-1.85-2.21-2.95-.67-1.21-.8-2.39.02-3.57.66-1.1-.73-2.87.12-3.77.63-.58,1.44-1.1,1.68-1.92.05-.13.07-.27.09-.41.2-1.5,1.83-2.13,3.16-2.19,0,0,.13,0,.13,0h.06s-.02,0-.03,0c-.02,0-.04,0-.05,0-.03,0-.08.02-.09.02-.02,0-.03.01-.05.02h-.02s0,.02,0,.02c0,0-.02.01-.02.02.05-.07.13-.16.21-.28.92-1.38,2.28-4.7,4.07-4.92.63-.08,1.36.04,1.78.58.17.21.28.45.4.57,0,0,0,0,.05.01-.03,0,.07,0,.17-.03.59-.17,1.33-.5,1.92-.73,1.45-.54,3.2-1.12,4.7-.37.84.44,1.64,1.09,1.64,2.12,0,.14.02.22.04.27.04.14.2.25.3.35.69.53,1.53,1.47,2.41,1.4.19-.03.37-.14.54-.24,1.63-1.11,2.79-1.27,4.58-.34.15.08.35.18.51.24,1.4.55,3.43-.35,4.49,1.09.41.58.49,1.23.55,1.88l-.02-.1c.25.8.59,1.73.87,2.53.38.97.89,2.25,1.34,3.18.66,1.36,1.37,2.74,2.43,3.82.35.35.75.65,1.19.76.22.05.5.08.73.11.76.08,1.51.02,2.27-.09.26-.03.52-.07.8-.05.29.01.6.16.77.39.18.23.27.49.35.74.1.27.04.59-.08.84-.46.95-1.23,1.69-1.93,2.45-.72.74-1.46,1.46-2.18,2.2h0ZM130.59,58.03c.72-.74,1.44-1.48,2.15-2.23.67-.75,1.43-1.5,1.85-2.42.08-.22.15-.44.05-.66-.15-.44-.38-.91-.9-.91-.23-.01-.49.03-.74.07-.76.13-1.57.22-2.35.17-.28-.02-.52-.04-.8-.09-.55-.13-1.02-.46-1.42-.83-1.16-1.09-1.96-2.49-2.71-3.86-.12-.23-.42-.82-.53-1.05-.11-.25-.69-1.5-.81-1.78-.19-.41-.43-1.02-.6-1.44-.17-.41-.42-1.05-.56-1.47v-.03s-.02-.07-.02-.07c-.05-.47-.15-1-.42-1.35-.28-.35-.68-.38-1.13-.39-.52,0-1.11.05-1.73.01-.31-.02-.63-.06-.96-.14-.12-.03-.36-.11-.48-.16-.58-.26-1.25-.59-1.83-.62-1.61-.09-2.19,1.78-4.13,1.13-.9-.31-1.61-.97-2.33-1.55-.32-.25-.61-.58-.73-.98-.11-.33-.07-.6-.14-.84-.14-.35-.57-.54-.88-.73-1.27-.59-3.12.28-4.36.76-.5.19-1.02.42-1.57.51-.21.04-.45,0-.66-.05,0,0-.1-.04-.1-.04-.33-.1-.67-.47-.8-.71-.12-.18-.14-.26-.25-.34,0,0-.01-.01-.02-.01-.07-.03-.26-.05-.48-.03-.05,0-.09.02-.17.05-.49.29-.83.8-1.2,1.33-.45.64-.89,1.47-1.3,2.16-.28.45-.51.93-.93,1.31-.15.13-.36.22-.55.21-.74.02-1.9.2-2.11,1.02-.13,1.12-.83,2-1.64,2.63-.1.09-.45.36-.51.43.02-.02.04-.05.04-.06.01-.03,0-.03,0,0,0,.15.02.3.06.48.18.82.46,1.99.03,2.87-.07.14-.16.3-.25.43-.67.99-.08,2.08.51,2.94.46.69,1.08,1.32,1.57,2.02.09.12.17.26.25.38.22.32.34.69.63.94.36.31.66.49,1.03.72.25.15.55.35.81.45.18.08.32.11.47.16-.05-.02-.11-.04-.16-.03.08.01.17.02.24.05.03,0,.05,0,.08.01l.14.06-.02-.03s0,0-.02,0c.09.01.21.02.3.03,1.77.08,3.45-.72,5.03-1.43.29-.13.59-.27.9-.35.5-.13.97.03,1.29.43.26.34.5.63.92.7.07.01.17.04.24.05,0,0,.18.03.18.03.09.03.23.07.32.11.24.1.46.25.64.44.29.29.41.53.54.81.2.5.28.9.2,1.43-.03.22-.15.43-.26.64-.1.24-.09.55,0,.86.22.68.71,1.28,1.2,1.81.31.34.53.7.72,1.08.55,1.12.82,2.33,1,3.55.08.76.18,1.53.03,2.3-.07.33-.41.63-.59.81-.37.34-.51.8-.37,1.27.19.72.65,1.32,1.08,1.97.46.69.8,1.42,1.12,2.16.63,1.47,1.13,2.98,1.69,4.46.27.67.55,1.47,1.03,1.97,0,0,.08.06.08.06.03.01.04.03.08.04.12.04.23.08.34.09.03,0,.07,0,.09,0,.04,0,.08-.02.12-.04,0,0,.05-.03.05-.03.28-.22.72-.5,1.11-.59.4-.1.84-.13,1.26-.12,2.14.15,3.6-2.25,4.38-3.95.09-.21.14-.34.23-.56.22-.42.65-.61,1.04-.78.25-.13.87-.28.97-.64.05-.21-.09-.48-.21-.68-.09-.16-.15-.32-.2-.5-.31-.95.25-1.9.95-2.51.67-.62,1.48-1.04,2.07-1.72.97-1.01,1.25-2.39.65-3.67-.13-.31-.3-.6-.48-.88-.13-.18-.27-.38-.33-.61-.59-1.99,2.67-5.08,3.96-6.46h0ZM133.56,67.46c-.58.25-1.08.72-1.4,1.28-.36.72-.71,1.25-1.56,1.4-.18.05-.35.09-.48.18-.02.01-.02.02-.03.04-.15.29-.09.69-.09,1.03.05.68.04,1.47-.23,2.13-.12.43-.96,2.38-.27,2.43.17.03.39.02.52-.1.27-.24.38-.65.5-1.01.1-.31.22-.69.36-.99.15-.36.39-.74.7-1,0,0-.01,0-.01.01l.04-.04c.33-.33.58-.76.83-1.17.37-.65,2.11-3.79,1.13-4.19h0ZM133.55,67.33c1.28.02.8,2.49.59,3.26-.32,1.18-.9,2.63-1.68,3.33-.25.25-.38.59-.53.93-.31.71-.57,1.52-1.28,1.98-.64.39-1.58.34-2.11-.24-.78-.96.05-2.42.43-3.37.29-.58.32-1.17.33-1.82.03-.47,0-1,.33-1.41.33-.37.9-.3,1.3-.44.44-.15.68-.61.94-.98.4-.57.99-1.04,1.67-1.23h0Z"/>
    <path class="cls-1" d="M56.63,58.28c0-12.76,3.65-24.25,9.48-32.27l-3.89-2.54s-23.31,31.93,0,69.61l4.37-1.9c-6.1-8.04-9.95-19.8-9.95-32.91Z"/>
  </g>
  <g>
    <path class="cls-2" d="M178.04,36.71h-8.88v-1.95l4.54-4.67c1.01-1.08,1.52-1.96,1.52-2.66,0-.52-.16-.94-.48-1.25-.32-.32-.74-.47-1.24-.47-1.01,0-1.75.52-2.22,1.56l-2.2-1.29c.4-.9,1-1.59,1.77-2.08.78-.49,1.65-.73,2.61-.73,1.2,0,2.23.38,3.09,1.14.86.75,1.29,1.76,1.29,3.04,0,1.38-.73,2.8-2.18,4.25l-2.6,2.6h4.99v2.52Z"/>
    <path class="cls-2" d="M183.93,27.37v-4.72h1.53v7.75h-1.16l-3.32-4.74v4.74h-1.53v-7.75h1.16l3.32,4.72Z"/>
    <path class="cls-2" d="M186.89,22.65h3.08c1.06,0,1.95.37,2.66,1.12.72.74,1.07,1.66,1.07,2.75s-.36,2.02-1.07,2.75c-.71.75-1.59,1.12-2.66,1.12h-3.08v-7.75ZM188.42,28.93h1.55c.67,0,1.22-.22,1.64-.66.42-.46.63-1.04.63-1.75s-.21-1.29-.63-1.74c-.42-.45-.97-.67-1.64-.67h-1.55v4.82Z"/>
    <path class="cls-2" d="M200.68,31.23v2.98h5.6v2.51h-8.22v-13.29h8.12v2.51h-5.5v2.83h5.03v2.47h-5.03Z"/>
    <path class="cls-2" d="M219.71,36.71h-2.85l-.8-2.39h-5.29l-.8,2.39h-2.83l4.65-13.29h3.25l4.67,13.29ZM213.43,26.44l-1.82,5.43h3.64l-1.82-5.43Z"/>
    <path class="cls-2" d="M225.24,36.98c-1.3,0-2.4-.29-3.3-.87-.9-.58-1.54-1.39-1.92-2.41l2.24-1.31c.52,1.35,1.54,2.03,3.06,2.03.71,0,1.24-.13,1.59-.38s.53-.59.53-1.02c0-.47-.21-.83-.63-1.08-.42-.27-1.16-.55-2.24-.85-1.16-.35-2.08-.77-2.75-1.23-.83-.62-1.25-1.53-1.25-2.73s.42-2.17,1.27-2.87c.85-.72,1.88-1.08,3.09-1.08,1.06,0,2,.26,2.83.78.82.52,1.46,1.25,1.92,2.2l-2.2,1.27c-.53-1.14-1.38-1.71-2.54-1.71-.53,0-.96.12-1.27.37-.32.25-.47.57-.47.96,0,.42.17.76.51,1.02.38.27,1.05.54,2.01.83l.91.3c.16.05.45.16.85.32.38.14.66.27.83.4.62.38,1.04.77,1.25,1.18.33.53.49,1.16.49,1.88,0,1.23-.45,2.2-1.35,2.92s-2.06,1.08-3.47,1.08Z"/>
    <path class="cls-2" d="M230.31,23.42h9.77v2.51h-3.59v10.78h-2.62v-10.78h-3.57v-2.51Z"/>
    <path class="cls-2" d="M244.16,31.23v2.98h5.6v2.51h-8.22v-13.29h8.12v2.51h-5.5v2.83h5.03v2.47h-5.03Z"/>
    <path class="cls-2" d="M261.71,36.71h-2.83l-2.68-4.61h-1.99v4.61h-2.62v-13.29h5.31c1.23,0,2.27.43,3.13,1.29.86.86,1.29,1.9,1.29,3.11,0,.82-.23,1.58-.7,2.29-.47.7-1.09,1.23-1.86,1.58l2.94,5.01ZM256.91,25.87h-2.7v3.93h2.7c.49,0,.92-.19,1.27-.58.35-.39.53-.85.53-1.4s-.18-1.01-.53-1.39c-.35-.38-.78-.57-1.27-.57Z"/>
    <path class="cls-2" d="M270.94,31.53v-8.1h2.62v13.29h-1.99l-5.69-8.12v8.12h-2.62v-13.29h1.99l5.69,8.1Z"/>
    <path class="cls-2" d="M292.16,36.71h-2.85l-.8-2.39h-5.29l-.8,2.39h-2.83l4.65-13.29h3.25l4.67,13.29ZM285.87,26.44l-1.82,5.43h3.64l-1.82-5.43Z"/>
    <path class="cls-2" d="M301.38,23.42v2.51h-5.31v3.15h5.16v2.51h-5.16v5.12h-2.62v-13.29h7.93Z"/>
    <path class="cls-2" d="M313.41,36.71h-2.83l-2.68-4.61h-1.99v4.61h-2.62v-13.29h5.31c1.23,0,2.27.43,3.13,1.29.86.86,1.29,1.9,1.29,3.11,0,.82-.23,1.58-.7,2.29-.47.7-1.09,1.23-1.86,1.58l2.94,5.01ZM308.61,25.87h-2.7v3.93h2.7c.49,0,.92-.19,1.27-.58.35-.39.53-.85.53-1.4s-.18-1.01-.53-1.39c-.35-.38-.78-.57-1.27-.57Z"/>
    <path class="cls-2" d="M314.95,36.71v-13.29h2.62v13.29h-2.62Z"/>
    <path class="cls-2" d="M326.34,36.98c-1.99,0-3.64-.66-4.95-1.99-1.3-1.32-1.96-2.95-1.96-4.92s.65-3.61,1.96-4.92c1.32-1.33,2.97-1.99,4.95-1.99,1.2,0,2.31.28,3.33.84s1.81,1.33,2.38,2.29l-2.26,1.31c-.33-.59-.8-1.06-1.4-1.39-.61-.34-1.29-.5-2.05-.5-1.29,0-2.33.4-3.13,1.21-.79.82-1.18,1.87-1.18,3.15s.39,2.31,1.18,3.13c.8.81,1.84,1.21,3.13,1.21.76,0,1.45-.17,2.06-.5.61-.33,1.08-.79,1.39-1.38l2.26,1.31c-.57.96-1.36,1.72-2.38,2.29s-2.13.84-3.33.84Z"/>
    <path class="cls-2" d="M344.99,36.71h-2.85l-.8-2.39h-5.29l-.8,2.39h-2.83l4.65-13.29h3.25l4.67,13.29ZM338.71,26.44l-1.82,5.43h3.64l-1.82-5.43Z"/>
    <path class="cls-2" d="M180,55.69h-2.83l-2.68-4.61h-1.99v4.61h-2.62v-13.29h5.31c1.23,0,2.27.43,3.13,1.29.86.86,1.29,1.9,1.29,3.11,0,.82-.23,1.58-.7,2.29-.47.7-1.09,1.23-1.86,1.58l2.94,5.01ZM175.2,44.85h-2.69v3.93h2.69c.49,0,.92-.19,1.27-.58.35-.39.53-.85.53-1.4s-.18-1.01-.53-1.39c-.35-.38-.78-.57-1.27-.57Z"/>
    <path class="cls-2" d="M184.15,50.2v2.98h5.6v2.51h-8.22v-13.29h8.12v2.51h-5.5v2.83h5.03v2.47h-5.03Z"/>
    <path class="cls-2" d="M197.88,48.55h6.66v1.02c0,1.9-.61,3.44-1.82,4.61-1.21,1.18-2.78,1.77-4.71,1.77-2.05,0-3.75-.66-5.1-1.99-1.34-1.34-2.01-2.97-2.01-4.9s.66-3.57,1.99-4.92c1.34-1.34,3-2.01,4.97-2.01,1.23,0,2.35.28,3.38.83,1.02.56,1.83,1.31,2.41,2.26l-2.24,1.29c-.32-.54-.8-.99-1.44-1.33-.65-.34-1.35-.51-2.13-.51-1.28,0-2.32.42-3.13,1.25-.81.81-1.21,1.85-1.21,3.13s.41,2.29,1.23,3.11c.82.81,1.92,1.21,3.3,1.21,1,0,1.83-.22,2.51-.66.67-.44,1.13-1.06,1.37-1.86h-4.02v-2.32Z"/>
    <path class="cls-2" d="M206.4,55.69v-13.29h2.62v13.29h-2.62Z"/>
    <path class="cls-2" d="M222.66,53.96c-1.34,1.33-2.97,1.99-4.9,1.99s-3.56-.66-4.9-1.99c-1.33-1.35-1.99-2.99-1.99-4.92s.67-3.57,1.99-4.9c1.34-1.34,2.97-2.01,4.9-2.01s3.55.67,4.9,2.01c1.34,1.33,2.01,2.96,2.01,4.9s-.67,3.57-2.01,4.92ZM214.71,52.18c.81.81,1.83,1.21,3.06,1.21s2.25-.4,3.06-1.21c.82-.82,1.23-1.87,1.23-3.13s-.41-2.31-1.23-3.13c-.82-.82-1.84-1.23-3.06-1.23s-2.23.41-3.06,1.23c-.82.82-1.23,1.87-1.23,3.13s.41,2.31,1.23,3.13Z"/>
    <path class="cls-2" d="M234.2,50.51v-8.1h2.62v13.29h-1.99l-5.69-8.12v8.12h-2.62v-13.29h1.99l5.69,8.1Z"/>
    <path class="cls-2" d="M250.67,55.69h-2.85l-.8-2.39h-5.29l-.8,2.39h-2.83l4.65-13.29h3.25l4.67,13.29ZM244.39,45.42l-1.82,5.43h3.64l-1.82-5.43Z"/>
    <path class="cls-2" d="M254.58,42.4v10.78h5.07v2.51h-7.69v-13.29h2.62Z"/>
    <path class="cls-2" d="M272.25,48.55h6.66v1.02c0,1.9-.61,3.44-1.82,4.61-1.21,1.18-2.78,1.77-4.71,1.77-2.05,0-3.75-.66-5.11-1.99-1.34-1.34-2.01-2.97-2.01-4.9s.67-3.57,1.99-4.92c1.34-1.34,3-2.01,4.97-2.01,1.23,0,2.35.28,3.38.83,1.02.56,1.83,1.31,2.41,2.26l-2.24,1.29c-.32-.54-.8-.99-1.44-1.33s-1.35-.51-2.13-.51c-1.28,0-2.32.42-3.13,1.25-.81.81-1.21,1.85-1.21,3.13s.41,2.29,1.23,3.11c.82.81,1.92,1.21,3.3,1.21,1,0,1.83-.22,2.5-.66.67-.44,1.13-1.06,1.37-1.86h-4.02v-2.32Z"/>
    <path class="cls-2" d="M283.39,42.4v10.78h5.07v2.51h-7.69v-13.29h2.62Z"/>
    <path class="cls-2" d="M300.3,53.96c-1.34,1.33-2.97,1.99-4.9,1.99s-3.56-.66-4.9-1.99c-1.33-1.35-1.99-2.99-1.99-4.92s.67-3.57,1.99-4.9c1.34-1.34,2.97-2.01,4.9-2.01s3.55.67,4.9,2.01c1.34,1.33,2.01,2.96,2.01,4.9s-.67,3.57-2.01,4.92ZM292.35,52.18c.81.81,1.83,1.21,3.06,1.21s2.25-.4,3.06-1.21c.82-.82,1.23-1.87,1.23-3.13s-.41-2.31-1.23-3.13c-.82-.82-1.84-1.23-3.06-1.23s-2.23.41-3.06,1.23c-.82.82-1.23,1.87-1.23,3.13s.41,2.31,1.23,3.13Z"/>
    <path class="cls-2" d="M312.18,48.8c1.16.67,1.75,1.68,1.75,3.04,0,1.13-.4,2.05-1.2,2.77-.8.72-1.78,1.08-2.94,1.08h-5.64v-13.29h5.24c1.13,0,2.08.35,2.87,1.06.78.71,1.18,1.6,1.18,2.68s-.42,1.99-1.25,2.66ZM309.39,44.85h-2.62v2.92h2.62c.4,0,.74-.14,1.02-.42.27-.28.41-.63.41-1.04s-.13-.77-.4-1.04c-.27-.28-.61-.42-1.02-.42ZM306.77,53.24h3.02c.44,0,.81-.15,1.1-.45s.44-.67.44-1.13-.15-.81-.44-1.11c-.29-.3-.66-.45-1.1-.45h-3.02v3.13Z"/>
    <path class="cls-2" d="M327.02,55.69h-2.85l-.8-2.39h-5.29l-.8,2.39h-2.83l4.65-13.29h3.25l4.67,13.29ZM320.74,45.42l-1.82,5.43h3.64l-1.82-5.43Z"/>
    <path class="cls-2" d="M330.93,42.4v10.78h5.07v2.51h-7.69v-13.29h2.62Z"/>
    <path class="cls-2" d="M177.44,66.66v-5.28h2.6v13.29h-2.6v-5.5h-4.93v5.5h-2.62v-13.29h2.62v5.28h4.93Z"/>
    <path class="cls-2" d="M185.12,69.18v2.98h5.6v2.5h-8.22v-13.29h8.12v2.5h-5.5v2.83h5.03v2.47h-5.03Z"/>
    <path class="cls-2" d="M204.16,74.67h-2.85l-.8-2.39h-5.3l-.8,2.39h-2.83l4.65-13.29h3.25l4.67,13.29ZM197.87,64.4l-1.82,5.43h3.64l-1.82-5.43Z"/>
    <path class="cls-2" d="M208.07,61.38v10.78h5.07v2.5h-7.69v-13.29h2.62Z"/>
    <path class="cls-2" d="M212.28,61.38h9.77v2.5h-3.59v10.78h-2.62v-10.78h-3.57v-2.5Z"/>
    <path class="cls-2" d="M231.07,66.66v-5.28h2.6v13.29h-2.6v-5.5h-4.93v5.5h-2.62v-13.29h2.62v5.28h4.93Z"/>
    <path class="cls-2" d="M245.42,74.93c-1.3,0-2.4-.29-3.3-.87s-1.54-1.39-1.92-2.41l2.24-1.31c.52,1.35,1.54,2.03,3.06,2.03.71,0,1.24-.13,1.59-.38s.53-.59.53-1.03c0-.47-.21-.83-.63-1.08-.42-.27-1.16-.55-2.24-.85-1.16-.35-2.08-.77-2.75-1.23-.83-.62-1.25-1.53-1.25-2.73s.42-2.17,1.27-2.87c.85-.72,1.88-1.08,3.09-1.08,1.06,0,2,.26,2.83.78.82.52,1.46,1.25,1.92,2.2l-2.2,1.27c-.53-1.14-1.38-1.71-2.54-1.71-.53,0-.96.12-1.27.37-.32.25-.47.57-.47.96,0,.42.17.76.51,1.02.38.27,1.05.54,2.01.83l.91.3c.16.05.45.16.85.32.38.14.66.27.83.4.62.38,1.04.77,1.25,1.18.33.53.49,1.16.49,1.88,0,1.23-.45,2.2-1.35,2.92-.9.72-2.06,1.08-3.47,1.08Z"/>
    <path class="cls-2" d="M254.47,69.18v2.98h5.6v2.5h-8.22v-13.29h8.12v2.5h-5.5v2.83h5.03v2.47h-5.03Z"/>
    <path class="cls-2" d="M268.11,74.93c-1.99,0-3.64-.66-4.95-1.99-1.3-1.32-1.96-2.96-1.96-4.92s.65-3.61,1.96-4.92c1.32-1.33,2.97-1.99,4.95-1.99,1.2,0,2.31.28,3.33.84,1.02.56,1.81,1.33,2.38,2.29l-2.26,1.31c-.33-.59-.8-1.06-1.4-1.4-.61-.33-1.29-.5-2.05-.5-1.29,0-2.33.41-3.13,1.21-.79.82-1.18,1.87-1.18,3.15s.39,2.31,1.18,3.13c.8.81,1.84,1.21,3.13,1.21.76,0,1.45-.17,2.06-.5.61-.33,1.08-.79,1.39-1.38l2.26,1.31c-.57.96-1.36,1.72-2.38,2.29-1.02.56-2.13.84-3.33.84Z"/>
    <path class="cls-2" d="M280.39,74.93c-1.48,0-2.69-.42-3.64-1.25-.95-.83-1.42-1.95-1.42-3.36v-8.94h2.6v8.73c0,.71.21,1.26.62,1.66s1.03.6,1.85.6,1.44-.2,1.85-.6.62-.95.62-1.66v-8.73h2.62v8.94c0,1.4-.47,2.52-1.42,3.36-.95.84-2.17,1.25-3.66,1.25Z"/>
    <path class="cls-2" d="M297.95,74.67h-2.83l-2.68-4.61h-1.99v4.61h-2.62v-13.29h5.31c1.23,0,2.27.43,3.13,1.29s1.29,1.9,1.29,3.11c0,.82-.23,1.58-.7,2.29-.47.7-1.09,1.23-1.86,1.58l2.94,5.01ZM293.15,63.83h-2.7v3.93h2.7c.49,0,.92-.19,1.27-.58.35-.39.53-.85.53-1.39s-.18-1.01-.53-1.39c-.35-.38-.78-.57-1.27-.57Z"/>
    <path class="cls-2" d="M299.49,74.67v-13.29h2.62v13.29h-2.62Z"/>
    <path class="cls-2" d="M303.58,61.38h9.77v2.5h-3.59v10.78h-2.62v-10.78h-3.57v-2.5Z"/>
    <path class="cls-2" d="M322.37,61.38h2.96l-4.55,8.1v5.18h-2.6v-5.18l-4.54-8.1h2.96l2.88,5.54,2.88-5.54Z"/>
    <path class="cls-2" d="M174.42,93.91c-1.3,0-2.4-.29-3.3-.87-.9-.58-1.54-1.39-1.92-2.41l2.24-1.31c.52,1.35,1.54,2.03,3.06,2.03.71,0,1.24-.13,1.59-.38s.53-.59.53-1.03c0-.47-.21-.83-.63-1.08-.42-.27-1.16-.55-2.24-.85-1.16-.35-2.08-.77-2.75-1.23-.84-.62-1.25-1.53-1.25-2.73s.42-2.17,1.27-2.87c.85-.72,1.88-1.08,3.09-1.08,1.06,0,2.01.26,2.83.78s1.46,1.25,1.92,2.2l-2.2,1.27c-.53-1.14-1.38-1.71-2.54-1.71-.53,0-.96.12-1.27.37-.32.25-.47.57-.47.96,0,.42.17.76.51,1.02.38.27,1.05.54,2.01.83l.91.3c.16.05.45.16.85.32.38.14.66.27.84.4.62.38,1.04.77,1.25,1.18.33.53.49,1.16.49,1.88,0,1.23-.45,2.2-1.35,2.92-.9.72-2.06,1.08-3.47,1.08Z"/>
    <path class="cls-2" d="M185.9,93.91c-1.48,0-2.69-.42-3.64-1.25-.95-.83-1.42-1.95-1.42-3.36v-8.94h2.6v8.73c0,.71.21,1.26.62,1.66s1.03.6,1.85.6,1.44-.2,1.85-.6c.41-.4.62-.95.62-1.66v-8.73h2.62v8.94c0,1.4-.47,2.52-1.42,3.36-.95.84-2.17,1.25-3.66,1.25Z"/>
    <path class="cls-2" d="M203.64,80.36h2.69v13.29h-2.6v-8.62l-3.74,6.17h-.3l-3.74-6.15v8.6h-2.62v-13.29h2.7l3.81,6.28,3.8-6.28Z"/>
    <path class="cls-2" d="M219.11,80.36h2.7v13.29h-2.6v-8.62l-3.74,6.17h-.3l-3.74-6.15v8.6h-2.62v-13.29h2.7l3.81,6.28,3.8-6.28Z"/>
    <path class="cls-2" d="M224.27,93.65v-13.29h2.62v13.29h-2.62Z"/>
    <path class="cls-2" d="M228.37,80.36h9.77v2.5h-3.59v10.78h-2.62v-10.78h-3.57v-2.5Z"/>
    <path class="cls-1" d="M252.51,93.65h-8.88v-1.96l4.54-4.67c1.01-1.08,1.52-1.96,1.52-2.66,0-.52-.16-.94-.48-1.25-.32-.32-.74-.47-1.24-.47-1.01,0-1.75.52-2.22,1.56l-2.2-1.29c.4-.9,1-1.59,1.77-2.08.78-.49,1.65-.73,2.61-.73,1.2,0,2.23.38,3.09,1.14.86.75,1.29,1.76,1.29,3.04,0,1.38-.73,2.8-2.18,4.25l-2.6,2.6h4.99v2.52Z"/>
    <path class="cls-1" d="M258.99,93.91c-1.66,0-2.96-.63-3.91-1.88-.94-1.28-1.4-2.95-1.4-5.03s.47-3.75,1.4-5.01c.95-1.27,2.25-1.9,3.91-1.9s2.99.63,3.91,1.9c.94,1.26,1.4,2.93,1.4,5.01s-.47,3.75-1.4,5.03c-.92,1.25-2.23,1.88-3.91,1.88ZM261.7,87c0-1.42-.23-2.5-.69-3.25s-1.14-1.12-2.02-1.12-1.56.37-2.01,1.12c-.46.75-.68,1.83-.68,3.25s.23,2.5.68,3.24c.46.74,1.13,1.11,2.01,1.11s1.56-.37,2.02-1.12.69-1.82.69-3.23Z"/>
    <path class="cls-1" d="M274.02,93.65h-8.88v-1.96l4.54-4.67c1.01-1.08,1.52-1.96,1.52-2.66,0-.52-.16-.94-.48-1.25-.32-.32-.74-.47-1.24-.47-1.01,0-1.75.52-2.22,1.56l-2.2-1.29c.4-.9,1-1.59,1.77-2.08.78-.49,1.65-.73,2.61-.73,1.2,0,2.23.38,3.09,1.14.86.75,1.29,1.76,1.29,3.04,0,1.38-.73,2.8-2.18,4.25l-2.6,2.6h4.99v2.52Z"/>
    <path class="cls-1" d="M282.8,80.36l-2.94,4.31c1.38.04,2.5.49,3.36,1.35.86.86,1.29,1.95,1.29,3.26s-.45,2.47-1.35,3.34c-.9.86-2.06,1.29-3.47,1.29s-2.58-.43-3.47-1.29c-.89-.85-1.33-1.96-1.33-3.34,0-1,.26-1.89.78-2.68l4.14-6.24h3ZM281.91,89.28c0-.63-.21-1.15-.63-1.55-.42-.4-.95-.6-1.59-.6s-1.17.2-1.58.59c-.41.39-.62.91-.62,1.56s.21,1.17.62,1.57c.41.4.94.6,1.58.6s1.18-.2,1.59-.6c.42-.4.63-.92.63-1.57Z"/>
  </g>
</svg>