<?xml version="1.0" encoding="UTF-8"?>
<svg id="Layer_1" data-name="Layer 1" xmlns="http://www.w3.org/2000/svg" viewBox="0 0 396.85 116.56">
  <defs>
    <style>
      .cls-1 {
        fill: #891846;
      }
    </style>
  </defs>
  <path class="cls-1" d="M335.44,88.66h52.08l-.94,27.11h-11.26v-14.96h-44.11l4.22-12.15ZM205.97,82.15c-9.62,3.36-20.83,1.69-26.31-7.52l-3.25,8-10.89-.45-.46-78.17,1.46-3.22h13.61v28.98c3.68-1.35,6.09-4.36,10.27-5.2,37.94-7.63,45.25,47.22,15.57,57.58ZM193.88,36.66c-16.95.35-21.16,25.16-6.6,32.25,24.33,11.85,31.5-32.77,6.6-32.25ZM283.35,59.68h-39.41c2.01,15,21.26,12.21,31.87,8.42l4.73,11.19c-20.37,9.87-49.45,3.84-51.6-21.97-3.81-45.83,63.67-43.88,54.41,2.35ZM270.22,49.4c-1.01-18.44-24.42-16.71-26.28,0h26.28ZM151.97,67.63l.05-63.62-1.46-3.22h-13.61v75.26c0,.44,2.15,3.24,2.77,3.79,5.65,5,12.18,2.01,18.82,2.3v-12.16c-.57-.55-6.67,1.42-6.58-2.33ZM303.53,33.5l-1.41-8.4h-12.19s0,57.96,0,57.96l13.67-.88c2.5-17.61-7.66-44.95,20.12-43.06v-14.96c-8.12.16-15.62,2.44-20.18,9.34ZM390.34,24.15v14.96c-13.6-2.07-5.83,6.56-5.99,15.27-.63,33.36-46.22,39.97-57.04,11.54-11.7-30.72,19.7-53.2,46.48-36.3,4.32-4.19,10.68-5.51,16.56-5.47ZM354.36,36.66c-17.83.38-20.07,27.98-4.63,33.09,23.25,7.69,27.45-33.58,4.63-33.09ZM50.95,79.18c-2.15,1-10.21,3.87-12.06,3.87H6.51V5.46h36.13c1.61,0,11.21,4.56,12.98,5.76,21.9,14.95,20.24,56.42-4.67,67.96ZM51.57,28.35c-2.17-3.1-9.99-8.87-13.61-8.87h-15.48v48.61h16.42c.57,0,7.31-3.23,8.29-3.9,9.81-6.68,10.76-26.73,4.39-35.84ZM131.33,69.96v12.16c-7.88.55-17.2,2.56-19.24-7.48-13.69,21.58-51.26,1.52-35.69-19.66,2.52-3.42,11-8.39,15.04-8.39h18.3c-.6-16.41-17.61-9.5-28.06-8.5l-2.91-11.13c13.8-2.98,38.95-8.3,44.05,9.87,2.67,9.51-.03,21.66,1.13,31.6l1.4,1.4,5.98.13ZM108.86,57.28c-1.45-1.02-8.35-.38-10.57-.13-4.7.53-11.12,1.27-10.79,7.53.77,14.57,27.41,5.91,21.36-7.4Z"/>
</svg>