<?xml version="1.0" encoding="UTF-8"?><svg id="Layer_1" xmlns="http://www.w3.org/2000/svg" viewBox="0 0 841.89 255.38"><defs><style>.cls-1{fill:#e8002a;}.cls-2{fill:#3aad2c;}</style></defs><path class="cls-1" d="M296.53,46.3c-12.4-21.71-84.81-2.97-161.67,41.93C58,133.13,5.82,187.34,18.22,209.05c10.65,18.74,65.67,7.42,129.71-24.68,2.83-1.62,2.7-4.99-1.08-3.78-39.51,14.7-72.41,15.64-80.9,0-11.33-20.76,24.54-62.7,80.09-93.85,55.55-31.01,109.76-39.51,121.08-18.74,5.12,9.44.4,23.46-11.6,38.83,0,0-.13.13-.13.27-4.45,5.53-1.21,7.28,2.02,4.58,30.61-27.51,46.52-52.32,39.1-65.4"/><path class="cls-2" d="M181.24,189.63c-6.88-1.89-12.4-4.45-16.72-7.55l7.82-17.8c4.58,2.97,9.44,5.12,14.56,6.74,5.12,1.62,10.25,2.29,15.51,2.29s9.3-.67,12.14-2.16,4.18-3.51,4.18-6.2c0-2.43-1.21-4.31-3.78-5.93-2.56-1.48-7.42-3.1-14.43-4.58-8.9-1.75-15.78-4.05-20.63-6.61-4.85-2.56-8.36-5.66-10.38-9.3-2.02-3.64-2.97-7.82-2.97-12.94,0-5.8,1.62-11.06,4.85-15.64,3.24-4.72,7.82-8.36,13.75-10.92,5.93-2.7,12.54-3.91,20.09-3.91,6.74,0,13.35.94,19.69,2.83,6.34,1.89,11.33,4.45,14.97,7.55l-7.55,17.8c-4.18-2.97-8.49-5.12-13.08-6.74-4.58-1.48-9.17-2.29-13.75-2.29s-8.09.81-10.79,2.56c-2.7,1.75-4.05,4.05-4.05,7.01,0,1.62.54,2.97,1.48,4.05.94,1.08,2.83,2.16,5.39,3.1,2.7,1.08,6.61,2.16,11.87,3.24,8.49,1.89,15.24,4.18,20.09,6.74,4.85,2.7,8.36,5.66,10.38,9.17,2.02,3.51,3.1,7.69,3.1,12.54,0,9.3-3.51,16.58-10.65,21.84-7.15,5.26-17.12,7.96-30.07,7.96-7.15,0-14.16-.94-21.03-2.83M325.79,123.56v67.69h-23.46v-9.17c-1.89,3.24-4.72,5.66-8.36,7.55-3.64,1.75-7.69,2.7-12.14,2.7-5.66,0-10.79-1.48-15.24-4.31-4.45-2.83-7.96-6.88-10.52-12.27-2.43-5.26-3.78-11.46-3.78-18.34s1.35-13.21,3.91-18.74c2.56-5.39,6.07-9.71,10.52-12.67,4.45-2.97,9.57-4.58,15.1-4.58,4.31,0,8.36.94,12,2.83,3.64,1.89,6.47,4.45,8.49,7.69v-8.63h23.46v.27ZM298.95,169.94c2.29-2.97,3.37-7.15,3.37-12.67s-1.08-9.84-3.37-12.81c-2.29-2.97-5.53-4.45-9.71-4.45s-7.42,1.48-9.71,4.58c-2.43,3.1-3.51,7.42-3.51,13.08s1.08,9.57,3.37,12.4c2.29,2.83,5.53,4.31,9.84,4.31,4.18,0,7.42-1.48,9.71-4.45M341.43,123.56v-1.89c0-9.17,2.29-16.32,7.01-21.44,4.72-5.12,11.6-7.69,20.5-7.69,5.12,0,9.3.67,12.4,1.89v18.47c-2.56-.67-4.72-.94-6.34-.94-2.83,0-5.12.81-7.01,2.43-1.89,1.62-2.7,4.18-2.7,7.55v1.62h13.08v17.8h-13.08v49.89h-23.87v-50.02s.4-17.66,0-17.66M459.14,123.56v67.69h-23.46v-9.17c-1.89,3.24-4.72,5.66-8.49,7.55-3.64,1.75-7.69,2.7-12.14,2.7-5.66,0-10.79-1.48-15.24-4.31-4.45-2.83-7.96-6.88-10.52-12.27-2.56-5.26-3.78-11.46-3.78-18.34s1.35-13.21,3.78-18.74c2.56-5.39,6.07-9.71,10.52-12.67,4.45-2.97,9.57-4.58,15.1-4.58,4.45,0,8.36.94,12,2.83,3.64,1.89,6.47,4.45,8.49,7.69v-8.63h23.73v.27ZM432.17,169.94c2.29-2.97,3.37-7.15,3.37-12.67s-1.08-9.84-3.37-12.81c-2.29-2.97-5.53-4.45-9.71-4.45s-7.42,1.48-9.71,4.58-3.51,7.42-3.51,13.08,1.08,9.57,3.37,12.4c2.29,2.83,5.53,4.31,9.84,4.31,4.31,0,7.55-1.48,9.71-4.45M523.19,123.42v21.98c-3.78-1.75-7.42-2.7-10.92-2.7-9.98,0-14.97,4.85-14.97,14.56v33.98h-23.87v-48.27c0-7.28-.4-13.75-1.08-19.42h22.38l1.48,11.33c1.62-4.18,4.18-7.42,7.69-9.57,3.51-2.16,7.42-3.37,11.87-3.37,3.1,0,5.66.54,7.42,1.48M530.06,123.56h23.87v67.82h-23.87v-67.82ZM574.69,183.02c-6.34-6.2-9.57-14.7-9.57-25.48,0-7.15,1.48-13.35,4.72-18.74,3.1-5.39,7.55-9.57,13.08-12.67,5.66-2.97,12.14-4.45,19.55-4.45,4.85,0,9.71.67,14.56,2.16,4.72,1.48,8.49,3.51,11.33,5.93l-6.07,16.58c-2.29-1.89-5.12-3.51-8.23-4.58-3.24-1.21-6.2-1.75-9.17-1.75-4.85,0-8.63,1.48-11.33,4.31-2.7,2.83-3.91,7.01-3.91,12.67s1.35,9.98,3.91,12.94c2.7,2.83,6.47,4.31,11.46,4.31,2.83,0,5.93-.54,9.03-1.75,3.1-1.21,5.8-2.7,8.23-4.72l6.07,16.45c-2.97,2.56-6.74,4.58-11.46,6.07-4.85,1.48-9.98,2.16-15.37,2.16-11.6-.13-20.5-3.24-26.83-9.44M650.2,188.15c-5.53-2.83-9.84-6.88-12.81-12.27-2.97-5.39-4.45-11.6-4.45-18.74s1.48-13.48,4.45-18.88c2.97-5.39,7.28-9.44,12.81-12.27,5.53-2.83,12-4.31,19.55-4.31s13.75,1.48,19.28,4.31c5.53,2.83,9.71,7.01,12.67,12.27,2.97,5.26,4.45,11.46,4.45,18.74s-1.48,13.48-4.45,18.74c-2.97,5.26-7.15,9.44-12.67,12.27-5.53,2.97-11.87,4.31-19.28,4.31-7.55,0-14.02-1.35-19.55-4.18M682.56,157c0-5.93-1.08-10.25-3.24-12.94-2.16-2.83-5.39-4.18-9.71-4.18s-7.69,1.35-9.84,4.18c-2.16,2.83-3.37,7.15-3.37,12.94s1.08,10.38,3.37,13.08c2.16,2.83,5.53,4.18,9.84,4.18,8.63.13,12.94-5.66,12.94-17.26M819.83,128.82c3.78,4.85,5.66,12.14,5.66,21.98v40.45h-23.87v-39.78c0-4.05-.54-6.88-1.75-8.63-1.21-1.75-3.24-2.7-5.93-2.7-3.37,0-5.93,1.21-7.82,3.78-1.89,2.56-2.83,5.93-2.83,10.52v36.81h-23.87v-39.78c0-4.05-.67-6.88-1.89-8.63-1.21-1.75-3.24-2.7-5.93-2.7-3.37,0-5.93,1.21-7.69,3.78-1.75,2.56-2.7,5.93-2.7,10.52v36.81h-23.87v-48.27c0-7.28-.27-13.75-1.08-19.42h22.38l1.21,9.44c2.02-3.64,4.85-6.47,8.49-8.36,3.64-1.89,7.82-2.97,12.54-2.97,9.57,0,16.05,4.05,19.55,12.27,2.43-3.78,5.53-6.74,9.44-8.9,3.91-2.29,8.09-3.37,12.67-3.37,7.82,0,13.48,2.43,17.26,7.15"/><rect class="cls-2" x="530.06" y="90.26" width="23.87" height="21.71"/></svg>