<?xml version="1.0" encoding="UTF-8"?>
<svg id="Layer_1" data-name="Layer 1" xmlns="http://www.w3.org/2000/svg" viewBox="0 0 372.2 255.38">
  <defs>
    <style>
      .cls-1 {
        fill: #fff;
      }

      .cls-2 {
        fill: #184f72;
      }

      .cls-3 {
        fill: #84abc3;
      }
    </style>
  </defs>
  <path class="cls-3" d="M31.95,162.33l68.46-64.33s27.91-58.08,74.12-84.22c0,0-49.22,48.96-50.05,74.27l7.47,2.07s26.14-4.15,28.63-3.73c0,0-41.65,11.62-57.34,26.97,0,0-16.52,20.75-31.04,101.66,0,0,1.06-65.79,17.01-95.85l-57.26,43.15ZM82.37,34.12c-10.2,0-18.46,14.95-18.46,33.4s8.27,33.4,18.46,33.4,18.46-14.95,18.46-33.4-8.27-33.4-18.46-33.4Z"/>
  <path class="cls-2" d="M211.27,39.76c-8.96,8.73-17.19,18.17-24.96,27.97,6.81,13.43,10.16,28.52,9.65,43.63,1.23-.04,2.42-.22,3.66-.17.21,0,.63-.13.59.17-21.47,5.27-42.61,13.92-60.46,27.05-12.59,27.12-20.34,56.24-26.88,85.37l-3.31,15.99v-9.45c0-.4.16-.77.18-1.18.18-6.3.45-12.59,1.01-18.88.32-3.55.82-7.09,1.19-10.63l-6.37.52c-53.15,1.74-98.62-41.46-96.36-95.17C11.66,46.97,66.43,6.67,122.86,18.89c24.79,5.37,46.68,20.91,59.94,42.45.2.05.49-.21.66-.33,1.86-1.35,4.16-3.92,6.04-5.53,5.2-4.44,10.66-8.58,16.31-12.44l5.46-3.29ZM143.24,111.7c8.46-14.72,18.78-28.73,30.44-41.08,1.88-1.99,4.05-3.81,5.76-5.92-11.58-19.54-30.87-34.21-52.8-40.24C72,9.43,16.41,47.87,13.81,104.81c-2.33,50.9,40.07,91.46,90.05,90.73,2.92-.04,5.86,0,8.74-.53,2.5-17.44,6.85-34.65,13.8-50.83l-57.99,44.14,61.74-59.53c-1,0-1.97.5-2.98.59-7.83.7-13.02-6.5-15.64-12.93-5.28-12.97-4.47-31.73,2.43-43.99,8.32-14.78,21.37-13.24,27.95,1.87,3.99,9.17,4.58,20.82,2.81,30.59-.39,2.18-1.09,4.15-1.57,6.25-.04.17-.23.55.09.52ZM191.35,111.85c.51-13.72-2.1-27.68-8.23-39.94-12.74,16.52-24.08,34.1-34.44,52.21,13.73-5.55,28.02-9.82,42.67-12.27Z"/>
  <polygon class="cls-2" points="238.82 142.82 238.82 149.63 245.63 149.63 245.63 142.82 249.71 142.82 249.71 160.51 245.63 160.51 245.63 153.03 239.08 153.03 238.82 153.28 238.82 160.51 234.74 160.51 234.74 142.82 238.82 142.82"/>
  <polygon class="cls-2" points="159.4 142.82 159.4 150.65 164.92 142.82 169.77 142.82 163.99 150.39 170.11 160.51 165.35 160.51 161.1 152.86 159.4 154.82 159.4 160.51 155.49 160.51 155.49 142.82 159.4 142.82"/>
  <path class="cls-2" d="M302.94,141.8v7.31c.65-.2,1.01-.83,1.65-1.16,1.8-.95,4.49-.72,5.74,1,.41.57,1.12,2.3,1.12,2.97v8.59h-4.08v-8.08c0-.14-.53-1.2-.69-1.35-.7-.66-2.25-.6-2.95.09-.24.23-.78,1.32-.78,1.6v7.74h-3.91v-18.71h3.91Z"/>
  <path class="cls-2" d="M204.13,147.76l2.63,8.68,2.13-8.68h4.42c-1.16,2.8-2.01,5.73-3.1,8.55-1.62,4.16-3.31,9.34-8.36,10.15l-.93-3.37c1.3-.32,3.69-1.6,3.55-3.14l-4.92-12.18h4.59Z"/>
  <path class="cls-2" d="M198.18,160.51h-4.08v-7.91c0-.06-.3-.88-.36-1-.67-1.16-2.4-1.33-3.32-.39-.16.16-.74,1.23-.74,1.39v7.91h-4.08v-12.76h3.57l.09,1.7,1.11-1.1c2.93-1.87,6.58-1.05,7.52,2.49.06.21.29,1.13.29,1.24v8.42Z"/>
  <path class="cls-2" d="M226.07,160.51h-3.74l-.17-1.19c-2.54,2.64-7.98,1.91-8.17-2.3-.18-3.98,4.72-5.17,7.83-5.01-.25-2.99-4.26-1.79-6.12-1.02l-.67-2.53c1.87-.82,3.81-1.19,5.86-1.05,7.15.5,4.31,8.36,5.18,13.1ZM221.6,154.42c-.55.21-1.1.08-1.67.21-2.83.64-2.26,3.89.19,3.43,1.55-.29,2.09-1.98,1.84-3.39l-.36-.25Z"/>
  <path class="cls-2" d="M278.45,160.51h-3.57l-.26-1.19c-.52.21-.74.66-1.27.95-2.46,1.33-6.28.48-6.77-2.6-.71-4.45,4.1-5.74,7.61-5.66.15-2.51-3.21-2.02-4.81-1.49-.37.12-.95.67-1.23.3l-.52-2.39c3.8-1.74,10.11-1.89,10.64,3.5.28,2.82-.3,5.77.17,8.59ZM274.37,154.39c-.81.24-1.61.11-2.42.38-2.49.84-1.48,4.07.98,3.19,1.64-.58,1.49-2.12,1.44-3.58Z"/>
  <path class="cls-2" d="M338.15,160.51h-3.57c-.18-.22-.02-1.36-.42-1.19-2.61,2.84-8.04,1.74-7.92-2.64.11-3.8,4.6-4.72,7.66-4.67.18-2-1.99-2.03-3.47-1.85-.82.1-1.47.52-2.19.72-.16.04-.24.19-.38-.05l-.53-2.39c3.8-1.74,10.11-1.89,10.64,3.5.28,2.82-.3,5.77.17,8.59ZM334.07,154.39c-.81.24-1.61.11-2.42.38-2.51.85-1.49,4.07.98,3.19,1.64-.58,1.49-2.12,1.44-3.58Z"/>
  <path class="cls-2" d="M362.98,155.41h-8.5c.68,3.38,4.98,2.55,7.48,2.04l.35,2.62c-4.18,1.51-10.32,1.25-11.5-3.97-.95-4.18,1.42-8.46,5.95-8.69,4.87-.25,6.94,3.58,6.22,8ZM359.41,152.69c-.21-3.71-4.57-3.51-4.93,0h4.93Z"/>
  <path class="cls-2" d="M183.04,155.41h-8.5c.62,3.34,4.88,2.53,7.32,2.11l.49,2.64c-4.19,1.29-10.34,1.2-11.51-4.03-.94-4.21,1.44-8.49,5.98-8.72,4.92-.25,6.82,3.6,6.22,8ZM179.47,152.69c-.16-3.7-4.71-3.47-4.93,0h4.93Z"/>
  <path class="cls-2" d="M256.17,155.41c.85,3.39,4.9,2.54,7.48,2.05l.49,2.45c-1.95,1.03-4.68,1.16-6.81.73-8.64-1.75-5.17-15.93,3.87-12.88,1.69.57,3.65,2.88,3.65,4.68v2.72l-.26.26h-8.42ZM261.1,152.69c-.07-3.68-4.53-3.48-4.93,0h4.93Z"/>
  <path class="cls-2" d="M293.59,144.19v3.32l.26.26h2.64v2.89h-2.89v5.53c0,.05.35.83.43.93.57.77,1.64.46,2.46.51v2.89c-1.74.47-4.43.64-5.78-.77-1.77-1.84-.74-6.69-1.02-9.1-.44-.08-1.68.23-1.85-.28l-.02-2.61,1.8-.16.09-2.38,3.9-1.04Z"/>
  <path class="cls-2" d="M324.03,150.82c-2.01-.8-4.95-.42-5.62,1.95-1.12,3.95,2.37,6.05,5.79,4.52l.32,3.04c-4.78,1.58-10.34-.12-10.53-5.84s5.78-8.31,10.65-6.56l-.61,2.9Z"/>
  <rect class="cls-2" x="281.68" y="141.8" width="4.08" height="18.71"/>
  <path class="cls-2" d="M349.38,147.42v3.74c-1.25-.1-2.41-.19-3.32.84-.12.13-.59.87-.59.94v7.57h-4.08l-.17-12.76h3.32c.49.47.17,1.32.25,1.96.03.24.09.49.34.25.52-1.88,2.38-2.81,4.25-2.55Z"/>
  <path class="cls-2" d="M210.93,170.89v13.44h-1.19s0-1.53,0-1.53c-2.96,3.5-8.8,1.79-9.16-2.83-.4-5.08,6.02-7.68,9.16-3.64v-5.44h1.19ZM205.45,175.53c-5.19.49-4.64,8.76,1.3,7.93,4.57-.63,3.96-8.43-1.3-7.93Z"/>
  <path class="cls-2" d="M235.93,179.56h-8.76c-.47.48.12,1.76.45,2.27,1.75,2.66,5.55,2.03,7.05-.55l.91.34c-.69,2.29-3.22,3.3-5.5,3.03-3.6-.41-5.37-4.51-3.77-7.64,2.38-4.65,10.02-2.81,9.62,2.56ZM234.57,178.54c-.76-4.05-6.57-4.05-7.48,0h7.48Z"/>
  <path class="cls-2" d="M186.27,179.56h-9.01c.19,4.53,5.48,5.28,7.76,1.72l.91.32c-1.67,4.63-9.19,3.83-9.85-1.12-1.01-7.63,10.17-8.34,10.19-.92ZM184.91,178.54c-.81-4.05-6.58-4.05-7.48,0h7.48Z"/>
  <path class="cls-2" d="M278.62,184.32h-1.19s0-1.53,0-1.53c-3.67,3.81-9.68,1.46-9.19-4,.4-4.49,6.45-5.94,9.19-2.46v-1.7s1.19,0,1.19,0v9.69ZM272.97,175.52c-3.6.43-4.84,5.1-1.89,7.24,3.32,2.41,7.68-1.04,5.99-4.97-.66-1.53-2.47-2.47-4.1-2.27Z"/>
  <path class="cls-2" d="M332.85,174.33c6.8-.33,7.39,9.82.79,10.33-7.24.56-7.6-10-.79-10.33ZM332.85,175.52c-5.16.37-4.88,8.78,1.12,7.94,4.56-.64,3.91-8.3-1.12-7.94Z"/>
  <path class="cls-2" d="M352.95,174.63h1.36s0,1.53,0,1.53c2.08-2.5,6.66-2.58,7.27,1.15.06.37.21,1.55.21,1.83v5.1c-.33.4-1.06.38-1.36,0v-6.63c0-.07-.44-1.02-.54-1.16-1.21-1.81-4.14-.91-5.11.79-.11.19-.47,1.1-.47,1.23v5.78c-.33.4-1.06.38-1.36,0v-9.61Z"/>
  <polygon class="cls-2" points="162.12 172.42 156.68 172.42 156.68 176.67 162.12 176.67 162.12 177.86 156.68 177.86 156.68 184.32 155.32 184.32 155.32 171.06 161.86 171.06 162.09 171.34 162.12 172.42"/>
  <path class="cls-2" d="M271.05,218.68c1.27.21,2,1.55,1.75,2.77-.13.63-.73.95-.81,1.48,2.26.68,2.02,3.94-.17,4.68-.12.04-1.05.25-1.11.25h-2.81v-9.18c.96.11,2.23-.15,3.15,0ZM268.93,219.7v2.47c1.16.85,3.6-.48,2.63-1.95-.54-.82-1.81-.44-2.63-.52ZM268.93,223.7v2.89c0,.43,2.24.11,2.56,0,.52-.16,1-.83,1.02-1.37.07-1.65-2.08-1.94-3.3-1.76l-.28.23Z"/>
  <path class="cls-2" d="M181.85,218.68v3.74h4.42v-3.74h1.19v8.93c0,.35-1.19.35-1.19,0v-4.17h-4.42v4.17c0,.35-1.19.35-1.19,0v-8.93h1.19Z"/>
  <path class="cls-2" d="M303.11,218.34v9.27l-1.02.26-.08-1.02c-1.76,1.81-4.95,1.36-5.9-1.07-1.51-3.84,3.08-6.56,5.99-3.86v-3.57h1.02ZM299.16,221.78c-3.5.51-2.68,5.75.8,5.23s2.49-5.71-.8-5.23Z"/>
  <polygon class="cls-2" points="337.47 218.68 337.47 219.7 333.22 219.7 333.22 222.25 337.47 222.25 337.47 223.44 333.22 223.44 333.22 226.84 337.47 226.84 337.47 227.86 332.28 227.86 332.03 227.61 332.03 218.68 337.47 218.68"/>
  <path class="cls-2" d="M361.11,227.86c-1.7.39-1.66-1.98-2.55-2.98l-3.93.02c-.22.38-1.23,2.84-1.37,2.93-.21.13-.86-.03-1.16.03l4.26-9.18.51.07,4.25,9.1ZM358.05,223.78c-.13-.26-1.28-3.08-1.53-2.89l-1.19,2.89h2.72Z"/>
  <path class="cls-2" d="M289.51,221.91v-1.02c.42,0,.97-.12,1.02.43l-.16,6.47-.86.08c.22-1.67-.75-.34-1.53-.08-2.36.78-4.78-.9-4.78-3.4s2.49-4.14,4.9-3.36c.59.19.83.79,1.41.89ZM288.77,226.28c2.15-2.15-.67-5.91-3.43-4.03-3.1,2.12.81,6.64,3.43,4.03Z"/>
  <path class="cls-2" d="M203.62,221.91v-1.02c.43,0,.97-.12,1.02.43l-.16,6.47-.86.08v-1.02c-2.86,2.76-7.53-.05-5.98-3.86,1.01-2.49,4.11-2.79,5.98-1.07ZM200.68,221.78c-3.5.51-2.68,5.75.8,5.23s2.47-5.7-.8-5.23Z"/>
  <path class="cls-2" d="M237.8,224.46h-5.95c.1,3.04,3.42,3.29,5.04,1.05l.67.31c-.03.86-1.17,1.71-1.96,1.96-3.27,1.02-5.98-2-4.46-5.14s7.06-1.92,6.66,1.82ZM236.78,223.61c-.86-2.46-4.08-2.49-4.93,0h4.93Z"/>
  <path class="cls-2" d="M196.13,224.46h-5.87c-.52,0,.1,1.34.28,1.59,1.12,1.59,3.7,1.12,4.51-.59l.9.44c-1.81,3.64-7.46,2.18-6.95-2.02s7.36-3.91,7.13.58ZM194.94,223.61c-.53-2.48-4.09-2.43-4.76,0h4.76Z"/>
  <path class="cls-2" d="M175.55,224.46h-6.12c.05,2.32,2.56,3.37,4.34,1.87.61-.51.59-1.38,1.61-.43-1.49,3.06-6.47,2.62-6.95-.86-.72-5.27,7.06-5.76,7.13-.58ZM174.36,223.61c-.56-2.44-4.19-2.48-4.76,0h4.76Z"/>
  <path class="cls-2" d="M325.56,218.68v3.06c.3.07.34-.12.51-.25.63-.49,2.49-2.54,2.89-2.72.45-.2,1.05-.05,1.53-.09l-4.24,4.14,4.58,4.95c0,.2-1.33.11-1.53-.17l-3.75-3.82v4.08h-1.02v-9.18h1.02Z"/>
  <path class="cls-2" d="M340.02,223.61v4.25h-1.02v-9.18h4c.49,0,1.49.89,1.65,1.41,1.07,3.27-2.21,3.75-4.63,3.53ZM342.66,219.7c-.76-.13-1.83.1-2.64,0v2.89h2.47c1.38,0,1.81-2.6.17-2.89Z"/>
  <path class="cls-2" d="M161.95,218.34v3.57c1.3-1.49,4.16-1.59,4.82.54.33,1.09.43,3.69.29,4.82-.09.72-.36.6-1.03.59-.07-1.8.67-7.52-2.73-5.88-.5.24-1.35,1.18-1.35,1.71v4.17h-1.02v-9.52h1.02Z"/>
  <path class="cls-2" d="M214.33,218.34v3.57c1.31-1.42,4.16-1.6,4.85.51.29.87.42,4.13.25,5.02-.11.57-.55.42-1.02.42v-4.34s-.25-.78-.3-.89c-.99-1.94-3.78-.33-3.78,1.06v4.17h-1.02v-9.52h1.02Z"/>
  <path class="cls-2" d="M348.32,218.37c1.15-.09,1.92.6,2.57,1.43l-.73.73c-.66-1.1-2.91-1.62-2.84.09.06,1.48,3.13,2.26,3.64,4.03,1.05,3.6-4.07,4.6-5.31,1.44l.75-.58c.69,1,1.98,2.16,3.14,1.07,1.79-1.71-1.98-3.41-2.8-4.5-1.19-1.57-.31-3.56,1.58-3.71Z"/>
  <polygon class="cls-2" points="296.14 170.89 296.14 174.63 298.18 174.73 298.18 175.65 296.14 175.65 296.14 184.32 294.95 184.32 294.95 175.65 293.08 175.55 293.08 174.63 294.95 174.63 294.95 170.89 296.14 170.89"/>
  <path class="cls-2" d="M224.86,225.49c.29,1.42,2.45,2.15,3.21.72.89-1.67-2.06-2.95-2.94-3.96-2.59-2.98,2.41-5.71,4.09-2.21l-.83.49c-.5-.75-2.23-1.64-2.74-.49-.64,1.44,1.52,2.3,2.37,3.06,3.98,3.58-1.91,7.22-4.1,3.06-.09-.32.78-.79.94-.68Z"/>
  <path class="cls-2" d="M309.13,226.95c-3.51-3.48,2.14-8.52,5.3-5.05s-2.03,8.29-5.3,5.05ZM311.41,221.77c-3.99.55-2.03,7.01,1.63,4.87,2.5-1.46,1.01-5.23-1.63-4.87Z"/>
  <path class="cls-2" d="M254.26,220.93c6.01-1.09,6.03,7.28.86,7.06-4.34-.19-4.4-6.41-.86-7.06ZM257.13,226.28c2.31-2.31-1.09-6.13-3.62-3.79s1.14,6.28,3.62,3.79Z"/>
  <path class="cls-2" d="M277.39,220.93c6.02-1.1,6.03,7.28.86,7.06-4.32-.18-4.36-6.42-.86-7.06ZM280.27,226.28c2.61-2.61-1.87-6.59-4.03-3.26-1.67,2.57,1.86,5.42,4.03,3.26Z"/>
  <path class="cls-2" d="M250.22,174.63h1.19s0,1.36,0,1.36c1.01-.94,2.29-2.29,3.74-1.27-.4,1.31-.87.66-1.67.87-1.21.32-1.76,1.73-1.91,2.87-.08.66-.14,1.68-.18,2.37-.07,1.21.06,2.45,0,3.66h-1.19v-9.87Z"/>
  <path class="cls-2" d="M246.14,222.59c-1.06.54-.79.08-1.47-.31-3.63-2.09-6.15,2.43-3.52,4.2,1.15.78,2.36.67,3.52,0,.68-.39.58-1.05,1.47-.06-2.51,3.26-8.42.95-6.85-3.28.73-1.98,2.74-2.53,4.69-2.21.8.13,1.96.84,2.17,1.66Z"/>
  <path class="cls-2" d="M159.91,218.68v1.02s-2.04,0-2.04,0v7.91c0,.35-1.19.35-1.19,0v-7.91h-2.04s0-1.02,0-1.02h5.27Z"/>
  <path class="cls-2" d="M313.49,174.63v9.61c-.33.4-1.06.38-1.36,0v-9.61h1.36Z"/>
  <path class="cls-2" d="M317.23,221.91h-.85s0-1.02,0-1.02h.85c-.25-2.05.41-3.08,2.54-2.54v1.01c-1.47-.45-1.64.14-1.52,1.53h1.36s0,1.02,0,1.02h-1.36s0,5.95,0,5.95h-1.02v-5.95Z"/>
  <path class="cls-2" d="M249.37,218.51v2.38l1.46.16.08.86h-1.53v5.95l-1.02-.26v-5.7h-1.19c0-.14-.02-.29,0-.43.05-.8.54-.58,1.2-.59v-2.38h1.02Z"/>
  <polygon class="cls-2" points="210.76 218.51 210.76 220.89 212.12 220.99 212.12 221.91 210.76 221.91 210.76 227.86 209.74 227.86 209.74 221.91 208.55 221.91 208.55 220.99 209.74 220.89 209.74 218.51 210.76 218.51"/>
  <path class="cls-2" d="M295.09,221.9c-.4-.07-.54-.19-.95-.03-1.6.64-1.16,4.6-1.24,6l-.86-.08-.09-6.74.95-.16c-.08,1.34.36.39.9.14.92-.43,2.17-.26,1.29.87Z"/>
  <path class="cls-2" d="M261.1,227.86h-1.02v-6.97h1.02s0,.68,0,.68c.75-.58,1.69-1.14,2.55-.43-.36,1.1-1.14.4-1.79.93-.18.15-.76,1.29-.76,1.45v4.34Z"/>
  <path class="cls-2" d="M207.36,218.34v9.27c-.23.34-.65.26-1.02.26v-9.52h1.02Z"/>
  <path class="cls-2" d="M312.59,170.57c1.38-.26,1.77,1.75.43,1.99s-1.68-1.75-.43-1.99Z"/>
  <path class="cls-1" d="M191.35,111.85c-14.65,2.44-28.93,6.72-42.67,12.27,10.36-18.11,21.7-35.68,34.44-52.21,6.13,12.26,8.74,26.22,8.23,39.94Z"/>
  <rect class="cls-3" x="154.63" y="201.25" width="208.49" height="1"/>
</svg>