<?xml version="1.0" encoding="UTF-8"?><svg id="Layer_1" xmlns="http://www.w3.org/2000/svg" viewBox="0 0 841.89 255.38"><defs><style>.cls-1{fill:#ec1c24;}</style></defs><path class="cls-1" d="M687.92,146.79c9.49,0,18.21-12.77,21.62-20.6h1.05l-4.9,19.56h16.39l9.22-46.31h-15.41c-2.56-.39-5.15-.65-7.74-.77-16.12,0-30.81,20.94-30.81,35.89,0,6.18,3.92,12.23,10.57,12.23ZM707.59,107.87c1.87.08,3.69.61,5.31,1.55l-.95,4.7c-3.65,5.28-11.69,18.79-16.25,18.79-1.45,0-1.86-1.48-1.86-2.65,0-4.37,3.82-22.38,13.75-22.38Z"/><path class="cls-1" d="M414.84,146.76c9.53,0,18.18-12.77,21.66-20.6h1.01l-4.83,19.56h16.39l9.12-46.27h-15.44c-2.55-.39-5.12-.65-7.7-.77l.1-.03c-16.19,0-30.88,20.94-30.88,35.89,0,6.18,3.92,12.23,10.57,12.23ZM434.43,108.01c1.86.07,3.67.6,5.27,1.55l-.91,4.57c-3.65,5.48-11.72,18.92-16.25,18.92-1.49,0-1.89-1.48-1.89-2.65,0-4.37,3.85-22.38,13.78-22.38Z"/><path class="cls-1" d="M491.7,130.26h22.84l2.97,15.46h15.78l-11.93-61.63-16.39-.13-33.24,61.77h11.72l8.24-15.46ZM508.46,98.97l4.02,21.54h-15.47l11.45-21.54Z"/><path class="cls-1" d="M523.49,184.73c-.07,1.24,2.67,2.08,3.72,2.08.85.04,1.69-.13,2.46-.48.77-.35,1.44-.88,1.97-1.54-1.66-.74-4.53-2.72-5.1-2.72s-2.97,1.41-3.04,2.65Z"/><path class="cls-1" d="M803.67,133.01c-.04.63-.2,1.24-.48,1.8-.28.56-.66,1.06-1.14,1.48-.47.41-1.03.73-1.62.93-.6.2-1.23.28-1.86.23-5.14-.51-10.15-1.92-14.8-4.17l-2.1,10.82c5.5,1.58,11.18,2.45,16.89,2.59,17.57,0,21.66-9.24,21.66-15.39,0-10.08-14.26-14.01-14.26-19.49,0-3.36,3.75-4.27,6.48-4.27l-.03.07c3.54.14,7.04.86,10.34,2.15l1.96-10.08c-4.28-.71-8.6-1.17-12.94-1.38-17.57,0-21.35,8.87-21.35,14.35,0,10.08,13.24,14.05,13.24,20.36Z"/><polygon class="cls-1" points="730.05 162.21 747.11 162.21 789.79 99.41 777.32 99.41 758.94 126.53 753.81 99.41 736.91 99.41 745.77 145.71 730.05 162.21"/><polygon class="cls-1" points="562.88 99.41 546.4 99.41 537.11 145.71 553.63 145.71 562.88 99.41"/><polygon class="cls-1" points="566.19 83.68 549.7 83.68 547.71 92.79 564.27 92.79 566.19 83.68"/><path class="cls-1" d="M768.3,184.73c-.07,1.24,2.7,2.08,3.72,2.08.85.04,1.69-.13,2.46-.48.77-.35,1.44-.88,1.97-1.54-1.69-.74-4.49-2.72-5.1-2.72s-2.97,1.41-3.04,2.65Z"/><path class="cls-1" d="M337.54,112.98c.81,0,.98.87.98,1.38-.07.78-.22,1.56-.44,2.32l-5.74,29.04h16.42l6.25-31.02c.57-2.2.91-4.45,1.01-6.72l-.07.07c.09-1.17-.05-2.36-.42-3.48-.37-1.12-.96-2.16-1.73-3.05-.77-.89-1.72-1.63-2.77-2.16-1.06-.53-2.21-.85-3.39-.93h-.91c-9.49,0-18.21,12.74-21.62,20.57h-1.05l4.86-19.56h-16.28l-9.26,46.27h16.62l2.87-14.42c1.66-3.36,11.72-18.32,14.66-18.32Z"/><path class="cls-1" d="M637.8,174.41c-.87.34-1.66.86-2.31,1.52-2.43,4.27-10.14,17.78-10.54,17.78s-2.74-.74-3.38-.74c-1.17.37-2.3.85-3.38,1.45h-.58c-3.17-.38-6.22-1.42-8.95-3.06-.91,1.4-1.7,2.87-2.37,4.4,2.09.44,4.02.91,5.94,1.11-.63,1.43-1.67,2.65-2.99,3.51-1.32.85-2.86,1.3-4.44,1.3-.95,0-5.95-.3-6.01-3.66,0-3.9,6.21-4.94,7.43-5.31.21-.26.37-.56.47-.87h-1.92c-.38,0-.75.16-1.02.44-3.82.81-10.14,4.3-10.14,8.8,0,3.36,4.53,4.17,6.49,4.17,4.53,0,11.83-2.59,13.51-8.5,1.15-.09,2.28-.32,3.38-.67,1.37.39,2.77.61,4.19.67.47.5.85.87.85,1.34s-2.74,5.51-3.58,7.43c-1.19,3.45-1.82,7.07-1.86,10.72,0,.5-.27,3.36,1.52,3.36,2.94,0,5.91-12.5,5.91-13.07,0-2.08-.47-5.38-.27-6.28.34-1.28,1.14-2.38,2.26-3.09,3.38-.91,9.56,0,12.06-2.65-3.01,0-5.58.2-6.18.2s-3.04,0-3.58-.54c6.76-7.33,10.64-11.96,10.57-17.94,0-.39-.02-1.71-1.1-1.79Z"/><path class="cls-1" d="M637.72,174.38s.05.02.08.03c.02,0,.03-.02.05-.03h-.14Z"/><path class="cls-1" d="M603.59,113.65l5.81-14.21c-1.31-.63-2.74-.95-4.19-.94-9.49,0-18.21,12.77-21.66,20.6v-.13h-1.01l4.87-19.52h-16.32l-9.26,46.27h16.52l2.91-14.42c3.38-5.41,10.41-18.75,18.72-18.75,1.27.11,2.5.49,3.62,1.11Z"/><path class="cls-1" d="M824.39,198.1c-2.38,1.32-4.94,2.28-7.6,2.86-1.35-1.61.27-3.97-2.94-5.61-.15-.1-.27-.22-.37-.37-.2-.94,1.22-4.3-1.32-4.3-1.89,0-1.35,1.28-2.37,2.39-1.02-.28-2.06-.43-3.11-.47-2.53,0-11.42,2.12-14.19,6.52-1.83.88-3.71,1.64-5.64,2.29-.74.17-1.5.27-2.26.3-1.32,0-5.1-.57-5.1-3.7s4.9-4.27,6.76-4.27h3.38c.74.05,1.48-.11,2.13-.47v-1.34c-.57-.34-1.22-.51-1.89-.5-2.5,0-14.83,2.59-15.34,8.37-1.65,1.08-3.57,1.68-5.54,1.75-.98,0-3.38-.37-3.38-2.86,0-1.95,2.64-4.54,4.77-6.42v-.64c-.27,0-.51-.27-1.12-.27-1.29,0-8.04,6.52-8.28,6.72-.23.2-.23.94-.34,1.41-1.74,1.18-3.75,1.88-5.85,2.05,0,0-3.72,0-3.75-2.12-.03-2.12,3.38-1.75,3.38-3.86,0-1.48-4.19-2.65-4.8-3.36.74-.77,1.35-1.34,1.35-1.98v-.74c-.24-.2-.31-.5-.98-.5-1.49,0-5.27,3.93-5.68,4.7.03.27.11.53.24.77h-5.17c-.54,0-3.01,0-3.55-.57,6.76-7.26,10.64-11.93,10.51-17.91,0-.4.2-1.81-1.12-1.81-.89.33-1.7.86-2.37,1.55-2.43,4.4-10.14,17.84-10.41,17.84s-2.74-.74-3.38-.74c-1.53.5-2.99,1.2-4.33,2.08-.26.25-.41.58-.44.94-2.16,1.58-4.19,4.5-6.15,4.5-4.22,0-5.91-29.37-14.93-29.37-5.88,0-30.41,16.8-30.41,16.8-1.16-.56-2.36-1.05-3.58-1.45-1.73.7-3.33,1.67-4.76,2.86v1.01c.96.36,1.89.8,2.77,1.31-3.85,2.89-17.47,11.76-17.47,13.44,0,.77,1.18,1.48,2.33,1.48,5.74,0,19.23-13.88,19.43-13.88s3.62.6,4.93.67c2.77,0,8.99.3,9.49.3,5.94,0,13.99-.67,18.04-3.36.34-.26.57-.63.64-1.04v-.54h-.78c-.61,0-2.53.54-3.38.57-8.13.53-16.29.36-24.39-.5,5.47-3.36,14.56-12.3,22.27-12.3.87-.07,1.73.07,2.53.42.79.35,1.48.9,2,1.59,2.74,3.66,2.77,7.46,4.39,12.43.71,2.12,1.22,4.7,1.76,6.18.54,1.48,1.12,7.33,4.97,7.33s8.82-4.7,11.32-8.17c1.11.23,2.24.37,3.38.4.44.5.78.87.78,1.34s-2.67,5.51-3.38,7.43c-1.22,3.44-1.85,7.07-1.86,10.72,0,.5-.27,3.36,1.55,3.36,2.87,0,5.88-12.5,5.88-13.07,0-2.08-.47-5.38-.24-6.32.31-1.25,1.08-2.34,2.16-3.06,3.01-.77,7.67-.2,10.57-1.58-.57.47-1.1.99-1.59,1.55.22.08.43.21.61.37.88-.5,2.54-1.92,3.14-1.92s3.89,1.38,4.22,2.45c-.47.81-4.36,2.96-4.36,4,0,1.88,4.26,3.16,5.2,3.16,3.39-.48,6.6-1.81,9.33-3.86,0,2.55,1.82,3.86,4.9,3.86,3.38-.4,6.6-1.65,9.36-3.63.88,2.82,4.56,3.63,6.28,3.63,3.88-.47,7.62-1.71,11.01-3.63v.4c.03.47.14.93.35,1.35.2.42.49.8.84,1.11s.76.55,1.21.71c.44.15.91.22,1.39.19h.2c4.73,0,14.32-8,15.47-8q.51,0,.81.44v.94c-1.18,1.85-3.11,2.89-3.04,4.64.07,1.75,1.65,2.08,3.38,2.08,3.11,0,12.26-4.77,12.8-6.72l-1.32-.37ZM809.93,195.42c0,2.89-8.62,5.91-9.49,5.91-.54-.02-1.06-.21-1.48-.55-.42-.34-.72-.81-.85-1.33,0-3.66,6.96-5.71,9.22-5.71,1.42,0,2.53.3,2.6,1.61v.07Z"/><polygon class="cls-1" points="684.55 99.41 673.03 99.41 658.36 128.88 658.23 128.88 656.98 99.41 643.16 99.41 628.67 128.81 628.46 128.81 627.48 99.41 613.03 99.41 614.81 145.71 630.56 145.71 644.31 117.79 644.51 117.79 645.66 145.71 661.41 145.71 684.55 99.41"/><path class="cls-1" d="M563.43,199.21l-.27-.17v-.37c1.89-.24,11.99-1.38,11.93-5.75,0-1.28-1.01-2.42-3.01-2.42s-13.51,3.97-13.51,9.44v.3c-1.19.78-2.59,1.21-4.02,1.24-.6.05-1.21-.03-1.79-.22-.57-.19-1.11-.49-1.57-.88-.46-.39-.83-.87-1.11-1.41-.27-.54-.43-1.12-.47-1.73-.02-.19-.02-.38,0-.57,0-7.53,13.04-11.36,12.87-20.43,0,0-.31-2.08-1.18-2.08-2.26,0-9.63,11.53-10.14,12.64-1.15,2.82-2.53,5.54-4.12,8.13-2.56,3.14-6.15,5.28-10.14,6.05-.64,0-2.7,0-2.7-1.95,0-3.83,7.37-6.25,9.63-6.25.51,0,1.25.27,1.82.27.2.03.41,0,.6-.1.18-.1.33-.25.41-.44,0-.27-.27-.87-.27-1.14-.78,0-2.16-.2-2.7-.2-2.37,0-14.73,2.72-15.21,9.04-1.42.81-3.03,1.25-4.66,1.28-.95,0-3.38-.37-3.38-2.86,0-1.95,2.64-4.54,4.76-6.39v-.77c-.27,0-.51-.27-1.08-.27-1.28,0-8.04,6.52-8.28,6.72-.19.56-.31,1.13-.37,1.71-1.66,1.03-3.55,1.64-5.51,1.78,0,0-3.89,0-3.92-2.12-.04-2.12,3.38-1.75,3.38-3.86,0-1.48-4.36-2.65-4.97-3.36.81-.81,1.38-1.34,1.38-1.98v-.6c-.27-.2-.34-.5-.98-.5-1.55,0-5.54,3.93-5.91,4.7-.37.77.51,1.01.37,1.18-.74.74-1.79,1.61-2.33,2.22.24.1.47.22.68.37.91-.5,2.6-1.92,3.38-1.92s3.99,1.38,4.39,2.45c-.54.81-4.53,2.99-4.53,4,0,1.88,4.46,3.16,5.44,3.16,3.31-.44,6.47-1.67,9.19-3.6.3,2.39,1.92,3.6,4.9,3.6,3.05-.33,5.97-1.41,8.51-3.13.34.98,1,1.82,1.88,2.39.88.57,1.91.83,2.95.74,3.99,0,8.31-4.07,12.7-7.76.24.27,0,.34,0,.34-1.42,5.34,1.69,7.43,4.93,7.43,2.94-.39,5.73-1.55,8.08-3.36.87,1.12,2,2.01,3.3,2.6,1.3.59,2.72.85,4.14.76,4.6,0,9.12-2.76,14.22-5.95v-.87c-3.48,1.85-7.29,2.99-11.22,3.36-1.79,0-5.44-.27-6.52-2.49ZM565.62,194.15c1.12-.85,2.43-1.4,3.82-1.59v.17c1.12,0,1.59.54,1.59,1.31,0,2.72-7.7,3.36-7.97,3.36.56-1.28,1.44-2.4,2.56-3.25Z"/><polygon class="cls-1" points="257.13 83.95 244.15 83.95 221.38 113.28 221.18 113.28 227.29 83.95 210.77 83.95 198.47 145.71 215 145.71 220.71 116.41 220.87 116.41 236.55 145.71 255.34 145.71 235.88 111.34 257.13 83.95"/><polygon class="cls-1" points="353.48 162.21 370.58 162.21 413.28 99.41 400.72 99.41 382.41 126.53 377.23 99.41 360.44 99.41 369.26 145.71 353.48 162.21"/><path class="cls-1" d="M482.85,174.65l-.17-.07c-12.77,0-29.22,10.62-39.87,21.14.63-2.27,1.53-4.46,2.67-6.52.43-1.01.92-1.98,1.49-2.92,1.99-2.18,5.91-3.02,5.88-5.61-.21-1.87-.58-3.71-1.12-5.51-.25-.27-.56-.46-.91-.57-2.73,4.47-9.02,9.88-13.51,9.88-.77.07-1.55.07-2.33,0,1.54,2.04,3.77,3.45,6.28,3.97,1.1-.19,2.15-.58,3.11-1.14v.34c-1.59,3.7-3.38,7.8-5,11.02-.37.54-14.6,15.59-14.6,18.79,0,1.45,2.13,2.39,3.38,2.39,5,0,11.25-18.45,12.67-20.16,9.8-12,25.88-20.94,37.4-20.87,3.72,0,11.69,1.55,11.72,8.64,0,1.99-.58,3.94-1.65,5.61-6.76,10.35-18.89,12.8-27.03,12.8-4.7,0-12.4-.71-16.22-5.68h-.84v.81c2.97,4.87,11.35,6.52,17.6,6.52,1.59,0,6.99-.64,9.49-.97,7.6-.94,25.3-10.08,25.07-21.41,0-7.8-8.38-10.45-13.52-10.45Z"/><path class="cls-1" d="M149.22,156.15c25.13-28.74,28.9-69.32,7.05-96.37-24.73-30.68-72.91-32.43-107.67-4.03C13.83,84.15,5.79,132.34,30.52,162.95c22.16,27.43,63.13,31.63,96.4,11.74,25.05,14.04,42.4,5.24,49.41-1.96,7.6-7.8,7.64-23.52,7.64-23.52,0,0-16.09,12.99-34.75,6.95ZM95.66,115.4c1.35-.57,31.08-3.76,45.34-23.52l.2.03c8.35-11.63,3.75-38.61-1.52-30.45-4.59,7.09-27.54,22.28-47.77,34.61,0,0,4.93-13.01,9.16-23.52,4.22-10.52-14.8-6.08-25.81-.44-1.05.54-9.83,6.02-10.57,9.48,4.63-.81,7.3-1.14,6.76,0-.54,1.14-.68,1.65-1.08,2.55-3.38,8.07-7.91,18.99-12.5,29.84-10.57,29.61-5.27,42.98-5.27,42.98l28.28,1.18s-7.09-3.02-4.09-19.32c3.01-16.3,7.3-18.42,8.24-18.79,1.58,6.42,11.07,32.07,32.42,48.42-29.73,16.63-63.39,14.73-80.53-6.48-20-24.77-9.93-66.5,22.54-93.19,32.47-26.68,75-28.13,95.07-3.36,18.35,22.65,11.36,59.45-14.79,85.97-15.18-10.49-36.05-28.99-44.07-36Z"/><path class="cls-1" d="M270.91,129.89c11.69.34,29.06-7.86,29.06-21.27,0-7.19-6.76-10.38-12.57-10.38-21.35,0-33.01,19.52-33.01,32.93,0,10.75,10.14,15.46,19.49,15.46,8.32-.27,16.52-2.01,24.22-5.14l2.4-11.33c-6.52,3.66-13.73,5.95-21.18,6.72-4.59,0-8.35-2.08-8.41-6.99ZM281.69,108.48l.03.13c.9,0,1.76.35,2.39.98.63.63.99,1.49.99,2.38,0,6.08-5.3,8.87-13.07,8.64.71-4.44,4.29-12.13,9.66-12.13Z"/><path class="cls-1" d="M401.59,198.84l.04-.24c.2,0,12.33-1.01,12.26-5.78,0-1.28-1.05-2.42-3.04-2.42s-13.51,3.97-13.51,9.44c.02.45.11.89.24,1.31-1.34.94-2.95,1.42-4.6,1.34,0-.23-.61-.64-.81-.91.04-1.88-.03-3.77-.2-5.65-.2-1.14,0-2.55-1.42-3.36-1.31-.12-2.61.23-3.68.97-1.66,1.11-3.38,2.28-4.87,3.56-1.49,1.28-3.92,3.36-5.14,3.36-1.76,0-2.3-2.86-2.33-3.36,0-3.06,8.38-8.5,9.6-9.64,2.36-2.08,4.25-4.63,5.54-7.49.5-1.25.82-2.56.95-3.9,0-.67.23-1.45-1.15-1.45-.91.24-1.74.71-2.4,1.38-5.67,6.52-10.68,13.24-15.84,19.96-4.41,2.96-9.55,4.65-14.87,4.91-3.38,0-12-1.38-12.16-8.77,0-5.31,5.04-11.9,9.93-16.8h11.59c.54,0,5.78.47,6.39.47s2.09,0,2.7-.74c-.3-.74-.57-1.71-1.01-1.98-3.11-1.41-11.82-1.28-15.88-1.85,1.05-1.05,2.02-2.17,2.9-3.36-.64-.23-1.31-.35-1.99-.34-1.37,1.18-2.65,2.45-3.85,3.8h-23.65c-1.52,0-3.18,3.6-3.18,4.47s.98.97,1.69.94l21.22-1.08c-6.42,6.72-12.84,13.17-12.74,19.73,0,8.1,9.46,10.08,14.09,10.08,6.27-.43,12.25-2.77,17.13-6.72-.1.62-.1,1.26,0,1.88,0,1.14.2,4.34,2.63,4.34,3.72,0,11.39-8.91,13.51-8.91.23,0,.45.07.62.22.17.15.27.36.29.59v5.78c.04.88.41,1.71,1.04,2.33.63.62,1.46.99,2.34,1.03,2.96-.68,5.74-1.96,8.18-3.76.93.94,2.05,1.67,3.28,2.14,1.23.47,2.56.68,3.88.61,4.56,0,9.12-2.76,14.22-5.95v-.64c-3.48,1.81-7.28,2.95-11.19,3.36-1.99,0-5.98-.27-6.76-2.92ZM404.29,194.15c1.12-.85,2.43-1.4,3.83-1.59v.17c1.15,0,1.59.54,1.59,1.31,0,2.72-7.7,3.36-7.97,3.36.56-1.28,1.44-2.4,2.56-3.25Z"/></svg>