<?xml version="1.0" encoding="UTF-8"?><svg id="Layer_1" xmlns="http://www.w3.org/2000/svg" viewBox="0 0 841.89 255.38"><defs><style>.cls-1{fill:#8bc43f;}.cls-2{fill:#f8d602;}.cls-3{fill:#09b6df;}.cls-4{fill:#1a234d;}.cls-5{fill:#e12f28;}</style></defs><path class="cls-4" d="M557.99,162h-26.45V49.34c3.42,0,10.37.03,16.3.06,5.7.03,10.3,4.66,10.3,10.35v3.5c9.12-10.51,20.23-16.41,33.88-16.36,13.74.04,24.74,5.71,32.14,17.13,4.58-3.78,8.71-8.05,13.62-11.05,25.75-15.73,57.03-.42,60.7,29.53.48,3.9.71,7.85.72,11.78.06,22.42.03,44.84.03,67.56h-26.72c-2.03,0-3.69-1.65-3.69-3.69v-.04c0-19.72.03-39.43-.03-59.14-.01-3.31-.19-6.66-.72-9.93-1.13-7.07-3.94-13.14-11.72-14.91-8.09-1.85-15.6-.11-20.4,6.84-2.8,4.07-5.03,9.36-5.28,14.22-.8,15.36-.57,30.78-.69,46.17-.04,5.55-.02,11.11-.01,16.8,0,2.06-1.66,3.74-3.72,3.74h-22.1c-2.06,0-3.73-1.66-3.73-3.73v-.43c-.07-20.89-.13-41.78-.23-62.67,0-2.01-.28-5.28-.68-7.25-1.4-7.08-4.72-12.72-12.54-13.97-8.13-1.3-15.19.99-20.15,7.93-3.88,5.41-5.03,11.71-5.06,18.21-.06,19.22-.03,38.44-.03,57.66v.64c0,2.06-1.67,3.73-3.73,3.73"/><path class="cls-4" d="M443.02,136.71c17.59-.1,30.69-13.33,30.69-30.99,0-17.89-13.19-31-31.06-30.89-17.65.12-30.68,13.37-30.51,31.06.16,17.65,13.44,30.91,30.89,30.82M476.99,59.15h0c0-5.33,4.32-9.65,9.65-9.65h16.68v112.63c-4.45,0-10.51.02-16.2.01-5.6-.02-10.13-4.56-10.13-10.16-14.73,12.2-31.19,15.59-49.1,12.09-11.71-2.28-22.6-7.92-30.64-16.73-21.63-23.69-21.07-60.31.13-83.3,17.44-18.92,52.99-26.81,79.61-4.91"/><path class="cls-4" d="M284.05,93.37h49.4c1.13,0,1.97-1.08,1.68-2.19-3-11.17-14.29-19.06-27.43-18.96-12.15.09-22.45,7.87-25.33,18.98-.28,1.1.55,2.17,1.68,2.17M361.25,114.19h-80.03c-.51,10.39,8.95,21.45,20.11,23.46,12.08,2.17,22.46-.61,30.04-11.01.54-.74,1.71-1.39,2.63-1.4,9.85-.1,19.69-.06,29.56-.06-3.1,23.64-35.14,43.66-62.98,39.84-32.96-4.52-54.46-33.17-50.31-66.71,4.31-34.93,33.34-56.53,67.47-51.37,30.2,4.57,51.07,31.65,48.68,62.53-.21,2.67-2.49,4.73-5.17,4.73"/><path class="cls-4" d="M710.56,49.31h17.01c3.94,0,7.89.18,11.82-.06,2.58-.16,3.59.86,4.43,3.18,8.22,22.78,16.56,45.51,24.87,68.25.4,1.1.89,2.18,1.66,4.07,3.34-9.3,6.41-17.79,9.46-26.29,5.48-15.27,11.01-30.53,16.39-45.84.86-2.46,1.99-3.44,4.71-3.38,7.89.16,15.8.09,24.04.08,1.88,0,3.22,1.89,2.53,3.64v.03c-12.06,30.43-34.04,86.07-40.96,103.6-1.3,3.29-4.48,5.44-8.01,5.44h-16.57c-3.5,0-6.65-2.1-7.98-5.34-14.27-34.79-29.07-71.22-43.18-105.87-.12-.31-.11-.68-.23-1.5"/><polygon class="cls-4" points="249.76 185.33 249.76 207.37 266.29 207.37 266.29 203.69 253.98 203.69 253.98 198.15 264.68 198.15 264.68 194.47 253.98 194.47 253.98 189.02 265.91 189.02 265.91 185.33 249.76 185.33"/><path class="cls-4" d="M282.72,189.83l3.85,9.26h-7.75l3.91-9.26ZM280.64,185.33l-9.67,22.04h4.37l1.96-4.66h10.77l1.96,4.66h4.53l-9.55-22.04h-4.37Z"/><path class="cls-4" d="M310.6,189.4c-1.18-.38-2.23-.57-3.13-.57-1.01,0-1.8.19-2.39.57-.59.38-.89.9-.89,1.58,0,.61.21,1.12.62,1.53.41.41.93.74,1.54,1.01.62.26,1.46.55,2.53.86,1.49.44,2.72.88,3.67,1.32.96.44,1.76,1.1,2.44,1.95.67.86,1.01,1.99,1.01,3.4s-.36,2.52-1.08,3.51c-.72,1-1.72,1.75-2.99,2.28-1.27.52-2.72.79-4.36.79-1.72,0-3.4-.32-5.04-.96-1.64-.64-3.07-1.49-4.28-2.57l1.76-3.58c1.12,1.03,2.36,1.83,3.74,2.42,1.39.59,2.68.88,3.88.88s2.1-.23,2.77-.67c.67-.45,1.01-1.06,1.01-1.85,0-.62-.21-1.15-.61-1.56-.42-.4-.93-.74-1.56-.99-.63-.25-1.49-.53-2.58-.85-1.49-.44-2.7-.87-3.65-1.29-.94-.42-1.76-1.05-2.43-1.9-.67-.85-1.01-1.97-1.01-3.35,0-1.28.34-2.4,1.03-3.35.68-.96,1.64-1.69,2.89-2.23,1.25-.52,2.69-.79,4.33-.79,1.43,0,2.84.21,4.23.63,1.4.42,2.64.99,3.73,1.7l-1.69,3.69c-1.14-.69-2.3-1.23-3.48-1.61"/><polygon class="cls-4" points="320.68 185.33 320.68 189.08 327.54 189.08 327.54 207.37 331.8 207.37 331.8 189.08 338.66 189.08 338.66 185.33 320.68 185.33"/><path class="cls-4" d="M364.67,189.83l3.85,9.26h-7.75l3.91-9.26ZM362.59,185.33l-9.67,22.04h4.37l1.96-4.66h10.77l1.96,4.66h4.53l-9.55-22.04h-4.37Z"/><polygon class="cls-4" points="382.33 185.33 382.33 207.37 386.55 207.37 386.55 198.65 396.53 198.65 396.53 194.97 386.55 194.97 386.55 189.02 397.5 189.02 397.53 185.33 382.33 185.33"/><path class="cls-4" d="M408.05,197.17h4.97c1.59,0,2.81-.35,3.65-1.04.83-.69,1.25-1.72,1.25-3.08s-.42-2.35-1.25-3.03c-.84-.68-2.06-1.01-3.65-1.01h-4.97v8.15ZM417.62,207.37l-3.81-6.51-.79.02h-4.97v6.49h-4.22v-22.04h9.2c2.85,0,5.06.66,6.61,1.99,1.56,1.32,2.33,3.19,2.33,5.61,0,1.72-.38,3.19-1.12,4.4-.74,1.22-1.83,2.13-3.26,2.73l4.85,7.31h-4.82Z"/><rect class="cls-4" x="429.74" y="185.34" width="4.22" height="22.04"/><path class="cls-4" d="M455.73,189.59c-1.06-.5-2.13-.75-3.23-.75-1.37,0-2.61.32-3.75.98-1.13.65-2.02,1.54-2.68,2.69-.65,1.15-.97,2.4-.97,3.76s.32,2.61.97,3.76c.66,1.15,1.54,2.05,2.68,2.71,1.13.66,2.38.99,3.75.99,1.05,0,2.1-.23,3.16-.69,1.06-.46,2-1.1,2.82-1.92l2.49,2.77c-1.16,1.18-2.5,2.1-4.03,2.78-1.54.68-3.09,1.02-4.66,1.02-2.12,0-4.07-.5-5.82-1.51-1.76-1.01-3.15-2.38-4.16-4.11-1.01-1.73-1.51-3.65-1.51-5.75s.52-4.01,1.54-5.73c1.03-1.72,2.43-3.08,4.2-4.07,1.77-.98,3.74-1.48,5.9-1.48,1.57,0,3.11.32,4.63.95,1.51.63,2.8,1.51,3.88,2.61l-2.46,3.09c-.77-.91-1.69-1.61-2.75-2.11"/><path class="cls-4" d="M476.4,189.83l3.84,9.26h-7.75l3.91-9.26ZM474.31,185.33l-9.66,22.04h4.37l1.95-4.66h10.77l1.95,4.66h4.53l-9.54-22.04h-4.38Z"/><polygon class="cls-4" points="547.44 185.33 540.21 199.53 532.9 185.33 528.09 185.33 528.09 207.37 531.93 207.37 531.93 191.57 538.82 205.1 541.53 205.1 548.39 191.57 548.39 207.37 552.26 207.37 552.26 185.33 547.44 185.33"/><polygon class="cls-4" points="560.83 185.33 560.83 207.37 577.35 207.37 577.35 203.69 565.05 203.69 565.05 198.15 575.75 198.15 575.75 194.47 565.05 194.47 565.05 189.02 576.98 189.02 576.98 185.33 560.83 185.33"/><path class="cls-4" d="M597.67,202.73c1.08-.62,1.93-1.48,2.54-2.59.61-1.1.91-2.35.91-3.75s-.31-2.67-.94-3.8c-.63-1.11-1.5-1.99-2.6-2.61-1.1-.62-2.34-.93-3.7-.93h-4.88v14.61h5.03c1.35,0,2.56-.32,3.64-.93M599.86,186.73c1.75.94,3.11,2.24,4.1,3.92.98,1.68,1.47,3.58,1.47,5.7s-.5,4.01-1.49,5.68c-1,1.67-2.37,2.98-4.14,3.92-1.76.94-3.77,1.42-6.01,1.42h-9v-22.04h9.16c2.2,0,4.18.47,5.92,1.41"/><rect class="cls-4" x="612.27" y="185.34" width="4.22" height="22.04"/><path class="cls-4" d="M638.26,189.59c-1.06-.5-2.13-.75-3.23-.75-1.37,0-2.62.32-3.75.98-1.14.65-2.02,1.54-2.68,2.69-.65,1.15-.97,2.4-.97,3.76s.33,2.61.97,3.76c.66,1.15,1.54,2.05,2.68,2.71,1.13.66,2.38.99,3.75.99,1.05,0,2.1-.23,3.16-.69,1.06-.46,2-1.1,2.82-1.92l2.49,2.77c-1.16,1.18-2.5,2.1-4.03,2.78-1.53.68-3.09,1.02-4.66,1.02-2.12,0-4.06-.5-5.83-1.51-1.76-1.01-3.15-2.38-4.15-4.11-1.01-1.73-1.51-3.65-1.51-5.75s.51-4.01,1.54-5.73c1.03-1.72,2.43-3.08,4.2-4.07,1.78-.98,3.75-1.48,5.91-1.48,1.57,0,3.11.32,4.62.95,1.51.63,2.8,1.51,3.88,2.61l-2.46,3.09c-.78-.91-1.7-1.61-2.75-2.11"/><path class="cls-4" d="M657.45,189.68l3.88,9.33h-7.81l3.94-9.33ZM655.35,185.14l-9.75,22.24h4.41l1.97-4.7h10.86l1.97,4.7h4.57l-9.62-22.24h-4.42Z"/><polygon class="cls-4" points="676.58 185.33 676.58 207.37 690.31 207.37 690.31 203.56 680.81 203.56 680.81 185.33 676.58 185.33"/><polygon class="cls-4" points="722.55 185.33 716 202.68 709.52 185.33 704.99 185.33 713.7 207.37 718.08 207.37 726.89 185.33 722.55 185.33"/><rect class="cls-4" x="732.84" y="185.34" width="4.22" height="22.04"/><polygon class="cls-4" points="743.17 185.33 743.17 189.08 750.03 189.08 750.03 207.37 754.28 207.37 754.28 189.08 761.14 189.08 761.14 185.33 743.17 185.33"/><path class="cls-4" d="M774.05,189.83l3.85,9.26h-7.75l3.9-9.26ZM771.98,185.33l-9.66,22.04h4.37l1.96-4.66h10.77l1.95,4.66h4.54l-9.55-22.04h-4.37Z"/><polygon class="cls-4" points="791.71 185.33 791.71 207.37 805.44 207.37 805.44 203.56 795.94 203.56 795.94 185.33 791.71 185.33"/><path class="cls-4" d="M822.27,189.4c-1.18-.38-2.23-.57-3.13-.57-1.01,0-1.81.19-2.39.57-.59.38-.88.9-.88,1.58,0,.61.21,1.12.62,1.53.41.41.92.74,1.54,1.01.63.26,1.47.55,2.53.86,1.49.44,2.72.88,3.67,1.32.95.44,1.76,1.1,2.44,1.95.67.86,1.01,1.99,1.01,3.4s-.36,2.52-1.09,3.51c-.72,1-1.72,1.75-2.99,2.28-1.27.52-2.72.79-4.36.79-1.73,0-3.4-.32-5.04-.96-1.63-.64-3.06-1.49-4.28-2.57l1.76-3.58c1.11,1.03,2.36,1.83,3.74,2.42,1.39.59,2.68.88,3.88.88s2.1-.23,2.77-.67c.67-.45,1.01-1.06,1.01-1.85,0-.62-.2-1.15-.61-1.56-.41-.4-.93-.74-1.56-.99-.63-.25-1.49-.53-2.58-.85-1.49-.44-2.71-.87-3.66-1.29-.94-.42-1.75-1.05-2.43-1.9-.67-.85-1-1.97-1-3.35,0-1.28.34-2.4,1.02-3.35.68-.96,1.65-1.69,2.9-2.23,1.25-.52,2.69-.79,4.33-.79,1.42,0,2.84.21,4.23.63,1.39.42,2.63.99,3.73,1.7l-1.7,3.69c-1.13-.69-2.29-1.23-3.48-1.61"/><polygon class="cls-4" points="509.62 185.19 509.62 200.79 496.33 185.19 492.55 185.19 492.55 207.55 496.77 207.55 496.77 191.69 510.13 207.55 513.84 207.55 513.84 185.19 509.62 185.19"/><path class="cls-5" d="M109.18,80.55c0,26.22,21.25,47.47,47.47,47.47v-47.47h-47.47Z"/><path class="cls-4" d="M156.67,174.83h39.59c4.35,0,7.88-3.53,7.88-7.88v-39.59c-26.22,0-47.47,21.25-47.47,47.47"/><path class="cls-4" d="M196.23,80.55h-39.56c0,26.22,21.25,47.47,47.47,47.47v-39.56c0-4.37-3.54-7.91-7.91-7.91"/><path class="cls-4" d="M61.69,174.83H22.1c-4.35,0-7.88-3.53-7.88-7.88v-39.59c26.21,0,47.47,21.25,47.47,47.47"/><path class="cls-4" d="M22.13,80.55h39.56c0,26.22-21.25,47.47-47.47,47.47v-39.56c0-4.37,3.54-7.91,7.91-7.91"/><path class="cls-3" d="M156.65,127.36c-26.22,0-47.47,21.25-47.47,47.47h47.47v-47.47Z"/><path class="cls-2" d="M61.7,127.36v47.47h47.47c0-26.21-21.25-47.47-47.47-47.47"/><path class="cls-4" d="M69.62,33.08c-4.37,0-7.91,3.54-7.91,7.91v39.56c26.22,0,47.47-21.25,47.47-47.47h-39.56Z"/><path class="cls-4" d="M148.75,33.08h-39.56c0,26.22,21.25,47.47,47.47,47.47v-39.56c0-4.37-3.54-7.91-7.91-7.91"/><path class="cls-4" d="M61.7,174.83h0v39.56c0,4.37,3.55,7.91,7.91,7.91h39.56c0-26.21-21.26-47.47-47.47-47.47"/><path class="cls-4" d="M156.66,174.83c-26.21,0-47.47,21.25-47.47,47.47h39.56c4.37,0,7.91-3.54,7.91-7.91v-39.56Z"/><path class="cls-1" d="M61.7,80.55v47.47c26.22,0,47.47-21.25,47.47-47.47h-47.47Z"/></svg>