<?xml version="1.0" encoding="UTF-8"?><svg id="Layer_1" xmlns="http://www.w3.org/2000/svg" viewBox="0 0 841.89 255.38"><defs><style>.cls-1{fill:#5892c9;}</style></defs><path class="cls-1" d="M142.8,233.88c-58.54,0-106.19-47.65-106.19-106.19S84.26,21.49,142.8,21.49s106.19,47.65,106.19,106.19-47.65,106.19-106.19,106.19ZM142.4,85.83c.15,0,8.64,9.09,8.64,16.38,0,7.89-6.14,9.74-8.24,9.74h-.8c-2.05,0-8.24-1.9-8.24-9.74,0-7.29,8.49-16.38,8.64-16.38ZM62.43,133.58h9.69v-17.88h16.28v-7.49h-16.28v-9.94h16.83v-7.49h-26.52v42.81ZM151.19,87.13h10.24l-11.89-42.81h-13.04l-12.29,42.81h9.44l2.7-9.59h12.39l2.45,9.59ZM146.95,70.3h-8.94l4.15-18.63h.7l4.1,18.63ZM191.8,112.2c0,12.59,5.84,22.13,18.13,22.13s18.23-9.54,18.23-22.13-5.89-22.13-18.23-22.13-18.13,9.54-18.13,22.13ZM202.09,112.2c0-8.19,2-14.88,7.84-14.88s7.94,6.69,7.94,14.88-2.1,14.88-7.94,14.88-7.84-6.69-7.84-14.88ZM138.26,222.04c.55-4.15,1.15-10.79,1.15-18.58,0-2.15,0-.7,0-1.3,0-10.94-.4-14.69-7.74-17.08-11.29-3.75-15.93-16.33-13.44-32.07l-37.81-96.2c-19.68,17.33-32.07,42.66-32.07,70.88,0,50.6,39.96,92.01,89.91,94.35ZM142.75,160.7c-15.03-3.5-20.63-17.23-20.63-29.37l-33.12-81.27c-2.15,1.5-4.25,3.1-6.29,4.75,7.29,17.28,39.96,94.8,40.01,94.9,5.79,13.94,16.28,9.29,18.83,20.83.6,2.8.65,4,.65,4h1.15s0-1.2.65-4c2.55-11.49,13.04-6.89,18.83-20.83.05-.1,32.72-77.67,40.01-94.9-2.05-1.65-4.1-3.25-6.29-4.75l-33.07,81.27c0,12.19-5.59,25.87-20.63,29.37h-.1ZM142.75,136.18c-6.39-1.45-14.34-7.74-15.38-15.93-.35-3.1-.65-3.95-.2-10.14l-29.02-65.63c-2.35,1.25-4.6,2.65-6.84,4.1,8.69,19.48,35.21,79.02,35.21,79.12,4.2,8.84,11.54,8.99,14.09,14.29,1.55,3.1,1.65,5.89,1.7,6.14h.95c0-.2.2-3,1.7-6.14,2.55-5.24,9.94-5.44,14.09-14.29,0-.05,26.57-59.64,35.21-79.12-2.2-1.45-4.5-2.8-6.84-4.1l-28.97,65.68c.45,6.14.15,7.04-.25,10.14-1.05,8.14-8.99,14.49-15.33,15.93h-.1v-.05ZM143.15,125.04l.45-3.6c1.85-8.34,7.89-7.29,12.04-15.43,0-.05.05-.1.05-.1.1-.3,20.63-44.36,29.22-62.74-12.69-6.34-26.97-9.94-42.11-9.94s-29.42,3.6-42.16,9.94c8.54,18.38,29.07,62.44,29.22,62.74l.05.1c4.15,8.14,10.19,7.14,12.04,15.43l.45,3.6h.75ZM237.26,127.69c0-28.22-12.44-53.55-32.07-70.88l-37.86,96.15c2.5,15.73-2.15,28.32-13.44,32.07-7.34,2.45-7.74,6.14-7.74,17.08,0,.6,0-.85,0,1.3,0,7.79.6,14.44,1.15,18.58,50-2.3,89.96-43.71,89.96-94.3ZM78.22,155.61s1.4,2.95,2.55,5.09c1.15,2.1,2.65,4.65,2.65,4.65l-2.5,1.45s-1.9-3.15-3.65-6.79c-.5.25-3.45,1.8-3.95,2.05.3.55,3.35,6.44,3.35,6.44l-2.55,1.45s-3.1-6.04-3.35-6.54c-.55.25-6.99,3.6-6.99,3.6l-1.55-3.05,15.78-8.19.2-.15ZM88.16,171.74l2.2,2.65-13.79,11.54-2.25-2.65,13.69-11.44.15-.1ZM100.94,183.83l2.75,1.95-3.55,19.03-3.15-1.8s.8-3.9.9-4.25c-.15-.1-2-1.2-3.75-2.45-1.8-1.3-3.55-2.75-3.7-2.85-.35.2-3.8,2.25-3.8,2.25l-2.7-2.3,16.83-9.49.15-.1ZM92.95,191.92c.3.25,1.5,1.2,2.7,2.1,1.25.85,2.45,1.65,2.8,1.85.2-.8,1.45-7.04,1.7-8.19-1,.55-6.44,3.8-7.19,4.25ZM112.33,190.82s2.9,1.45,7.04,2.85c2.85,1,5.19,1.75,7.59,2.25l-.8,2.75s-2.25-.4-5.89-1.5c-.2.6-4.94,14.14-4.94,14.14l-3.25-1.15s4.75-13.59,4.94-14.19c-3.4-1.25-5.74-2.55-5.74-2.55l1.05-2.6ZM169.12,194.47c1.2.6,2.05,1.7,2.5,3.3.2.65.3,1.3.3,1.9,0,2.5-1.75,4.5-4.94,5.49,0,0-1.6.5-2.1.65.2.55,2.1,6.64,2.1,6.64l-3.15.8-5.34-17.33,4.8-1.5c2.4-.75,4.35-.7,5.84.05ZM162.43,197.72c.15.55,1.5,4.75,1.65,5.29.65-.2,2.1-.65,2.1-.65.5-.15,1.6-.6,2.15-1.6.2-.35.25-.7.25-1.1,0-.3-.05-.6-.15-.95-.2-.6-.6-1.1-1.15-1.4-.95-.5-2.3-.4-3.1-.15,0,0-1.3.4-1.75.55ZM179.81,186.93l15.58,11.44-2.75,1.95s-3.15-2.4-3.45-2.6c-.2.1-1.8,1.25-3.55,2.25-1.65,1-3.4,1.85-3.6,1.95.1.4.7,4.25.7,4.25l-3,1.4-2.6-19.13,2.65-1.5ZM181.61,199.02c.45-.2,1.7-.9,2.9-1.6,1.05-.65,1.95-1.2,2.35-1.55-.65-.5-5.49-4.2-6.49-4.95.2,1.25,1.15,7.29,1.25,8.09ZM197.65,171.19l13.59,12.14-2.45,2.85s-12.74-3.75-14.69-4.25c1.45,1.35,9.34,9.69,9.34,9.69l-2.4,2.15-12.84-13.04,3-2.7s12.29,3.65,14.24,4.2c-1.45-1.35-9.94-8.64-9.94-8.64l2.15-2.4ZM203.84,162.1l15.73,9.14-1.6,2.75-15.83-9.14,1.7-2.75ZM210.68,147.02l2.7,1.4-.25.3c-.9,1.05-1.25,1.6-1.7,2.8-.2.55-.45,1.6-.05,2.4.2.4.55.7,1.1.9,1.2.4,2.25-.65,3.45-1.85,1.65-1.7,3.75-3.8,7.04-2.65,3.4,1.15,4.55,4.15,3.15,8.24-.4,1.25-1.2,2.3-1.9,3.3l-.15.2-2.8-1.3.3-.35c.35-.4,1.5-1.75,1.95-3.1.45-1.2.4-3.2-1.45-3.8-1.5-.5-2.65.65-3.95,2-1.6,1.7-3.45,3.55-6.44,2.55-1.35-.45-2.3-1.3-2.9-2.4-.7-1.35-.7-3.1-.05-4.94.4-1.25,1.1-2.5,1.85-3.5l.1-.2Z"/><path class="cls-1" d="M288.3,43.82h21.13v6.09h-13.49v11.39h12.89v6.09h-12.89v18.23h-7.69v-41.81h.05Z"/><path class="cls-1" d="M326.22,54.31c6.29,0,13.54,3.3,13.54,15.88s-7.24,15.93-13.54,15.93-13.59-3-13.59-15.93,7.29-15.88,13.59-15.88ZM326.22,80.83c4.8,0,5.89-5.49,5.89-10.64s-1.1-10.59-5.89-10.59-5.94,5.44-5.94,10.59,1.15,10.64,5.94,10.64Z"/><path class="cls-1" d="M358.38,54.31c6.29,0,13.54,3.3,13.54,15.88s-7.24,15.93-13.54,15.93-13.59-3-13.59-15.93c0-12.59,7.29-15.88,13.59-15.88ZM358.38,80.83c4.8,0,5.89-5.49,5.89-10.64s-1.1-10.59-5.89-10.59-5.94,5.44-5.94,10.59,1.15,10.64,5.94,10.64Z"/><path class="cls-1" d="M403.14,40.73v39.66c0,2.2.05,4.15.25,5.29h-6.94c-.1-.9-.25-2.7-.25-4.8h-.2c-1.2,2.65-3.4,5.29-8.19,5.29-7.69,0-10.84-7.29-10.84-15.88,0-10.04,4-15.93,10.64-15.93,4.45,0,6.89,2.5,7.99,4.9h.1v-18.53h7.44ZM389.8,80.64c4.4,0,5.84-4.75,5.84-10.54s-1.7-10.34-5.74-10.34-5.54,4-5.54,10.19c0,7.09,1.15,10.69,5.44,10.69Z"/><path class="cls-1" d="M427.01,56.56c2.1-.95,5.04-2.3,9.79-2.3,9.59,0,11.79,4.7,11.79,12.39v13.49c0,2.2.25,4.25.4,5.44h-6.69c-.35-1.2-.4-2.7-.4-4.2h-.1c-1.85,2.5-4.2,4.7-8.64,4.7-4.8,0-9.24-3.3-9.24-9.04,0-8.39,6.84-10.49,16.23-10.49h1.5v-1.1c0-3.05-1.5-5.89-5.74-5.89-3.7,0-6.99,1.8-8.44,3l-.45-5.99ZM441.6,70.55h-.65c-6.34,0-10.14,1.3-10.14,5.79,0,2.8,1.85,4.75,4.75,4.75,4.45,0,6.04-3.3,6.04-8.79v-1.75Z"/><path class="cls-1" d="M455.44,59.86c0-1.9-.05-3.7-.25-5.09h6.94c.05,1.55.25,3.2.25,4.75h.1c1.1-1.85,3.2-5.19,8.19-5.19,6.99,0,9.09,5.19,9.09,11.44v19.88h-7.44v-18.53c0-4.75-1.2-6.69-4.25-6.69-3.9,0-5.24,3.3-5.24,7.24v17.98h-7.44v-25.77h.05Z"/><path class="cls-1" d="M511.83,40.73v39.66c0,2.2.05,4.15.25,5.29h-6.94c-.1-.9-.25-2.7-.25-4.8h-.2c-1.2,2.65-3.4,5.29-8.19,5.29-7.69,0-10.84-7.29-10.84-15.88,0-10.04,4-15.93,10.64-15.93,4.45,0,6.89,2.5,7.99,4.9h.1v-18.53h7.44ZM498.54,80.64c4.4,0,5.84-4.75,5.84-10.54s-1.7-10.34-5.74-10.34-5.54,4-5.54,10.19c0,7.09,1.15,10.69,5.44,10.69Z"/><path class="cls-1" d="M552.99,75.54h-14.39l-3,10.09h-7.69l14.04-41.81h8.39l13.49,41.81h-7.89l-2.95-10.09ZM551.39,69.7l-5.29-19.53h-.1l-5.74,19.53h11.14Z"/><path class="cls-1" d="M568.47,90.43c1.75.95,5.19,2.65,9.09,2.65,6.99,0,8.14-4.85,8.14-9.69v-2.95h-.1c-1.2,2.4-3.3,5.19-8.14,5.19-4.3,0-10.79-2.9-10.79-15.33,0-8.49,3.05-15.98,11.14-15.98,4.5,0,6.59,2.6,8.14,5.29h.25c0-1.6.2-3.2.25-4.8h6.69c-.1,1.6-.25,3.25-.25,4.85v22.78c0,9.64-2.95,16.53-14.24,16.53-4.9,0-8.79-1.25-10.59-1.9l.4-6.64ZM579.21,80.19c4.7,0,6.54-3.35,6.54-10.34,0-6.44-2.45-9.94-5.99-9.89-3.9.05-5.39,3.65-5.39,9.94,0,7.24,2.35,10.29,4.85,10.29Z"/><path class="cls-1" d="M599.94,59.86c0-1.9-.05-3.7-.25-5.09h6.69c.05,1.85.25,3.8.25,5.64h.1c.9-2.4,3.25-6.09,7.84-6.09.5,0,.85.1,1.25.2v6.94c-.65-.2-1.3-.3-2.1-.3-3.05,0-6.39,1.85-6.39,7.59v16.88h-7.44v-25.77h.05Z"/><path class="cls-1" d="M621.37,41.67h7.69v7.29h-7.69v-7.29ZM621.47,54.76h7.44v30.87h-7.44v-30.87Z"/><path class="cls-1" d="M657.28,84.83c-1.75.65-4.3,1.25-7.29,1.25-10.19,0-14.49-7.14-14.49-15.88s4.55-15.93,14.93-15.93c2.35,0,5.09.7,6.49,1.25l-.5,5.94c-1.3-.65-3.2-1.5-5.19-1.5-5.64,0-8.09,3.8-8.09,10.34,0,5.74,2.75,10.19,8.44,10.19,1.8,0,4.25-.85,5.29-1.5l.4,5.84Z"/><path class="cls-1" d="M686.2,80.54c0,1.9.05,3.7.25,5.09h-6.94c-.05-1.55-.25-3.2-.25-4.75l-.2-.05.05.05c-1.45,2.3-3.35,5.19-8.19,5.19-6.99,0-9.09-5.19-9.09-11.44v-19.88h7.44v18.53c0,4.75,1.3,6.69,4.45,6.69,3.95,0,5.09-3.6,5.09-7.54v-17.68h7.44v25.77h-.05Z"/><path class="cls-1" d="M693.64,40.73h7.44v44.9h-7.44v-44.9Z"/><path class="cls-1" d="M711.23,48.42l7.44-2.3v8.64h6.14v5.44h-6.14v15.98c0,3.3,1.2,4.25,3.35,4.25,1.3,0,2.3-.35,2.8-.65v5.29c-1.15.55-2.75,1-4.99,1-5.49,0-8.64-2.5-8.64-8.99v-16.88h-4.9v-5.44h4.9v-6.34h.05Z"/><path class="cls-1" d="M753.93,80.54c0,1.9.05,3.7.25,5.09h-6.94c-.05-1.55-.25-3.2-.25-4.75l-.2-.05.05.05c-1.45,2.3-3.35,5.19-8.19,5.19-6.99,0-9.09-5.19-9.09-11.44v-19.88h7.44v18.53c0,4.75,1.3,6.69,4.45,6.69,3.95,0,5.09-3.6,5.09-7.54v-17.68h7.44v25.77h-.05Z"/><path class="cls-1" d="M760.88,59.86c0-1.9-.05-3.7-.25-5.09h6.69c.05,1.85.25,3.8.25,5.64h.1c.9-2.4,3.25-6.09,7.84-6.09.5,0,.85.1,1.25.2v6.94c-.65-.2-1.3-.3-2.1-.3-3.05,0-6.39,1.85-6.39,7.59v16.88h-7.39v-25.77Z"/><path class="cls-1" d="M803.73,84.13c-1.55.65-4.8,2-9.24,2-9.94,0-14.24-7.14-14.24-15.43,0-9.24,4.85-16.33,12.69-16.33,6.64,0,12.34,3.9,12.34,16.48v1.45h-17.83c0,5.24,2.1,8.44,7.84,8.44,4.55,0,6.69-1.4,8.09-2.4l.35,5.79ZM798.14,67.55c0-5.44-1.8-8.19-5.14-8.19-3.9,0-5.49,4.15-5.49,8.19h10.64Z"/><path class="cls-1" d="M303.29,110.9c8.69,0,16.63,6.44,16.63,21.53s-7.94,21.53-16.63,21.53-16.63-6.44-16.63-21.53c0-15.03,7.94-21.53,16.63-21.53ZM303.29,148.07c4.85,0,8.74-4.15,8.74-15.63s-3.9-15.63-8.74-15.63-8.74,4.15-8.74,15.63,3.9,15.63,8.74,15.63Z"/><path class="cls-1" d="M326.27,127.54c0-1.9-.05-3.7-.25-5.09h6.69c.05,1.85.25,3.8.25,5.64h.1c.9-2.4,3.25-6.09,7.84-6.09.5,0,.85.1,1.25.2v6.94c-.65-.2-1.3-.3-2.1-.3-3.05,0-6.39,1.85-6.39,7.59v16.88h-7.44v-25.77h.05Z"/><path class="cls-1" d="M347.49,158.11c1.75.95,5.19,2.65,9.09,2.65,6.99,0,8.14-4.85,8.14-9.69v-2.95h-.1c-1.2,2.4-3.3,5.19-8.14,5.19-4.3,0-10.79-2.9-10.79-15.33,0-8.49,3.05-15.98,11.14-15.98,4.5,0,6.59,2.6,8.14,5.29h.25c0-1.6.2-3.2.25-4.8h6.69c-.1,1.6-.25,3.25-.25,4.85v22.78c0,9.64-2.95,16.53-14.24,16.53-4.9,0-8.79-1.25-10.59-1.9l.4-6.64ZM358.18,147.87c4.7,0,6.54-3.35,6.54-10.39,0-6.44-2.45-9.94-5.99-9.89-3.9.05-5.39,3.65-5.39,9.94,0,7.29,2.35,10.34,4.85,10.34Z"/><path class="cls-1" d="M380.16,124.24c2.1-.95,5.04-2.3,9.79-2.3,9.59,0,11.79,4.7,11.79,12.39v13.49c0,2.2.25,4.25.4,5.44h-6.69c-.35-1.2-.4-2.7-.4-4.2h-.1c-1.85,2.5-4.2,4.7-8.64,4.7-4.8,0-9.24-3.3-9.24-9.04,0-8.39,6.84-10.49,16.23-10.49h1.5v-1.15c0-3.05-1.5-5.89-5.74-5.89-3.7,0-6.99,1.8-8.44,3l-.45-5.94ZM394.8,138.23h-.65c-6.34,0-10.14,1.3-10.14,5.79,0,2.8,1.85,4.75,4.75,4.75,4.45,0,6.04-3.3,6.04-8.79v-1.75Z"/><path class="cls-1" d="M408.63,127.54c0-1.9-.05-3.7-.25-5.09h6.94c.05,1.55.25,3.2.25,4.75h.1c1.1-1.85,3.2-5.19,8.19-5.19,6.99,0,9.09,5.19,9.09,11.44v19.88h-7.44v-18.53c0-4.75-1.2-6.69-4.25-6.69-3.9,0-5.24,3.3-5.24,7.24v17.98h-7.44v-25.77h.05Z"/><path class="cls-1" d="M440.3,109.36h7.64v7.29h-7.64v-7.29ZM440.4,122.44h7.44v30.87h-7.44v-30.87Z"/><path class="cls-1" d="M453.59,146.92l13.19-18.83h-12.79v-5.64h20.18v6.34l-12.94,18.88h13.34v5.64h-21.03v-6.39h.05Z"/><path class="cls-1" d="M481.11,124.24c2.1-.95,5.04-2.3,9.79-2.3,9.59,0,11.79,4.7,11.79,12.39v13.49c0,2.2.25,4.25.4,5.44h-6.69c-.35-1.2-.4-2.7-.4-4.2h-.1c-1.85,2.5-4.2,4.7-8.64,4.7-4.8,0-9.24-3.3-9.24-9.04,0-8.39,6.84-10.49,16.23-10.49h1.5v-1.15c0-3.05-1.5-5.89-5.74-5.89-3.7,0-6.99,1.8-8.44,3l-.45-5.94ZM495.74,138.23h-.65c-6.34,0-10.14,1.3-10.14,5.79,0,2.8,1.85,4.75,4.75,4.75,4.45,0,6.04-3.3,6.04-8.79v-1.75Z"/><path class="cls-1" d="M512.33,116.1l7.44-2.3v8.64h6.14v5.44h-6.14v15.98c0,3.3,1.2,4.25,3.35,4.25,1.3,0,2.3-.35,2.8-.65v5.29c-1.15.55-2.75,1-4.99,1-5.49,0-8.64-2.5-8.64-8.99v-16.88h-4.9v-5.44h4.9v-6.34h.05Z"/><path class="cls-1" d="M531.26,109.36h7.64v7.29h-7.64v-7.29ZM531.36,122.44h7.44v30.87h-7.44v-30.87Z"/><path class="cls-1" d="M558.98,121.99c6.29,0,13.54,3.3,13.54,15.88s-7.24,15.93-13.54,15.93-13.59-3-13.59-15.93,7.29-15.88,13.59-15.88ZM558.98,148.52c4.8,0,5.89-5.49,5.89-10.64s-1.1-10.59-5.89-10.59-5.94,5.44-5.94,10.59,1.15,10.64,5.94,10.64Z"/><path class="cls-1" d="M578.36,127.54c0-1.9-.05-3.7-.25-5.09h6.94c.05,1.55.25,3.2.25,4.75h.1c1.1-1.85,3.2-5.19,8.19-5.19,6.99,0,9.09,5.19,9.09,11.44v19.88h-7.44v-18.53c0-4.75-1.2-6.69-4.25-6.69-3.9,0-5.24,3.3-5.24,7.24v17.98h-7.44v-25.77h.05Z"/><path class="cls-1" d="M637.75,121.99c6.29,0,13.54,3.3,13.54,15.88s-7.24,15.93-13.54,15.93-13.59-3-13.59-15.93,7.29-15.88,13.59-15.88ZM637.75,148.52c4.8,0,5.89-5.49,5.89-10.64s-1.1-10.59-5.89-10.59-5.94,5.44-5.94,10.59c.05,5.14,1.15,10.64,5.94,10.64Z"/><path class="cls-1" d="M659.58,127.94h-5.14v-5.44h5.14v-6.29c0-4.45,2.1-8.49,8.84-8.49,2,0,3.9.4,5.34.7l-.3,5.39c-.9-.25-1.85-.5-2.95-.5-2.15,0-3.55,1.5-3.55,3.85v5.34h5.64v5.44h-5.64v25.37h-7.44v-25.37h.05Z"/><path class="cls-1" d="M695.44,116.1l7.44-2.3v8.64h6.14v5.44h-6.14v15.98c0,3.3,1.2,4.25,3.35,4.25,1.3,0,2.3-.35,2.8-.65v5.29c-1.15.55-2.75,1-4.99,1-5.49,0-8.64-2.5-8.64-8.99v-16.88h-4.9v-5.44h4.9v-6.34h.05Z"/><path class="cls-1" d="M713.72,108.41h7.44v18.03h.2c1.3-1.9,3.05-4.45,7.69-4.45,6.99,0,9.09,5.19,9.09,11.44v19.88h-7.44v-18.53c0-4.75-1.2-6.69-4.25-6.69-3.9,0-5.24,3.3-5.24,7.24v17.98h-7.44v-44.9h-.05Z"/><path class="cls-1" d="M767.47,151.81c-1.55.65-4.8,2-9.24,2-9.94,0-14.24-7.14-14.24-15.43,0-9.24,4.85-16.33,12.69-16.33,6.64,0,12.34,3.9,12.34,16.48v1.45h-17.83c0,5.29,2.1,8.44,7.84,8.44,4.55,0,6.69-1.4,8.09-2.4l.35,5.79ZM761.83,135.23c0-5.44-1.8-8.19-5.14-8.19-3.9,0-5.49,4.15-5.49,8.19h10.64Z"/><path class="cls-1" d="M295.65,179.19v27.07c0,6.94,2.1,9.24,6.59,9.24s6.54-2.3,6.54-9.24v-27.07h7.69v27.07c0,11.04-6.34,15.33-14.19,15.33s-14.24-4.3-14.24-15.33v-27.07h7.59Z"/><path class="cls-1" d="M323.82,195.22c0-1.9-.05-3.7-.25-5.09h6.94c.05,1.55.25,3.2.25,4.75h.1c1.1-1.85,3.2-5.19,8.19-5.19,6.99,0,9.09,5.19,9.09,11.44v19.88h-7.34v-18.53c0-4.75-1.2-6.69-4.25-6.69-3.9,0-5.24,3.3-5.24,7.24v17.98h-7.49v-25.77Z"/><path class="cls-1" d="M355.49,177.04h7.69v7.29h-7.69v-7.29ZM355.64,190.17h7.44v30.87h-7.44v-30.87Z"/><path class="cls-1" d="M373.22,183.78l7.44-2.3v8.64h6.14v5.44h-6.14v15.98c0,3.3,1.2,4.25,3.35,4.25,1.3,0,2.3-.35,2.8-.65v5.29c-1.15.55-2.75,1-4.99,1-5.49,0-8.64-2.5-8.64-8.99v-16.88h-4.9v-5.44h4.9v-6.34h.05Z"/><path class="cls-1" d="M414.18,219.49c-1.55.65-4.8,2-9.24,2-9.94,0-14.24-7.14-14.24-15.43,0-9.24,4.85-16.33,12.69-16.33,6.64,0,12.34,3.9,12.34,16.48v1.45h-17.83c0,5.29,2.1,8.44,7.84,8.44,4.55,0,6.69-1.4,8.09-2.4l.35,5.79ZM408.58,202.91c0-5.44-1.8-8.19-5.14-8.19-3.9,0-5.49,4.15-5.49,8.19h10.64Z"/><path class="cls-1" d="M446.84,176.09v39.66c0,2.2.05,4.15.25,5.29h-6.94c-.1-.9-.25-2.7-.25-4.8h-.2c-1.2,2.65-3.4,5.29-8.19,5.29-7.69,0-10.84-7.29-10.84-15.88,0-10.04,4-15.93,10.64-15.93,4.45,0,6.89,2.5,7.99,4.9h.1v-18.53h7.44ZM433.51,216.05c4.4,0,5.84-4.75,5.84-10.54s-1.7-10.34-5.74-10.34-5.54,4-5.54,10.19c0,7.09,1.15,10.69,5.44,10.69Z"/><path class="cls-1" d="M470.22,179.19h9.09l13.89,32.82h.1v-32.82h6.94v41.81h-9.09l-13.84-32.57h-.15v32.57h-6.94v-41.81Z"/><path class="cls-1" d="M509.48,191.92c2.1-.95,5.04-2.3,9.79-2.3,9.59,0,11.79,4.7,11.79,12.39v13.49c0,2.2.25,4.25.4,5.44h-6.69c-.35-1.2-.4-2.7-.4-4.2h-.1c-1.85,2.5-4.2,4.7-8.64,4.7-4.8,0-9.24-3.3-9.24-9.04,0-8.39,6.84-10.49,16.23-10.49h1.5v-1.1c0-3.05-1.5-5.89-5.74-5.89-3.7,0-6.99,1.8-8.44,3l-.45-5.99ZM524.12,205.91h-.65c-6.34,0-10.14,1.3-10.14,5.79,0,2.8,1.85,4.75,4.75,4.75,4.45,0,6.04-3.3,6.04-8.79v-1.75Z"/><path class="cls-1" d="M540.7,183.78l7.44-2.3v8.64h6.14v5.44h-6.14v15.98c0,3.3,1.2,4.25,3.35,4.25,1.3,0,2.3-.35,2.8-.65v5.29c-1.15.55-2.75,1-4.99,1-5.49,0-8.64-2.5-8.64-8.99v-16.88h-4.9v-5.44h4.9v-6.34h.05Z"/><path class="cls-1" d="M559.63,177.04h7.69v7.29h-7.69v-7.29ZM559.73,190.17h7.44v30.87h-7.44v-30.87Z"/><path class="cls-1" d="M587.35,189.67c6.29,0,13.54,3.3,13.54,15.88s-7.24,15.93-13.54,15.93-13.59-3-13.59-15.93,7.29-15.88,13.59-15.88ZM587.35,216.2c4.8,0,5.89-5.49,5.89-10.64s-1.1-10.59-5.89-10.59-5.94,5.44-5.94,10.59,1.15,10.64,5.94,10.64Z"/><path class="cls-1" d="M606.73,195.22c0-1.9-.05-3.7-.25-5.09h6.94c.05,1.55.25,3.2.25,4.75h.1c1.1-1.85,3.2-5.19,8.19-5.19,6.99,0,9.09,5.19,9.09,11.44v19.88h-7.44v-18.53c0-4.75-1.2-6.69-4.25-6.69-3.9,0-5.24,3.3-5.24,7.24v17.98h-7.44v-25.77h.05Z"/><path class="cls-1" d="M637,213.8c1.2.5,4.25,2.05,7.74,2.05,2.7,0,4.8-.65,4.8-3.05,0-1.2-.6-2.35-3.3-3.9l-3.05-1.8c-3.1-1.85-6.54-3.85-6.54-8.69,0-4.25,4.15-8.74,10.64-8.74,3.95,0,6.99,1,7.74,1.25l-.4,5.74c-1.85-.7-3.85-1.4-6.54-1.4-3,0-4.25,1.15-4.25,3,0,1.7,1.3,2.6,3.5,3.95l3.65,2.35c3.85,2.45,5.74,4.2,5.74,7.79,0,5.69-4.8,9.09-11.49,9.09-3.85,0-6.99-.9-8.59-1.5l.35-6.14Z"/></svg>